solid vcg
  facet normal  0.000000e+00  3.568220e-01 -9.341724e-01
    outer loop
      vertex   4.478839e+00  0.000000e+00 -3.552714e-15
      vertex  -4.478840e+00  0.000000e+00 -3.552714e-15
      vertex  -9.637907e+00  8.347545e+00  3.188478e+00
    endloop
  endfacet
  facet normal -1.765383e-08  3.568220e-01 -9.341724e-01
    outer loop
      vertex   4.478839e+00  0.000000e+00 -3.552714e-15
      vertex  -9.637907e+00  8.347545e+00  3.188478e+00
      vertex   9.637906e+00  8.347546e+00  3.188478e+00
    endloop
  endfacet
  facet normal -1.765384e-08  3.568222e-01 -9.341723e-01
    outer loop
      vertex   9.637906e+00  8.347546e+00  3.188478e+00
      vertex  -9.637907e+00  8.347545e+00  3.188478e+00
      vertex   5.159066e+00  1.559446e+01  5.956554e+00
    endloop
  endfacet
  facet normal  0.000000e+00  3.568222e-01 -9.341723e-01
    outer loop
      vertex  -9.637907e+00  8.347545e+00  3.188478e+00
      vertex  -5.159066e+00  1.559446e+01  5.956554e+00
      vertex   5.159066e+00  1.559446e+01  5.956554e+00
    endloop
  endfacet
  facet normal  9.341722e-01 -3.298005e-08 -3.568226e-01
    outer loop
      vertex   2.075353e+01 -9.637907e+00  1.559446e+01
      vertex   1.798545e+01 -5.159066e+00  8.347545e+00
      vertex   1.798545e+01  5.159066e+00  8.347544e+00
    endloop
  endfacet
  facet normal  9.341723e-01  2.265859e-07 -3.568222e-01
    outer loop
      vertex   2.075353e+01 -9.637907e+00  1.559446e+01
      vertex   1.798545e+01  5.159066e+00  8.347544e+00
      vertex   2.394201e+01 -4.478841e+00  2.394201e+01
    endloop
  endfacet
  facet normal  9.341723e-01  0.000000e+00 -3.568223e-01
    outer loop
      vertex   2.394201e+01 -4.478841e+00  2.394201e+01
      vertex   1.798545e+01  5.159066e+00  8.347544e+00
      vertex   2.394201e+01  4.478841e+00  2.394201e+01
    endloop
  endfacet
  facet normal  9.341723e-01 -4.875848e-07 -3.568223e-01
    outer loop
      vertex   1.798545e+01  5.159066e+00  8.347544e+00
      vertex   2.075353e+01  9.637907e+00  1.559446e+01
      vertex   2.394201e+01  4.478841e+00  2.394201e+01
    endloop
  endfacet
  facet normal  5.773496e-01 -5.773506e-01 -5.773506e-01
    outer loop
      vertex   1.798545e+01 -5.159066e+00  8.347545e+00
      vertex   2.075353e+01 -9.637907e+00  1.559446e+01
      vertex   1.559446e+01 -1.798545e+01  1.878294e+01
    endloop
  endfacet
  facet normal  5.773503e-01 -5.773503e-01 -5.773502e-01
    outer loop
      vertex   1.798545e+01 -5.159066e+00  8.347545e+00
      vertex   1.559446e+01 -1.798545e+01  1.878294e+01
      vertex   9.637906e+00 -8.347546e+00  3.188478e+00
    endloop
  endfacet
  facet normal  5.773503e-01 -5.773504e-01 -5.773502e-01
    outer loop
      vertex   9.637906e+00 -8.347546e+00  3.188478e+00
      vertex   1.559446e+01 -1.798545e+01  1.878294e+01
      vertex   5.159066e+00 -1.559446e+01  5.956554e+00
    endloop
  endfacet
  facet normal  5.773504e-01 -5.773501e-01 -5.773503e-01
    outer loop
      vertex   1.559446e+01 -1.798545e+01  1.878294e+01
      vertex   8.347542e+00 -2.075353e+01  1.430410e+01
      vertex   5.159066e+00 -1.559446e+01  5.956554e+00
    endloop
  endfacet
  facet normal -1.837148e-07 -3.568221e-01 -9.341723e-01
    outer loop
      vertex   4.478839e+00  0.000000e+00 -3.552714e-15
      vertex   9.637906e+00 -8.347546e+00  3.188478e+00
      vertex   5.159066e+00 -1.559446e+01  5.956554e+00
    endloop
  endfacet
  facet normal -0.000000e+00 -3.568221e-01 -9.341723e-01
    outer loop
      vertex   4.478839e+00  0.000000e+00 -3.552714e-15
      vertex   5.159066e+00 -1.559446e+01  5.956554e+00
      vertex  -4.478840e+00  0.000000e+00 -3.552714e-15
    endloop
  endfacet
  facet normal  1.183543e-07 -3.568220e-01 -9.341724e-01
    outer loop
      vertex  -4.478840e+00  0.000000e+00 -3.552714e-15
      vertex   5.159066e+00 -1.559446e+01  5.956554e+00
      vertex  -9.637905e+00 -8.347547e+00  3.188478e+00
    endloop
  endfacet
  facet normal  8.634277e-08 -3.568221e-01 -9.341723e-01
    outer loop
      vertex   5.159066e+00 -1.559446e+01  5.956554e+00
      vertex  -5.159066e+00 -1.559446e+01  5.956553e+00
      vertex  -9.637905e+00 -8.347547e+00  3.188478e+00
    endloop
  endfacet
  facet normal -5.773496e-01 -5.773506e-01 -5.773506e-01
    outer loop
      vertex  -1.559446e+01 -1.798545e+01  1.878294e+01
      vertex  -2.075353e+01 -9.637907e+00  1.559446e+01
      vertex  -1.798545e+01 -5.159066e+00  8.347545e+00
    endloop
  endfacet
  facet normal -5.773506e-01 -5.773502e-01 -5.773500e-01
    outer loop
      vertex  -1.559446e+01 -1.798545e+01  1.878294e+01
      vertex  -1.798545e+01 -5.159066e+00  8.347545e+00
      vertex  -8.347546e+00 -2.075353e+01  1.430410e+01
    endloop
  endfacet
  facet normal -5.773503e-01 -5.773501e-01 -5.773504e-01
    outer loop
      vertex  -8.347546e+00 -2.075353e+01  1.430410e+01
      vertex  -1.798545e+01 -5.159066e+00  8.347545e+00
      vertex  -5.159066e+00 -1.559446e+01  5.956553e+00
    endloop
  endfacet
  facet normal -5.773503e-01 -5.773503e-01 -5.773501e-01
    outer loop
      vertex  -1.798545e+01 -5.159066e+00  8.347545e+00
      vertex  -9.637905e+00 -8.347547e+00  3.188478e+00
      vertex  -5.159066e+00 -1.559446e+01  5.956553e+00
    endloop
  endfacet
  facet normal -9.341723e-01  5.255737e-07 -3.568223e-01
    outer loop
      vertex  -1.798545e+01 -5.159066e+00  8.347545e+00
      vertex  -2.075353e+01 -9.637907e+00  1.559446e+01
      vertex  -2.394201e+01 -4.478842e+00  2.394201e+01
    endloop
  endfacet
  facet normal -9.341723e-01  0.000000e+00 -3.568223e-01
    outer loop
      vertex  -1.798545e+01 -5.159066e+00  8.347545e+00
      vertex  -2.394201e+01 -4.478842e+00  2.394201e+01
      vertex  -1.798545e+01  5.159066e+00  8.347545e+00
    endloop
  endfacet
  facet normal -9.341722e-01 -2.813339e-07 -3.568225e-01
    outer loop
      vertex  -1.798545e+01  5.159066e+00  8.347545e+00
      vertex  -2.394201e+01 -4.478842e+00  2.394201e+01
      vertex  -2.075353e+01  9.637907e+00  1.559446e+01
    endloop
  endfacet
  facet normal -9.341724e-01  0.000000e+00 -3.568220e-01
    outer loop
      vertex  -2.394201e+01 -4.478842e+00  2.394201e+01
      vertex  -2.394201e+01  4.478843e+00  2.394201e+01
      vertex  -2.075353e+01  9.637907e+00  1.559446e+01
    endloop
  endfacet
  facet normal -5.773503e-01  5.773507e-01 -5.773498e-01
    outer loop
      vertex  -2.075353e+01  9.637907e+00  1.559446e+01
      vertex  -1.559446e+01  1.798545e+01  1.878294e+01
      vertex  -8.347542e+00  2.075353e+01  1.430410e+01
    endloop
  endfacet
  facet normal -5.773500e-01  5.773502e-01 -5.773506e-01
    outer loop
      vertex  -2.075353e+01  9.637907e+00  1.559446e+01
      vertex  -8.347542e+00  2.075353e+01  1.430410e+01
      vertex  -1.798545e+01  5.159066e+00  8.347545e+00
    endloop
  endfacet
  facet normal -5.773503e-01  5.773503e-01 -5.773502e-01
    outer loop
      vertex  -1.798545e+01  5.159066e+00  8.347545e+00
      vertex  -8.347542e+00  2.075353e+01  1.430410e+01
      vertex  -9.637907e+00  8.347545e+00  3.188478e+00
    endloop
  endfacet
  facet normal -5.773501e-01  5.773504e-01 -5.773503e-01
    outer loop
      vertex  -8.347542e+00  2.075353e+01  1.430410e+01
      vertex  -5.159066e+00  1.559446e+01  5.956554e+00
      vertex  -9.637907e+00  8.347545e+00  3.188478e+00
    endloop
  endfacet
  facet normal -3.568224e-01  9.341722e-01  0.000000e+00
    outer loop
      vertex   0.000000e+00  2.394201e+01  2.842084e+01
      vertex   0.000000e+00  2.394201e+01  1.946317e+01
      vertex  -8.347542e+00  2.075353e+01  1.430410e+01
    endloop
  endfacet
  facet normal -3.568223e-01  9.341723e-01 -7.061540e-08
    outer loop
      vertex   0.000000e+00  2.394201e+01  2.842084e+01
      vertex  -8.347542e+00  2.075353e+01  1.430410e+01
      vertex  -8.347546e+00  2.075353e+01  3.357991e+01
    endloop
  endfacet
  facet normal -3.568226e-01  9.341722e-01 -7.061546e-08
    outer loop
      vertex  -8.347546e+00  2.075353e+01  3.357991e+01
      vertex  -8.347542e+00  2.075353e+01  1.430410e+01
      vertex  -1.559446e+01  1.798545e+01  2.910107e+01
    endloop
  endfacet
  facet normal -3.568225e-01  9.341722e-01  0.000000e+00
    outer loop
      vertex  -8.347542e+00  2.075353e+01  1.430410e+01
      vertex  -1.559446e+01  1.798545e+01  1.878294e+01
      vertex  -1.559446e+01  1.798545e+01  2.910107e+01
    endloop
  endfacet
  facet normal  3.568223e-01  9.341723e-01 -0.000000e+00
    outer loop
      vertex   0.000000e+00  2.394201e+01  1.946317e+01
      vertex   0.000000e+00  2.394201e+01  2.842084e+01
      vertex   8.347545e+00  2.075353e+01  3.357991e+01
    endloop
  endfacet
  facet normal  3.568223e-01  9.341723e-01  0.000000e+00
    outer loop
      vertex   0.000000e+00  2.394201e+01  1.946317e+01
      vertex   8.347545e+00  2.075353e+01  3.357991e+01
      vertex   8.347545e+00  2.075353e+01  1.430410e+01
    endloop
  endfacet
  facet normal  3.568226e-01  9.341722e-01 -0.000000e+00
    outer loop
      vertex   8.347545e+00  2.075353e+01  1.430410e+01
      vertex   8.347545e+00  2.075353e+01  3.357991e+01
      vertex   1.559446e+01  1.798545e+01  1.878294e+01
    endloop
  endfacet
  facet normal  3.568226e-01  9.341722e-01  0.000000e+00
    outer loop
      vertex   8.347545e+00  2.075353e+01  3.357991e+01
      vertex   1.559446e+01  1.798545e+01  2.910107e+01
      vertex   1.559446e+01  1.798545e+01  1.878294e+01
    endloop
  endfacet
  facet normal -3.568223e-01 -9.341723e-01  0.000000e+00
    outer loop
      vertex  -8.347546e+00 -2.075353e+01  1.430410e+01
      vertex   0.000000e+00 -2.394201e+01  1.946316e+01
      vertex   0.000000e+00 -2.394201e+01  2.842085e+01
    endloop
  endfacet
  facet normal -3.568226e-01 -9.341722e-01  1.957458e-07
    outer loop
      vertex  -8.347546e+00 -2.075353e+01  1.430410e+01
      vertex   0.000000e+00 -2.394201e+01  2.842085e+01
      vertex  -1.559446e+01 -1.798545e+01  1.878294e+01
    endloop
  endfacet
  facet normal -3.568224e-01 -9.341722e-01  0.000000e+00
    outer loop
      vertex  -1.559446e+01 -1.798545e+01  1.878294e+01
      vertex   0.000000e+00 -2.394201e+01  2.842085e+01
      vertex  -1.559446e+01 -1.798545e+01  2.910107e+01
    endloop
  endfacet
  facet normal -3.568225e-01 -9.341722e-01 -3.656827e-07
    outer loop
      vertex   0.000000e+00 -2.394201e+01  2.842085e+01
      vertex  -8.347546e+00 -2.075353e+01  3.357991e+01
      vertex  -1.559446e+01 -1.798545e+01  2.910107e+01
    endloop
  endfacet
  facet normal  3.568224e-01 -9.341722e-01  8.180676e-08
    outer loop
      vertex   0.000000e+00 -2.394201e+01  1.946316e+01
      vertex   8.347542e+00 -2.075353e+01  1.430410e+01
      vertex   1.559446e+01 -1.798545e+01  1.878294e+01
    endloop
  endfacet
  facet normal  3.568224e-01 -9.341722e-01  0.000000e+00
    outer loop
      vertex   0.000000e+00 -2.394201e+01  1.946316e+01
      vertex   1.559446e+01 -1.798545e+01  1.878294e+01
      vertex   0.000000e+00 -2.394201e+01  2.842085e+01
    endloop
  endfacet
  facet normal  3.568224e-01 -9.341723e-01 -1.369566e-07
    outer loop
      vertex   0.000000e+00 -2.394201e+01  2.842085e+01
      vertex   1.559446e+01 -1.798545e+01  1.878294e+01
      vertex   8.347545e+00 -2.075353e+01  3.357991e+01
    endloop
  endfacet
  facet normal  3.568226e-01 -9.341722e-01  0.000000e+00
    outer loop
      vertex   1.559446e+01 -1.798545e+01  1.878294e+01
      vertex   1.559446e+01 -1.798545e+01  2.910107e+01
      vertex   8.347545e+00 -2.075353e+01  3.357991e+01
    endloop
  endfacet
  facet normal  0.000000e+00  3.568223e-01  9.341723e-01
    outer loop
      vertex  -9.637906e+00  8.347546e+00  4.469553e+01
      vertex  -4.478840e+00  0.000000e+00  4.788401e+01
      vertex   4.478840e+00  0.000000e+00  4.788401e+01
    endloop
  endfacet
  facet normal -3.366321e-07  3.568217e-01  9.341725e-01
    outer loop
      vertex  -9.637906e+00  8.347546e+00  4.469553e+01
      vertex   4.478840e+00  0.000000e+00  4.788401e+01
      vertex  -5.159066e+00  1.559446e+01  4.192746e+01
    endloop
  endfacet
  facet normal -0.000000e+00  3.568219e-01  9.341724e-01
    outer loop
      vertex  -5.159066e+00  1.559446e+01  4.192746e+01
      vertex   4.478840e+00  0.000000e+00  4.788401e+01
      vertex   5.159066e+00  1.559446e+01  4.192746e+01
    endloop
  endfacet
  facet normal  5.579103e-07  3.568219e-01  9.341725e-01
    outer loop
      vertex   4.478840e+00  0.000000e+00  4.788401e+01
      vertex   9.637905e+00  8.347547e+00  4.469553e+01
      vertex   5.159066e+00  1.559446e+01  4.192746e+01
    endloop
  endfacet
  facet normal  5.773501e-01  5.773500e-01  5.773506e-01
    outer loop
      vertex   5.159066e+00  1.559446e+01  4.192746e+01
      vertex   9.637905e+00  8.347547e+00  4.469553e+01
      vertex   1.798545e+01  5.159066e+00  3.953647e+01
    endloop
  endfacet
  facet normal  5.773503e-01  5.773503e-01  5.773503e-01
    outer loop
      vertex   5.159066e+00  1.559446e+01  4.192746e+01
      vertex   1.798545e+01  5.159066e+00  3.953647e+01
      vertex   8.347545e+00  2.075353e+01  3.357991e+01
    endloop
  endfacet
  facet normal  5.773505e-01  5.773503e-01  5.773500e-01
    outer loop
      vertex   8.347545e+00  2.075353e+01  3.357991e+01
      vertex   1.798545e+01  5.159066e+00  3.953647e+01
      vertex   1.559446e+01  1.798545e+01  2.910107e+01
    endloop
  endfacet
  facet normal  5.773498e-01  5.773506e-01  5.773505e-01
    outer loop
      vertex   1.798545e+01  5.159066e+00  3.953647e+01
      vertex   2.075353e+01  9.637907e+00  3.228955e+01
      vertex   1.559446e+01  1.798545e+01  2.910107e+01
    endloop
  endfacet
  facet normal  9.341722e-01  0.000000e+00  3.568225e-01
    outer loop
      vertex   2.075353e+01  9.637907e+00  3.228955e+01
      vertex   1.798545e+01  5.159066e+00  3.953647e+01
      vertex   1.798545e+01 -5.159066e+00  3.953647e+01
    endloop
  endfacet
  facet normal  9.341722e-01 -7.364092e-09  3.568225e-01
    outer loop
      vertex   2.075353e+01  9.637907e+00  3.228955e+01
      vertex   1.798545e+01 -5.159066e+00  3.953647e+01
      vertex   2.394201e+01  4.478841e+00  2.394201e+01
    endloop
  endfacet
  facet normal  9.341722e-01  0.000000e+00  3.568225e-01
    outer loop
      vertex   2.394201e+01  4.478841e+00  2.394201e+01
      vertex   1.798545e+01 -5.159066e+00  3.953647e+01
      vertex   2.394201e+01 -4.478841e+00  2.394201e+01
    endloop
  endfacet
  facet normal  9.341722e-01  1.584660e-08  3.568225e-01
    outer loop
      vertex   1.798545e+01 -5.159066e+00  3.953647e+01
      vertex   2.075353e+01 -9.637907e+00  3.228955e+01
      vertex   2.394201e+01 -4.478841e+00  2.394201e+01
    endloop
  endfacet
  facet normal  5.773500e-01 -5.773503e-01  5.773504e-01
    outer loop
      vertex   2.075353e+01 -9.637907e+00  3.228955e+01
      vertex   1.798545e+01 -5.159066e+00  3.953647e+01
      vertex   9.637907e+00 -8.347543e+00  4.469553e+01
    endloop
  endfacet
  facet normal  5.773499e-01 -5.773506e-01  5.773504e-01
    outer loop
      vertex   2.075353e+01 -9.637907e+00  3.228955e+01
      vertex   9.637907e+00 -8.347543e+00  4.469553e+01
      vertex   1.559446e+01 -1.798545e+01  2.910107e+01
    endloop
  endfacet
  facet normal  5.773506e-01 -5.773500e-01  5.773503e-01
    outer loop
      vertex   1.559446e+01 -1.798545e+01  2.910107e+01
      vertex   9.637907e+00 -8.347543e+00  4.469553e+01
      vertex   8.347545e+00 -2.075353e+01  3.357991e+01
    endloop
  endfacet
  facet normal  5.773504e-01 -5.773501e-01  5.773504e-01
    outer loop
      vertex   9.637907e+00 -8.347543e+00  4.469553e+01
      vertex   5.159064e+00 -1.559446e+01  4.192746e+01
      vertex   8.347545e+00 -2.075353e+01  3.357991e+01
    endloop
  endfacet
  facet normal  0.000000e+00 -3.568216e-01  9.341726e-01
    outer loop
      vertex  -9.637906e+00 -8.347546e+00  4.469553e+01
      vertex  -5.159066e+00 -1.559446e+01  4.192746e+01
      vertex   5.159064e+00 -1.559446e+01  4.192746e+01
    endloop
  endfacet
  facet normal -2.922469e-07 -3.568221e-01  9.341723e-01
    outer loop
      vertex  -9.637906e+00 -8.347546e+00  4.469553e+01
      vertex   5.159064e+00 -1.559446e+01  4.192746e+01
      vertex  -4.478840e+00  0.000000e+00  4.788401e+01
    endloop
  endfacet
  facet normal  0.000000e+00 -3.568219e-01  9.341724e-01
    outer loop
      vertex  -4.478840e+00  0.000000e+00  4.788401e+01
      vertex   5.159064e+00 -1.559446e+01  4.192746e+01
      vertex   4.478840e+00  0.000000e+00  4.788401e+01
    endloop
  endfacet
  facet normal  8.417851e-07 -3.568219e-01  9.341725e-01
    outer loop
      vertex   5.159064e+00 -1.559446e+01  4.192746e+01
      vertex   9.637907e+00 -8.347543e+00  4.469553e+01
      vertex   4.478840e+00  0.000000e+00  4.788401e+01
    endloop
  endfacet
  facet normal -5.773501e-01 -5.773500e-01  5.773506e-01
    outer loop
      vertex  -5.159066e+00 -1.559446e+01  4.192746e+01
      vertex  -9.637906e+00 -8.347546e+00  4.469553e+01
      vertex  -1.798545e+01 -5.159066e+00  3.953647e+01
    endloop
  endfacet
  facet normal -5.773503e-01 -5.773503e-01  5.773503e-01
    outer loop
      vertex  -5.159066e+00 -1.559446e+01  4.192746e+01
      vertex  -1.798545e+01 -5.159066e+00  3.953647e+01
      vertex  -8.347546e+00 -2.075353e+01  3.357991e+01
    endloop
  endfacet
  facet normal -5.773506e-01 -5.773503e-01  5.773500e-01
    outer loop
      vertex  -8.347546e+00 -2.075353e+01  3.357991e+01
      vertex  -1.798545e+01 -5.159066e+00  3.953647e+01
      vertex  -1.559446e+01 -1.798545e+01  2.910107e+01
    endloop
  endfacet
  facet normal -5.773498e-01 -5.773506e-01  5.773505e-01
    outer loop
      vertex  -1.798545e+01 -5.159066e+00  3.953647e+01
      vertex  -2.075353e+01 -9.637907e+00  3.228955e+01
      vertex  -1.559446e+01 -1.798545e+01  2.910107e+01
    endloop
  endfacet
  facet normal -9.341722e-01 -1.584661e-08  3.568225e-01
    outer loop
      vertex  -1.798545e+01  5.159066e+00  3.953647e+01
      vertex  -2.075353e+01  9.637907e+00  3.228955e+01
      vertex  -2.394201e+01  4.478843e+00  2.394201e+01
    endloop
  endfacet
  facet normal -9.341722e-01  0.000000e+00  3.568225e-01
    outer loop
      vertex  -1.798545e+01  5.159066e+00  3.953647e+01
      vertex  -2.394201e+01  4.478843e+00  2.394201e+01
      vertex  -1.798545e+01 -5.159066e+00  3.953647e+01
    endloop
  endfacet
  facet normal -9.341722e-01  8.482512e-09  3.568225e-01
    outer loop
      vertex  -1.798545e+01 -5.159066e+00  3.953647e+01
      vertex  -2.394201e+01  4.478843e+00  2.394201e+01
      vertex  -2.075353e+01 -9.637907e+00  3.228955e+01
    endloop
  endfacet
  facet normal -9.341722e-01  0.000000e+00  3.568225e-01
    outer loop
      vertex  -2.394201e+01  4.478843e+00  2.394201e+01
      vertex  -2.394201e+01 -4.478842e+00  2.394201e+01
      vertex  -2.075353e+01 -9.637907e+00  3.228955e+01
    endloop
  endfacet
  facet normal -5.773498e-01  5.773506e-01  5.773505e-01
    outer loop
      vertex  -1.559446e+01  1.798545e+01  2.910107e+01
      vertex  -2.075353e+01  9.637907e+00  3.228955e+01
      vertex  -1.798545e+01  5.159066e+00  3.953647e+01
    endloop
  endfacet
  facet normal -5.773506e-01  5.773503e-01  5.773500e-01
    outer loop
      vertex  -1.559446e+01  1.798545e+01  2.910107e+01
      vertex  -1.798545e+01  5.159066e+00  3.953647e+01
      vertex  -8.347546e+00  2.075353e+01  3.357991e+01
    endloop
  endfacet
  facet normal -5.773503e-01  5.773503e-01  5.773503e-01
    outer loop
      vertex  -8.347546e+00  2.075353e+01  3.357991e+01
      vertex  -1.798545e+01  5.159066e+00  3.953647e+01
      vertex  -5.159066e+00  1.559446e+01  4.192746e+01
    endloop
  endfacet
  facet normal -5.773501e-01  5.773500e-01  5.773506e-01
    outer loop
      vertex  -1.798545e+01  5.159066e+00  3.953647e+01
      vertex  -9.637906e+00  8.347546e+00  4.469553e+01
      vertex  -5.159066e+00  1.559446e+01  4.192746e+01
    endloop
  endfacet
  facet normal  5.773497e-01  5.773506e-01 -5.773506e-01
    outer loop
      vertex   1.559446e+01  1.798545e+01  1.878294e+01
      vertex   2.075353e+01  9.637907e+00  1.559446e+01
      vertex   1.798545e+01  5.159066e+00  8.347544e+00
    endloop
  endfacet
  facet normal  5.773505e-01  5.773503e-01 -5.773500e-01
    outer loop
      vertex   1.559446e+01  1.798545e+01  1.878294e+01
      vertex   1.798545e+01  5.159066e+00  8.347544e+00
      vertex   8.347545e+00  2.075353e+01  1.430410e+01
    endloop
  endfacet
  facet normal  5.773502e-01  5.773502e-01 -5.773504e-01
    outer loop
      vertex   8.347545e+00  2.075353e+01  1.430410e+01
      vertex   1.798545e+01  5.159066e+00  8.347544e+00
      vertex   5.159066e+00  1.559446e+01  5.956554e+00
    endloop
  endfacet
  facet normal  5.773503e-01  5.773504e-01 -5.773501e-01
    outer loop
      vertex   1.798545e+01  5.159066e+00  8.347544e+00
      vertex   9.637906e+00  8.347546e+00  3.188478e+00
      vertex   5.159066e+00  1.559446e+01  5.956554e+00
    endloop
  endfacet
  facet normal  5.257313e-01  0.000000e+00 -8.506507e-01
    outer loop
      vertex   9.637906e+00  8.347546e+00  3.188476e+00
      vertex   1.798545e+01  5.159068e+00  8.347545e+00
      vertex   1.798545e+01 -5.159068e+00  8.347545e+00
    endloop
  endfacet
  facet normal  5.257310e-01 -2.119515e-07 -8.506508e-01
    outer loop
      vertex   9.637906e+00  8.347546e+00  3.188476e+00
      vertex   1.798545e+01 -5.159068e+00  8.347545e+00
      vertex   4.478839e+00  0.000000e+00 -3.552714e-15
    endloop
  endfacet
  facet normal  5.257311e-01  9.891862e-09 -8.506508e-01
    outer loop
      vertex   1.798545e+01 -5.159068e+00  8.347545e+00
      vertex   9.637905e+00 -8.347547e+00  3.188478e+00
      vertex   4.478839e+00  0.000000e+00 -3.552714e-15
    endloop
  endfacet
  facet normal  1.627566e-07  8.506507e-01 -5.257313e-01
    outer loop
      vertex  -5.159066e+00  1.559446e+01  5.956554e+00
      vertex  -8.347547e+00  2.075353e+01  1.430410e+01
      vertex   0.000000e+00  2.394201e+01  1.946317e+01
    endloop
  endfacet
  facet normal  0.000000e+00  8.506507e-01 -5.257313e-01
    outer loop
      vertex  -5.159066e+00  1.559446e+01  5.956554e+00
      vertex   0.000000e+00  2.394201e+01  1.946317e+01
      vertex   5.159066e+00  1.559446e+01  5.956554e+00
    endloop
  endfacet
  facet normal -1.627566e-07  8.506507e-01 -5.257313e-01
    outer loop
      vertex   0.000000e+00  2.394201e+01  1.946317e+01
      vertex   8.347547e+00  2.075353e+01  1.430410e+01
      vertex   5.159066e+00  1.559446e+01  5.956554e+00
    endloop
  endfacet
  facet normal -5.257311e-01 -1.272149e-07 -8.506508e-01
    outer loop
      vertex  -9.637907e+00  8.347545e+00  3.188478e+00
      vertex  -4.478840e+00  0.000000e+00 -3.552714e-15
      vertex  -9.637906e+00 -8.347546e+00  3.188480e+00
    endloop
  endfacet
  facet normal -5.257311e-01 -1.272149e-07 -8.506508e-01
    outer loop
      vertex  -9.637907e+00  8.347545e+00  3.188478e+00
      vertex  -9.637906e+00 -8.347546e+00  3.188480e+00
      vertex  -1.798545e+01  5.159067e+00  8.347544e+00
    endloop
  endfacet
  facet normal -5.257310e-01 -7.862312e-08 -8.506508e-01
    outer loop
      vertex  -9.637906e+00 -8.347546e+00  3.188480e+00
      vertex  -1.798545e+01 -5.159067e+00  8.347545e+00
      vertex  -1.798545e+01  5.159067e+00  8.347544e+00
    endloop
  endfacet
  facet normal  0.000000e+00 -8.506506e-01 -5.257314e-01
    outer loop
      vertex  -8.347545e+00 -2.075353e+01  1.430410e+01
      vertex  -5.159066e+00 -1.559446e+01  5.956554e+00
      vertex   5.159066e+00 -1.559446e+01  5.956554e+00
    endloop
  endfacet
  facet normal  1.005891e-07 -8.506507e-01 -5.257313e-01
    outer loop
      vertex  -8.347545e+00 -2.075353e+01  1.430410e+01
      vertex   5.159066e+00 -1.559446e+01  5.956554e+00
      vertex   0.000000e+00 -2.394201e+01  1.946317e+01
    endloop
  endfacet
  facet normal -1.627566e-07 -8.506507e-01 -5.257313e-01
    outer loop
      vertex   5.159066e+00 -1.559446e+01  5.956554e+00
      vertex   8.347545e+00 -2.075353e+01  1.430410e+01
      vertex   0.000000e+00 -2.394201e+01  1.946317e+01
    endloop
  endfacet
  facet normal  5.257307e-01 -0.000000e+00  8.506510e-01
    outer loop
      vertex   1.798545e+01 -5.159067e+00  3.953647e+01
      vertex   1.798545e+01  5.159067e+00  3.953647e+01
      vertex   9.637906e+00  8.347546e+00  4.469553e+01
    endloop
  endfacet
  facet normal  5.257308e-01  3.003134e-08  8.506510e-01
    outer loop
      vertex   1.798545e+01 -5.159067e+00  3.953647e+01
      vertex   9.637906e+00  8.347546e+00  4.469553e+01
      vertex   9.637907e+00 -8.347545e+00  4.469553e+01
    endloop
  endfacet
  facet normal  5.257313e-01  3.003137e-08  8.506507e-01
    outer loop
      vertex   9.637906e+00  8.347546e+00  4.469553e+01
      vertex   4.478840e+00  0.000000e+00  4.788401e+01
      vertex   9.637907e+00 -8.347545e+00  4.469553e+01
    endloop
  endfacet
  facet normal  1.548303e-07 -8.506508e-01  5.257312e-01
    outer loop
      vertex  -5.159066e+00 -1.559446e+01  4.192746e+01
      vertex  -8.347547e+00 -2.075353e+01  3.357991e+01
      vertex   0.000000e+00 -2.394201e+01  2.842084e+01
    endloop
  endfacet
  facet normal  0.000000e+00 -8.506508e-01  5.257311e-01
    outer loop
      vertex  -5.159066e+00 -1.559446e+01  4.192746e+01
      vertex   0.000000e+00 -2.394201e+01  2.842084e+01
      vertex   5.159066e+00 -1.559446e+01  4.192746e+01
    endloop
  endfacet
  facet normal -1.548303e-07 -8.506508e-01  5.257312e-01
    outer loop
      vertex   0.000000e+00 -2.394201e+01  2.842084e+01
      vertex   8.347547e+00 -2.075353e+01  3.357991e+01
      vertex   5.159066e+00 -1.559446e+01  4.192746e+01
    endloop
  endfacet
  facet normal -5.257308e-01  4.539206e-07  8.506510e-01
    outer loop
      vertex  -4.478839e+00  0.000000e+00  4.788401e+01
      vertex  -9.637905e+00  8.347547e+00  4.469553e+01
      vertex  -1.798545e+01  5.159068e+00  3.953647e+01
    endloop
  endfacet
  facet normal -5.257308e-01  7.115309e-07  8.506510e-01
    outer loop
      vertex  -4.478839e+00  0.000000e+00  4.788401e+01
      vertex  -1.798545e+01  5.159068e+00  3.953647e+01
      vertex  -9.637906e+00 -8.347546e+00  4.469554e+01
    endloop
  endfacet
  facet normal -5.257316e-01  0.000000e+00  8.506505e-01
    outer loop
      vertex  -1.798545e+01  5.159068e+00  3.953647e+01
      vertex  -1.798545e+01 -5.159068e+00  3.953647e+01
      vertex  -9.637906e+00 -8.347546e+00  4.469554e+01
    endloop
  endfacet
  facet normal  4.282711e-07  8.506507e-01  5.257314e-01
    outer loop
      vertex   5.159066e+00  1.559446e+01  4.192746e+01
      vertex   8.347545e+00  2.075353e+01  3.357991e+01
      vertex   0.000000e+00  2.394201e+01  2.842085e+01
    endloop
  endfacet
  facet normal  0.000000e+00  8.506506e-01  5.257314e-01
    outer loop
      vertex   5.159066e+00  1.559446e+01  4.192746e+01
      vertex   0.000000e+00  2.394201e+01  2.842085e+01
      vertex  -5.159066e+00  1.559446e+01  4.192746e+01
    endloop
  endfacet
  facet normal -4.282711e-07  8.506507e-01  5.257314e-01
    outer loop
      vertex   0.000000e+00  2.394201e+01  2.842085e+01
      vertex  -8.347545e+00  2.075353e+01  3.357991e+01
      vertex  -5.159066e+00  1.559446e+01  4.192746e+01
    endloop
  endfacet
  facet normal  8.506506e-01 -5.257314e-01 -1.343653e-08
    outer loop
      vertex   2.394201e+01 -4.478841e+00  2.394201e+01
      vertex   2.075353e+01 -9.637906e+00  3.228955e+01
      vertex   1.559446e+01 -1.798545e+01  2.910107e+01
    endloop
  endfacet
  facet normal  8.506506e-01 -5.257314e-01  5.689601e-08
    outer loop
      vertex   2.394201e+01 -4.478841e+00  2.394201e+01
      vertex   1.559446e+01 -1.798545e+01  2.910107e+01
      vertex   2.075353e+01 -9.637907e+00  1.559446e+01
    endloop
  endfacet
  facet normal  8.506505e-01 -5.257315e-01  0.000000e+00
    outer loop
      vertex   1.559446e+01 -1.798545e+01  2.910107e+01
      vertex   1.559446e+01 -1.798545e+01  1.878294e+01
      vertex   2.075353e+01 -9.637907e+00  1.559446e+01
    endloop
  endfacet
  facet normal  8.506505e-01  5.257315e-01  0.000000e+00
    outer loop
      vertex   2.075353e+01  9.637907e+00  1.559446e+01
      vertex   1.559446e+01  1.798545e+01  1.878294e+01
      vertex   1.559446e+01  1.798545e+01  2.910107e+01
    endloop
  endfacet
  facet normal  8.506506e-01  5.257314e-01  5.689601e-08
    outer loop
      vertex   2.075353e+01  9.637907e+00  1.559446e+01
      vertex   1.559446e+01  1.798545e+01  2.910107e+01
      vertex   2.394201e+01  4.478841e+00  2.394201e+01
    endloop
  endfacet
  facet normal  8.506506e-01  5.257314e-01 -1.343653e-08
    outer loop
      vertex   1.559446e+01  1.798545e+01  2.910107e+01
      vertex   2.075353e+01  9.637906e+00  3.228955e+01
      vertex   2.394201e+01  4.478841e+00  2.394201e+01
    endloop
  endfacet
  facet normal -8.506505e-01  5.257315e-01  0.000000e+00
    outer loop
      vertex  -1.559446e+01  1.798545e+01  2.910107e+01
      vertex  -1.559446e+01  1.798545e+01  1.878294e+01
      vertex  -2.075353e+01  9.637907e+00  1.559446e+01
    endloop
  endfacet
  facet normal -8.506505e-01  5.257315e-01 -3.003138e-08
    outer loop
      vertex  -1.559446e+01  1.798545e+01  2.910107e+01
      vertex  -2.075353e+01  9.637907e+00  1.559446e+01
      vertex  -2.075353e+01  9.637908e+00  3.228955e+01
    endloop
  endfacet
  facet normal -8.506515e-01  5.257300e-01 -3.003129e-08
    outer loop
      vertex  -2.075353e+01  9.637907e+00  1.559446e+01
      vertex  -2.394200e+01  4.478842e+00  2.394201e+01
      vertex  -2.075353e+01  9.637908e+00  3.228955e+01
    endloop
  endfacet
  facet normal -8.506515e-01 -5.257300e-01 -3.003129e-08
    outer loop
      vertex  -2.075353e+01 -9.637908e+00  3.228955e+01
      vertex  -2.394200e+01 -4.478842e+00  2.394201e+01
      vertex  -2.075353e+01 -9.637907e+00  1.559446e+01
    endloop
  endfacet
  facet normal -8.506505e-01 -5.257315e-01 -3.003138e-08
    outer loop
      vertex  -2.075353e+01 -9.637908e+00  3.228955e+01
      vertex  -2.075353e+01 -9.637907e+00  1.559446e+01
      vertex  -1.559446e+01 -1.798545e+01  2.910107e+01
    endloop
  endfacet
  facet normal -8.506505e-01 -5.257315e-01  0.000000e+00
    outer loop
      vertex  -2.075353e+01 -9.637907e+00  1.559446e+01
      vertex  -1.559446e+01 -1.798545e+01  1.878294e+01
      vertex  -1.559446e+01 -1.798545e+01  2.910107e+01
    endloop
  endfacet
endsolid vcg
