solid Default
  facet normal 1.000000e+00 -1.387779e-16 8.497693e-33
    outer loop
      vertex -8.347500e-01 -8.069250e+00 9.881981e-16
      vertex -8.347500e-01 5.286750e+00 1.703789e-16
      vertex -8.347500e-01 -8.069250e+00 4.897200e+01
    endloop
  endfacet
  facet normal 1.000000e+00 -1.387779e-16 8.497693e-33
    outer loop
      vertex -8.347500e-01 -8.069250e+00 4.897200e+01
      vertex -8.347500e-01 5.286750e+00 1.703789e-16
      vertex -8.347500e-01 5.286750e+00 4.897200e+01
    endloop
  endfacet
  facet normal 0.000000e+00 -1.000000e+00 6.123234e-17
    outer loop
      vertex 4.730250e+00 5.286750e+00 4.897200e+01
      vertex -8.347500e-01 5.286750e+00 4.897200e+01
      vertex 4.730250e+00 5.286750e+00 1.703789e-16
    endloop
  endfacet
  facet normal 0.000000e+00 -1.000000e+00 6.123234e-17
    outer loop
      vertex 4.730250e+00 5.286750e+00 1.703789e-16
      vertex -8.347500e-01 5.286750e+00 4.897200e+01
      vertex -8.347500e-01 5.286750e+00 1.703789e-16
    endloop
  endfacet
  facet normal -1.000000e+00 0.000000e+00 0.000000e+00
    outer loop
      vertex 4.730250e+00 -2.782500e-01 4.897200e+01
      vertex 4.730250e+00 5.286750e+00 4.897200e+01
      vertex 4.730250e+00 -2.782500e-01 5.111369e-16
    endloop
  endfacet
  facet normal -1.000000e+00 0.000000e+00 0.000000e+00
    outer loop
      vertex 4.730250e+00 -2.782500e-01 5.111369e-16
      vertex 4.730250e+00 5.286750e+00 4.897200e+01
      vertex 4.730250e+00 5.286750e+00 1.703789e-16
    endloop
  endfacet
  facet normal 0.000000e+00 -1.000000e+00 6.123234e-17
    outer loop
      vertex 7.512750e+00 -2.782500e-01 4.897200e+01
      vertex 4.730250e+00 -2.782500e-01 4.897200e+01
      vertex 7.512750e+00 -2.782500e-01 5.111369e-16
    endloop
  endfacet
  facet normal 0.000000e+00 -1.000000e+00 6.123234e-17
    outer loop
      vertex 7.512750e+00 -2.782500e-01 5.111369e-16
      vertex 4.730250e+00 -2.782500e-01 4.897200e+01
      vertex 4.730250e+00 -2.782500e-01 5.111369e-16
    endloop
  endfacet
  facet normal 1.000000e+00 2.312965e-16 -1.416282e-32
    outer loop
      vertex 7.512750e+00 8.069250e+00 4.897200e+01
      vertex 7.512750e+00 -2.782500e-01 4.897200e+01
      vertex 7.512750e+00 8.069250e+00 0.000000e+00
    endloop
  endfacet
  facet normal 1.000000e+00 2.312965e-16 -1.416282e-32
    outer loop
      vertex 7.512750e+00 8.069250e+00 0.000000e+00
      vertex 7.512750e+00 -2.782500e-01 4.897200e+01
      vertex 7.512750e+00 -2.782500e-01 5.111369e-16
    endloop
  endfacet
  facet normal 0.000000e+00 1.000000e+00 -6.123234e-17
    outer loop
      vertex -3.617250e+00 8.069250e+00 4.618950e+01
      vertex 7.512750e+00 8.069250e+00 4.897200e+01
      vertex -3.617250e+00 8.069250e+00 2.782500e+00
    endloop
  endfacet
  facet normal 0.000000e+00 1.000000e+00 -6.123234e-17
    outer loop
      vertex -3.617250e+00 8.069250e+00 2.782500e+00
      vertex 7.512750e+00 8.069250e+00 4.897200e+01
      vertex 7.512750e+00 8.069250e+00 0.000000e+00
    endloop
  endfacet
  facet normal 0.000000e+00 1.000000e+00 -6.123234e-17
    outer loop
      vertex -3.617250e+00 8.069250e+00 2.782500e+00
      vertex 7.512750e+00 8.069250e+00 0.000000e+00
      vertex -4.730250e+00 8.069250e+00 2.782500e+00
    endloop
  endfacet
  facet normal 0.000000e+00 1.000000e+00 -6.123234e-17
    outer loop
      vertex -4.730250e+00 8.069250e+00 2.782500e+00
      vertex 7.512750e+00 8.069250e+00 0.000000e+00
      vertex -7.512750e+00 8.069250e+00 0.000000e+00
    endloop
  endfacet
  facet normal 0.000000e+00 1.000000e+00 -6.123234e-17
    outer loop
      vertex -4.730250e+00 8.069250e+00 2.782500e+00
      vertex -7.512750e+00 8.069250e+00 0.000000e+00
      vertex -4.730250e+00 8.069250e+00 4.618950e+01
    endloop
  endfacet
  facet normal 0.000000e+00 1.000000e+00 -6.123234e-17
    outer loop
      vertex -4.730250e+00 8.069250e+00 4.618950e+01
      vertex -7.512750e+00 8.069250e+00 0.000000e+00
      vertex -7.512750e+00 8.069250e+00 4.897200e+01
    endloop
  endfacet
  facet normal 0.000000e+00 1.000000e+00 -6.123234e-17
    outer loop
      vertex -4.730250e+00 8.069250e+00 4.618950e+01
      vertex -7.512750e+00 8.069250e+00 4.897200e+01
      vertex -3.617250e+00 8.069250e+00 4.618950e+01
    endloop
  endfacet
  facet normal 0.000000e+00 1.000000e+00 -6.123234e-17
    outer loop
      vertex -3.617250e+00 8.069250e+00 4.618950e+01
      vertex -7.512750e+00 8.069250e+00 4.897200e+01
      vertex 7.512750e+00 8.069250e+00 4.897200e+01
    endloop
  endfacet
  facet normal 0.000000e+00 6.123234e-17 1.000000e+00
    outer loop
      vertex 4.730250e+00 -2.782500e-01 4.897200e+01
      vertex 7.512750e+00 -2.782500e-01 4.897200e+01
      vertex 4.730250e+00 5.286750e+00 4.897200e+01
    endloop
  endfacet
  facet normal 0.000000e+00 6.123234e-17 1.000000e+00
    outer loop
      vertex 4.730250e+00 5.286750e+00 4.897200e+01
      vertex 7.512750e+00 -2.782500e-01 4.897200e+01
      vertex 7.512750e+00 8.069250e+00 4.897200e+01
    endloop
  endfacet
  facet normal 0.000000e+00 6.123234e-17 1.000000e+00
    outer loop
      vertex 4.730250e+00 5.286750e+00 4.897200e+01
      vertex 7.512750e+00 8.069250e+00 4.897200e+01
      vertex -8.347500e-01 5.286750e+00 4.897200e+01
    endloop
  endfacet
  facet normal 0.000000e+00 6.123234e-17 1.000000e+00
    outer loop
      vertex -8.347500e-01 5.286750e+00 4.897200e+01
      vertex 7.512750e+00 8.069250e+00 4.897200e+01
      vertex -7.512750e+00 8.069250e+00 4.897200e+01
    endloop
  endfacet
  facet normal 0.000000e+00 6.123234e-17 1.000000e+00
    outer loop
      vertex -8.347500e-01 5.286750e+00 4.897200e+01
      vertex -7.512750e+00 8.069250e+00 4.897200e+01
      vertex -8.347500e-01 -8.069250e+00 4.897200e+01
    endloop
  endfacet
  facet normal 0.000000e+00 6.123234e-17 1.000000e+00
    outer loop
      vertex -8.347500e-01 -8.069250e+00 4.897200e+01
      vertex -7.512750e+00 8.069250e+00 4.897200e+01
      vertex -7.512750e+00 -8.069250e+00 4.897200e+01
    endloop
  endfacet
  facet normal 0.000000e+00 -6.123234e-17 -1.000000e+00
    outer loop
      vertex -8.347500e-01 -8.069250e+00 9.881981e-16
      vertex -7.512750e+00 -8.069250e+00 9.881981e-16
      vertex -8.347500e-01 5.286750e+00 1.703789e-16
    endloop
  endfacet
  facet normal 0.000000e+00 -6.123234e-17 -1.000000e+00
    outer loop
      vertex -8.347500e-01 5.286750e+00 1.703789e-16
      vertex -7.512750e+00 -8.069250e+00 9.881981e-16
      vertex -7.512750e+00 8.069250e+00 0.000000e+00
    endloop
  endfacet
  facet normal 0.000000e+00 -6.123234e-17 -1.000000e+00
    outer loop
      vertex -8.347500e-01 5.286750e+00 1.703789e-16
      vertex -7.512750e+00 8.069250e+00 0.000000e+00
      vertex 4.730250e+00 5.286750e+00 1.703789e-16
    endloop
  endfacet
  facet normal 0.000000e+00 -6.123234e-17 -1.000000e+00
    outer loop
      vertex 4.730250e+00 5.286750e+00 1.703789e-16
      vertex -7.512750e+00 8.069250e+00 0.000000e+00
      vertex 7.512750e+00 8.069250e+00 0.000000e+00
    endloop
  endfacet
  facet normal 0.000000e+00 -6.123234e-17 -1.000000e+00
    outer loop
      vertex 4.730250e+00 5.286750e+00 1.703789e-16
      vertex 7.512750e+00 8.069250e+00 0.000000e+00
      vertex 4.730250e+00 -2.782500e-01 5.111369e-16
    endloop
  endfacet
  facet normal 0.000000e+00 -6.123234e-17 -1.000000e+00
    outer loop
      vertex 4.730250e+00 -2.782500e-01 5.111369e-16
      vertex 7.512750e+00 8.069250e+00 0.000000e+00
      vertex 7.512750e+00 -2.782500e-01 5.111369e-16
    endloop
  endfacet
  facet normal -1.000000e+00 0.000000e+00 0.000000e+00
    outer loop
      vertex -7.512750e+00 -8.069250e+00 4.897200e+01
      vertex -7.512750e+00 8.069250e+00 4.897200e+01
      vertex -7.512750e+00 -8.069250e+00 9.881981e-16
    endloop
  endfacet
  facet normal -1.000000e+00 0.000000e+00 0.000000e+00
    outer loop
      vertex -7.512750e+00 -8.069250e+00 9.881981e-16
      vertex -7.512750e+00 8.069250e+00 4.897200e+01
      vertex -7.512750e+00 8.069250e+00 0.000000e+00
    endloop
  endfacet
  facet normal 0.000000e+00 -1.000000e+00 6.123234e-17
    outer loop
      vertex -7.512750e+00 -8.069250e+00 4.897200e+01
      vertex -7.512750e+00 -8.069250e+00 9.881981e-16
      vertex -8.347500e-01 -8.069250e+00 4.897200e+01
    endloop
  endfacet
  facet normal 0.000000e+00 -1.000000e+00 6.123234e-17
    outer loop
      vertex -8.347500e-01 -8.069250e+00 4.897200e+01
      vertex -7.512750e+00 -8.069250e+00 9.881981e-16
      vertex -8.347500e-01 -8.069250e+00 9.881981e-16
    endloop
  endfacet
  facet normal 1.000000e+00 -7.489954e-33 -1.223202e-16
    outer loop
      vertex -4.730250e+00 -5.286750e+00 4.618950e+01
      vertex -4.730250e+00 -5.286750e+00 2.782500e+00
      vertex -4.730250e+00 8.069250e+00 4.618950e+01
    endloop
  endfacet
  facet normal 1.000000e+00 -7.489954e-33 -1.223202e-16
    outer loop
      vertex -4.730250e+00 8.069250e+00 4.618950e+01
      vertex -4.730250e+00 -5.286750e+00 2.782500e+00
      vertex -4.730250e+00 8.069250e+00 2.782500e+00
    endloop
  endfacet
  facet normal 0.000000e+00 6.123234e-17 1.000000e+00
    outer loop
      vertex -4.730250e+00 -5.286750e+00 2.782500e+00
      vertex -3.617250e+00 -5.286750e+00 2.782500e+00
      vertex -4.730250e+00 8.069250e+00 2.782500e+00
    endloop
  endfacet
  facet normal 0.000000e+00 6.123234e-17 1.000000e+00
    outer loop
      vertex -4.730250e+00 8.069250e+00 2.782500e+00
      vertex -3.617250e+00 -5.286750e+00 2.782500e+00
      vertex -3.617250e+00 8.069250e+00 2.782500e+00
    endloop
  endfacet
  facet normal -1.000000e+00 0.000000e+00 0.000000e+00
    outer loop
      vertex -3.617250e+00 -5.286750e+00 2.782500e+00
      vertex -3.617250e+00 -5.286750e+00 4.618950e+01
      vertex -3.617250e+00 8.069250e+00 2.782500e+00
    endloop
  endfacet
  facet normal -1.000000e+00 0.000000e+00 0.000000e+00
    outer loop
      vertex -3.617250e+00 8.069250e+00 2.782500e+00
      vertex -3.617250e+00 -5.286750e+00 4.618950e+01
      vertex -3.617250e+00 8.069250e+00 4.618950e+01
    endloop
  endfacet
  facet normal 0.000000e+00 -6.123234e-17 -1.000000e+00
    outer loop
      vertex -3.617250e+00 -5.286750e+00 4.618950e+01
      vertex -4.730250e+00 -5.286750e+00 4.618950e+01
      vertex -3.617250e+00 8.069250e+00 4.618950e+01
    endloop
  endfacet
  facet normal 0.000000e+00 -6.123234e-17 -1.000000e+00
    outer loop
      vertex -3.617250e+00 8.069250e+00 4.618950e+01
      vertex -4.730250e+00 -5.286750e+00 4.618950e+01
      vertex -4.730250e+00 8.069250e+00 4.618950e+01
    endloop
  endfacet
  facet normal 0.000000e+00 1.000000e+00 -6.123234e-17
    outer loop
      vertex -3.617250e+00 -5.286750e+00 4.618950e+01
      vertex -3.617250e+00 -5.286750e+00 2.782500e+00
      vertex -4.730250e+00 -5.286750e+00 4.618950e+01
    endloop
  endfacet
  facet normal 0.000000e+00 1.000000e+00 -6.123234e-17
    outer loop
      vertex -4.730250e+00 -5.286750e+00 4.618950e+01
      vertex -3.617250e+00 -5.286750e+00 2.782500e+00
      vertex -4.730250e+00 -5.286750e+00 2.782500e+00
    endloop
  endfacet
endsolid Default
