solid Default
  facet normal -1.000000e+00 4.857226e-16 -2.974193e-32
    outer loop
      vertex -1.250000e+01 -1.250000e+01 1.000000e+01
      vertex -1.250000e+01 1.250000e+01 1.000000e+01
      vertex -1.250000e+01 -1.250000e+01 1.530808e-15
    endloop
  endfacet
  facet normal -1.000000e+00 4.857226e-16 -2.974193e-32
    outer loop
      vertex -1.250000e+01 -1.250000e+01 1.530808e-15
      vertex -1.250000e+01 1.250000e+01 1.000000e+01
      vertex -1.250000e+01 1.250000e+01 0.000000e+00
    endloop
  endfacet
  facet normal 2.775558e-16 -1.000000e+00 6.123234e-17
    outer loop
      vertex 1.250000e+01 -1.250000e+01 1.000000e+01
      vertex -1.250000e+01 -1.250000e+01 1.000000e+01
      vertex 1.250000e+01 -1.250000e+01 1.530808e-15
    endloop
  endfacet
  facet normal 2.775558e-16 -1.000000e+00 6.123234e-17
    outer loop
      vertex 1.250000e+01 -1.250000e+01 1.530808e-15
      vertex -1.250000e+01 -1.250000e+01 1.000000e+01
      vertex -1.250000e+01 -1.250000e+01 1.530808e-15
    endloop
  endfacet
  facet normal 1.000000e+00 2.081668e-16 -1.274654e-32
    outer loop
      vertex 1.250000e+01 1.250000e+01 1.000000e+01
      vertex 1.250000e+01 -1.250000e+01 1.000000e+01
      vertex 1.250000e+01 1.250000e+01 0.000000e+00
    endloop
  endfacet
  facet normal 1.000000e+00 2.081668e-16 -1.274654e-32
    outer loop
      vertex 1.250000e+01 1.250000e+01 0.000000e+00
      vertex 1.250000e+01 -1.250000e+01 1.000000e+01
      vertex 1.250000e+01 -1.250000e+01 1.530808e-15
    endloop
  endfacet
  facet normal -1.387779e-16 1.000000e+00 -6.123234e-17
    outer loop
      vertex -1.250000e+01 1.250000e+01 1.000000e+01
      vertex 1.250000e+01 1.250000e+01 1.000000e+01
      vertex -1.250000e+01 1.250000e+01 0.000000e+00
    endloop
  endfacet
  facet normal -1.387779e-16 1.000000e+00 -6.123234e-17
    outer loop
      vertex -1.250000e+01 1.250000e+01 0.000000e+00
      vertex 1.250000e+01 1.250000e+01 1.000000e+01
      vertex 1.250000e+01 1.250000e+01 0.000000e+00
    endloop
  endfacet
  facet normal 0.000000e+00 6.123234e-17 1.000000e+00
    outer loop
      vertex 1.250000e+01 -1.250000e+01 1.000000e+01
      vertex 3.800961e+00 -5.745750e+00 1.000000e+01
      vertex 3.544706e+00 -5.800272e+00 1.000000e+01
    endloop
  endfacet
  facet normal 0.000000e+00 6.123234e-17 1.000000e+00
    outer loop
      vertex 4.180542e+00 -5.515314e+00 1.000000e+01
      vertex 4.086653e+00 -5.601563e+00 1.000000e+01
      vertex 1.250000e+01 -1.250000e+01 1.000000e+01
    endloop
  endfacet
  facet normal 0.000000e+00 6.123234e-17 1.000000e+00
    outer loop
      vertex 1.250000e+01 -1.250000e+01 1.000000e+01
      vertex 4.086653e+00 -5.601563e+00 1.000000e+01
      vertex 4.019484e+00 -5.653797e+00 1.000000e+01
    endloop
  endfacet
  facet normal 0.000000e+00 6.123234e-17 1.000000e+00
    outer loop
      vertex 1.250000e+01 -1.250000e+01 1.000000e+01
      vertex 4.019484e+00 -5.653797e+00 1.000000e+01
      vertex 3.800961e+00 -5.745750e+00 1.000000e+01
    endloop
  endfacet
  facet normal 0.000000e+00 6.123234e-17 1.000000e+00
    outer loop
      vertex -4.093533e+00 -5.295301e+00 1.000000e+01
      vertex -4.308543e+00 -5.077894e+00 1.000000e+01
      vertex -1.250000e+01 -1.250000e+01 1.000000e+01
    endloop
  endfacet
  facet normal 0.000000e+00 6.123234e-17 1.000000e+00
    outer loop
      vertex -4.308543e+00 -5.077894e+00 1.000000e+01
      vertex -4.485869e+00 -4.827360e+00 1.000000e+01
      vertex -1.250000e+01 -1.250000e+01 1.000000e+01
    endloop
  endfacet
  facet normal 0.000000e+00 6.123234e-17 1.000000e+00
    outer loop
      vertex -1.250000e+01 -1.250000e+01 1.000000e+01
      vertex -4.485869e+00 -4.827360e+00 1.000000e+01
      vertex -4.645494e+00 -4.495895e+00 1.000000e+01
    endloop
  endfacet
  facet normal 0.000000e+00 6.123234e-17 1.000000e+00
    outer loop
      vertex -1.250000e+01 -1.250000e+01 1.000000e+01
      vertex -4.645494e+00 -4.495895e+00 1.000000e+01
      vertex -4.747379e+00 -4.145382e+00 1.000000e+01
    endloop
  endfacet
  facet normal 0.000000e+00 6.123234e-17 1.000000e+00
    outer loop
      vertex -4.796156e+00 4.273900e+00 1.000000e+01
      vertex -4.698248e+00 4.660705e+00 1.000000e+01
      vertex -1.250000e+01 1.250000e+01 1.000000e+01
    endloop
  endfacet
  facet normal 0.000000e+00 6.123234e-17 1.000000e+00
    outer loop
      vertex -1.250000e+01 1.250000e+01 1.000000e+01
      vertex -4.698248e+00 4.660705e+00 1.000000e+01
      vertex -4.539665e+00 5.036298e+00 1.000000e+01
    endloop
  endfacet
  facet normal 0.000000e+00 6.123234e-17 1.000000e+00
    outer loop
      vertex -1.250000e+01 1.250000e+01 1.000000e+01
      vertex -4.539665e+00 5.036298e+00 1.000000e+01
      vertex -4.306457e+00 5.396826e+00 1.000000e+01
    endloop
  endfacet
  facet normal 0.000000e+00 6.123234e-17 1.000000e+00
    outer loop
      vertex -2.861601e+00 6.389909e+00 1.000000e+01
      vertex -1.250000e+01 1.250000e+01 1.000000e+01
      vertex -3.220166e+00 6.259704e+00 1.000000e+01
    endloop
  endfacet
  facet normal 0.000000e+00 6.123234e-17 1.000000e+00
    outer loop
      vertex -3.220166e+00 6.259704e+00 1.000000e+01
      vertex -1.250000e+01 1.250000e+01 1.000000e+01
      vertex -3.618575e+00 6.040459e+00 1.000000e+01
    endloop
  endfacet
  facet normal 0.000000e+00 6.123234e-17 1.000000e+00
    outer loop
      vertex 4.410892e+00 5.510084e+00 1.000000e+01
      vertex 1.250000e+01 1.250000e+01 1.000000e+01
      vertex 4.364483e+00 5.692044e+00 1.000000e+01
    endloop
  endfacet
  facet normal 0.000000e+00 6.123234e-17 1.000000e+00
    outer loop
      vertex 4.364483e+00 5.692044e+00 1.000000e+01
      vertex 1.250000e+01 1.250000e+01 1.000000e+01
      vertex 4.282953e+00 5.883256e+00 1.000000e+01
    endloop
  endfacet
  facet normal 0.000000e+00 6.123234e-17 1.000000e+00
    outer loop
      vertex 4.311316e+00 4.648401e+00 1.000000e+01
      vertex 4.210098e+00 4.476166e+00 1.000000e+01
      vertex 1.250000e+01 -1.250000e+01 1.000000e+01
    endloop
  endfacet
  facet normal 0.000000e+00 6.123234e-17 1.000000e+00
    outer loop
      vertex 1.250000e+01 -1.250000e+01 1.000000e+01
      vertex 4.210098e+00 4.476166e+00 1.000000e+01
      vertex 4.099182e+00 4.343527e+00 1.000000e+01
    endloop
  endfacet
  facet normal 0.000000e+00 6.123234e-17 1.000000e+00
    outer loop
      vertex -2.725642e+00 -5.812096e+00 1.000000e+01
      vertex -3.202028e+00 -5.731504e+00 1.000000e+01
      vertex -1.250000e+01 -1.250000e+01 1.000000e+01
    endloop
  endfacet
  facet normal 0.000000e+00 6.123234e-17 1.000000e+00
    outer loop
      vertex -3.202028e+00 -5.731504e+00 1.000000e+01
      vertex -3.581010e+00 -5.605446e+00 1.000000e+01
      vertex -1.250000e+01 -1.250000e+01 1.000000e+01
    endloop
  endfacet
  facet normal 0.000000e+00 6.123234e-17 1.000000e+00
    outer loop
      vertex -1.250000e+01 -1.250000e+01 1.000000e+01
      vertex -3.581010e+00 -5.605446e+00 1.000000e+01
      vertex -3.867124e+00 -5.459446e+00 1.000000e+01
    endloop
  endfacet
  facet normal 0.000000e+00 6.123234e-17 1.000000e+00
    outer loop
      vertex -1.250000e+01 -1.250000e+01 1.000000e+01
      vertex -3.867124e+00 -5.459446e+00 1.000000e+01
      vertex -4.093533e+00 -5.295301e+00 1.000000e+01
    endloop
  endfacet
  facet normal 0.000000e+00 6.123234e-17 1.000000e+00
    outer loop
      vertex -4.306457e+00 5.396826e+00 1.000000e+01
      vertex -4.033684e+00 5.701480e+00 1.000000e+01
      vertex -1.250000e+01 1.250000e+01 1.000000e+01
    endloop
  endfacet
  facet normal 0.000000e+00 6.123234e-17 1.000000e+00
    outer loop
      vertex -1.250000e+01 1.250000e+01 1.000000e+01
      vertex -4.033684e+00 5.701480e+00 1.000000e+01
      vertex -3.952150e+00 5.778416e+00 1.000000e+01
    endloop
  endfacet
  facet normal 0.000000e+00 6.123234e-17 1.000000e+00
    outer loop
      vertex -1.250000e+01 1.250000e+01 1.000000e+01
      vertex -3.952150e+00 5.778416e+00 1.000000e+01
      vertex -3.618575e+00 6.040459e+00 1.000000e+01
    endloop
  endfacet
  facet normal 0.000000e+00 6.123234e-17 1.000000e+00
    outer loop
      vertex 3.431109e+00 6.479304e+00 1.000000e+01
      vertex 3.592085e+00 6.444046e+00 1.000000e+01
      vertex 1.250000e+01 1.250000e+01 1.000000e+01
    endloop
  endfacet
  facet normal 0.000000e+00 6.123234e-17 1.000000e+00
    outer loop
      vertex 1.250000e+01 1.250000e+01 1.000000e+01
      vertex 3.592085e+00 6.444046e+00 1.000000e+01
      vertex 3.784826e+00 6.367627e+00 1.000000e+01
    endloop
  endfacet
  facet normal 0.000000e+00 6.123234e-17 1.000000e+00
    outer loop
      vertex 1.250000e+01 1.250000e+01 1.000000e+01
      vertex 3.784826e+00 6.367627e+00 1.000000e+01
      vertex 3.928034e+00 6.282545e+00 1.000000e+01
    endloop
  endfacet
  facet normal 0.000000e+00 6.123234e-17 1.000000e+00
    outer loop
      vertex 4.410892e+00 5.510084e+00 1.000000e+01
      vertex 4.433365e+00 5.234659e+00 1.000000e+01
      vertex 1.250000e+01 1.250000e+01 1.000000e+01
    endloop
  endfacet
  facet normal 0.000000e+00 6.123234e-17 1.000000e+00
    outer loop
      vertex 1.250000e+01 1.250000e+01 1.000000e+01
      vertex 4.433365e+00 5.234659e+00 1.000000e+01
      vertex 4.417665e+00 5.007493e+00 1.000000e+01
    endloop
  endfacet
  facet normal 0.000000e+00 6.123234e-17 1.000000e+00
    outer loop
      vertex 1.250000e+01 1.250000e+01 1.000000e+01
      vertex 4.417665e+00 5.007493e+00 1.000000e+01
      vertex 1.250000e+01 -1.250000e+01 1.000000e+01
    endloop
  endfacet
  facet normal 0.000000e+00 6.123234e-17 1.000000e+00
    outer loop
      vertex 1.250000e+01 -1.250000e+01 1.000000e+01
      vertex 4.417665e+00 5.007493e+00 1.000000e+01
      vertex 4.380093e+00 4.828276e+00 1.000000e+01
    endloop
  endfacet
  facet normal 0.000000e+00 6.123234e-17 1.000000e+00
    outer loop
      vertex 1.250000e+01 -1.250000e+01 1.000000e+01
      vertex 4.380093e+00 4.828276e+00 1.000000e+01
      vertex 4.311316e+00 4.648401e+00 1.000000e+01
    endloop
  endfacet
  facet normal 0.000000e+00 6.123234e-17 1.000000e+00
    outer loop
      vertex 4.099182e+00 4.343527e+00 1.000000e+01
      vertex 3.959055e+00 4.222095e+00 1.000000e+01
      vertex 1.250000e+01 -1.250000e+01 1.000000e+01
    endloop
  endfacet
  facet normal 0.000000e+00 6.123234e-17 1.000000e+00
    outer loop
      vertex 1.250000e+01 -1.250000e+01 1.000000e+01
      vertex 3.959055e+00 4.222095e+00 1.000000e+01
      vertex 3.800594e+00 4.124916e+00 1.000000e+01
    endloop
  endfacet
  facet normal 0.000000e+00 6.123234e-17 1.000000e+00
    outer loop
      vertex 1.250000e+01 -1.250000e+01 1.000000e+01
      vertex 3.800594e+00 4.124916e+00 1.000000e+01
      vertex 3.624947e+00 4.053066e+00 1.000000e+01
    endloop
  endfacet
  facet normal 0.000000e+00 6.123234e-17 1.000000e+00
    outer loop
      vertex -4.747379e+00 -4.145382e+00 1.000000e+01
      vertex -4.821791e+00 -3.635527e+00 1.000000e+01
      vertex -1.250000e+01 -1.250000e+01 1.000000e+01
    endloop
  endfacet
  facet normal 0.000000e+00 6.123234e-17 1.000000e+00
    outer loop
      vertex -1.250000e+01 -1.250000e+01 1.000000e+01
      vertex -4.821791e+00 -3.635527e+00 1.000000e+01
      vertex -4.833406e+00 -3.311074e+00 1.000000e+01
    endloop
  endfacet
  facet normal 0.000000e+00 6.123234e-17 1.000000e+00
    outer loop
      vertex -1.250000e+01 -1.250000e+01 1.000000e+01
      vertex -4.833406e+00 -3.311074e+00 1.000000e+01
      vertex -1.250000e+01 1.250000e+01 1.000000e+01
    endloop
  endfacet
  facet normal 0.000000e+00 6.123234e-17 1.000000e+00
    outer loop
      vertex -1.250000e+01 1.250000e+01 1.000000e+01
      vertex -4.833406e+00 -3.311074e+00 1.000000e+01
      vertex -4.833406e+00 3.795185e+00 1.000000e+01
    endloop
  endfacet
  facet normal 0.000000e+00 6.123234e-17 1.000000e+00
    outer loop
      vertex -1.250000e+01 1.250000e+01 1.000000e+01
      vertex -4.833406e+00 3.795185e+00 1.000000e+01
      vertex -4.796156e+00 4.273900e+00 1.000000e+01
    endloop
  endfacet
  facet normal 0.000000e+00 6.123234e-17 1.000000e+00
    outer loop
      vertex 3.928034e+00 6.282545e+00 1.000000e+01
      vertex 4.063135e+00 6.169596e+00 1.000000e+01
      vertex 1.250000e+01 1.250000e+01 1.000000e+01
    endloop
  endfacet
  facet normal 0.000000e+00 6.123234e-17 1.000000e+00
    outer loop
      vertex 1.250000e+01 1.250000e+01 1.000000e+01
      vertex 4.063135e+00 6.169596e+00 1.000000e+01
      vertex 4.193291e+00 6.023695e+00 1.000000e+01
    endloop
  endfacet
  facet normal 0.000000e+00 6.123234e-17 1.000000e+00
    outer loop
      vertex 1.250000e+01 1.250000e+01 1.000000e+01
      vertex 4.193291e+00 6.023695e+00 1.000000e+01
      vertex 4.282953e+00 5.883256e+00 1.000000e+01
    endloop
  endfacet
  facet normal 0.000000e+00 6.123234e-17 1.000000e+00
    outer loop
      vertex 3.544706e+00 -5.800272e+00 1.000000e+01
      vertex 3.079143e+00 -5.832520e+00 1.000000e+01
      vertex 1.250000e+01 -1.250000e+01 1.000000e+01
    endloop
  endfacet
  facet normal 0.000000e+00 6.123234e-17 1.000000e+00
    outer loop
      vertex 1.250000e+01 -1.250000e+01 1.000000e+01
      vertex 3.079143e+00 -5.832520e+00 1.000000e+01
      vertex 3.012114e+00 -5.833406e+00 1.000000e+01
    endloop
  endfacet
  facet normal 0.000000e+00 6.123234e-17 1.000000e+00
    outer loop
      vertex 1.250000e+01 -1.250000e+01 1.000000e+01
      vertex 3.012114e+00 -5.833406e+00 1.000000e+01
      vertex -1.250000e+01 -1.250000e+01 1.000000e+01
    endloop
  endfacet
  facet normal 0.000000e+00 6.123234e-17 1.000000e+00
    outer loop
      vertex -1.250000e+01 -1.250000e+01 1.000000e+01
      vertex 3.012114e+00 -5.833406e+00 1.000000e+01
      vertex -2.277235e+00 -5.833406e+00 1.000000e+01
    endloop
  endfacet
  facet normal 0.000000e+00 6.123234e-17 1.000000e+00
    outer loop
      vertex -1.250000e+01 -1.250000e+01 1.000000e+01
      vertex -2.277235e+00 -5.833406e+00 1.000000e+01
      vertex -2.725642e+00 -5.812096e+00 1.000000e+01
    endloop
  endfacet
  facet normal 0.000000e+00 6.123234e-17 1.000000e+00
    outer loop
      vertex -2.861601e+00 6.389909e+00 1.000000e+01
      vertex -2.385528e+00 6.477760e+00 1.000000e+01
      vertex -1.250000e+01 1.250000e+01 1.000000e+01
    endloop
  endfacet
  facet normal 0.000000e+00 6.123234e-17 1.000000e+00
    outer loop
      vertex -1.250000e+01 1.250000e+01 1.000000e+01
      vertex -2.385528e+00 6.477760e+00 1.000000e+01
      vertex -2.061183e+00 6.494524e+00 1.000000e+01
    endloop
  endfacet
  facet normal 0.000000e+00 6.123234e-17 1.000000e+00
    outer loop
      vertex -1.250000e+01 1.250000e+01 1.000000e+01
      vertex -2.061183e+00 6.494524e+00 1.000000e+01
      vertex 1.250000e+01 1.250000e+01 1.000000e+01
    endloop
  endfacet
  facet normal 0.000000e+00 6.123234e-17 1.000000e+00
    outer loop
      vertex 1.250000e+01 1.250000e+01 1.000000e+01
      vertex -2.061183e+00 6.494524e+00 1.000000e+01
      vertex 3.209944e+00 6.494524e+00 1.000000e+01
    endloop
  endfacet
  facet normal 0.000000e+00 6.123234e-17 1.000000e+00
    outer loop
      vertex 1.250000e+01 1.250000e+01 1.000000e+01
      vertex 3.209944e+00 6.494524e+00 1.000000e+01
      vertex 3.431109e+00 6.479304e+00 1.000000e+01
    endloop
  endfacet
  facet normal 0.000000e+00 6.123234e-17 1.000000e+00
    outer loop
      vertex 3.624947e+00 4.053066e+00 1.000000e+01
      vertex 3.954365e+00 -3.679728e+00 1.000000e+01
      vertex 4.064568e+00 -3.760313e+00 1.000000e+01
    endloop
  endfacet
  facet normal 0.000000e+00 6.123234e-17 1.000000e+00
    outer loop
      vertex 4.361923e+00 -5.159105e+00 1.000000e+01
      vertex 4.292028e+00 -5.344074e+00 1.000000e+01
      vertex 1.250000e+01 -1.250000e+01 1.000000e+01
    endloop
  endfacet
  facet normal 0.000000e+00 6.123234e-17 1.000000e+00
    outer loop
      vertex 1.250000e+01 -1.250000e+01 1.000000e+01
      vertex 4.292028e+00 -5.344074e+00 1.000000e+01
      vertex 4.238565e+00 -5.440258e+00 1.000000e+01
    endloop
  endfacet
  facet normal 0.000000e+00 6.123234e-17 1.000000e+00
    outer loop
      vertex 1.250000e+01 -1.250000e+01 1.000000e+01
      vertex 4.238565e+00 -5.440258e+00 1.000000e+01
      vertex 4.180542e+00 -5.515314e+00 1.000000e+01
    endloop
  endfacet
  facet normal 0.000000e+00 6.123234e-17 1.000000e+00
    outer loop
      vertex 3.215148e+00 3.995619e+00 1.000000e+01
      vertex -2.334501e+00 3.995619e+00 1.000000e+01
      vertex -2.334501e+00 -3.501097e+00 1.000000e+01
    endloop
  endfacet
  facet normal 0.000000e+00 6.123234e-17 1.000000e+00
    outer loop
      vertex 1.250000e+01 -1.250000e+01 1.000000e+01
      vertex 4.361052e+00 -4.252045e+00 1.000000e+01
      vertex 4.398777e+00 -4.442142e+00 1.000000e+01
    endloop
  endfacet
  facet normal 0.000000e+00 6.123234e-17 1.000000e+00
    outer loop
      vertex -2.334501e+00 -3.501097e+00 1.000000e+01
      vertex 3.196928e+00 -3.501097e+00 1.000000e+01
      vertex 3.215148e+00 3.995619e+00 1.000000e+01
    endloop
  endfacet
  facet normal 0.000000e+00 6.123234e-17 1.000000e+00
    outer loop
      vertex 3.215148e+00 3.995619e+00 1.000000e+01
      vertex 3.196928e+00 -3.501097e+00 1.000000e+01
      vertex 3.421057e+00 -3.512304e+00 1.000000e+01
    endloop
  endfacet
  facet normal 0.000000e+00 6.123234e-17 1.000000e+00
    outer loop
      vertex 3.215148e+00 3.995619e+00 1.000000e+01
      vertex 3.421057e+00 -3.512304e+00 1.000000e+01
      vertex 3.457250e+00 4.013988e+00 1.000000e+01
    endloop
  endfacet
  facet normal 0.000000e+00 6.123234e-17 1.000000e+00
    outer loop
      vertex 3.457250e+00 4.013988e+00 1.000000e+01
      vertex 3.421057e+00 -3.512304e+00 1.000000e+01
      vertex 3.636238e+00 -3.548874e+00 1.000000e+01
    endloop
  endfacet
  facet normal 0.000000e+00 6.123234e-17 1.000000e+00
    outer loop
      vertex 3.457250e+00 4.013988e+00 1.000000e+01
      vertex 3.636238e+00 -3.548874e+00 1.000000e+01
      vertex 3.624947e+00 4.053066e+00 1.000000e+01
    endloop
  endfacet
  facet normal 0.000000e+00 6.123234e-17 1.000000e+00
    outer loop
      vertex 3.624947e+00 4.053066e+00 1.000000e+01
      vertex 3.636238e+00 -3.548874e+00 1.000000e+01
      vertex 3.818865e+00 -3.609968e+00 1.000000e+01
    endloop
  endfacet
  facet normal 0.000000e+00 6.123234e-17 1.000000e+00
    outer loop
      vertex 3.624947e+00 4.053066e+00 1.000000e+01
      vertex 3.818865e+00 -3.609968e+00 1.000000e+01
      vertex 3.954365e+00 -3.679728e+00 1.000000e+01
    endloop
  endfacet
  facet normal 0.000000e+00 6.123234e-17 1.000000e+00
    outer loop
      vertex 4.064568e+00 -3.760313e+00 1.000000e+01
      vertex 4.150530e+00 -3.846100e+00 1.000000e+01
      vertex 3.624947e+00 4.053066e+00 1.000000e+01
    endloop
  endfacet
  facet normal 0.000000e+00 6.123234e-17 1.000000e+00
    outer loop
      vertex 3.624947e+00 4.053066e+00 1.000000e+01
      vertex 4.150530e+00 -3.846100e+00 1.000000e+01
      vertex 4.231476e+00 -3.955603e+00 1.000000e+01
    endloop
  endfacet
  facet normal 0.000000e+00 6.123234e-17 1.000000e+00
    outer loop
      vertex 3.624947e+00 4.053066e+00 1.000000e+01
      vertex 4.231476e+00 -3.955603e+00 1.000000e+01
      vertex 1.250000e+01 -1.250000e+01 1.000000e+01
    endloop
  endfacet
  facet normal 0.000000e+00 6.123234e-17 1.000000e+00
    outer loop
      vertex 1.250000e+01 -1.250000e+01 1.000000e+01
      vertex 4.231476e+00 -3.955603e+00 1.000000e+01
      vertex 4.302814e+00 -4.089310e+00 1.000000e+01
    endloop
  endfacet
  facet normal 0.000000e+00 6.123234e-17 1.000000e+00
    outer loop
      vertex 1.250000e+01 -1.250000e+01 1.000000e+01
      vertex 4.302814e+00 -4.089310e+00 1.000000e+01
      vertex 4.361052e+00 -4.252045e+00 1.000000e+01
    endloop
  endfacet
  facet normal 0.000000e+00 6.123234e-17 1.000000e+00
    outer loop
      vertex 4.398777e+00 -4.442142e+00 1.000000e+01
      vertex 4.415144e+00 -4.711502e+00 1.000000e+01
      vertex 1.250000e+01 -1.250000e+01 1.000000e+01
    endloop
  endfacet
  facet normal 0.000000e+00 6.123234e-17 1.000000e+00
    outer loop
      vertex 1.250000e+01 -1.250000e+01 1.000000e+01
      vertex 4.415144e+00 -4.711502e+00 1.000000e+01
      vertex 4.399452e+00 -4.976089e+00 1.000000e+01
    endloop
  endfacet
  facet normal 0.000000e+00 6.123234e-17 1.000000e+00
    outer loop
      vertex 1.250000e+01 -1.250000e+01 1.000000e+01
      vertex 4.399452e+00 -4.976089e+00 1.000000e+01
      vertex 4.361923e+00 -5.159105e+00 1.000000e+01
    endloop
  endfacet
  facet normal 0.000000e+00 -6.123234e-17 -1.000000e+00
    outer loop
      vertex 1.250000e+01 1.250000e+01 0.000000e+00
      vertex 1.250000e+01 -1.250000e+01 1.530808e-15
      vertex -1.250000e+01 1.250000e+01 0.000000e+00
    endloop
  endfacet
  facet normal 0.000000e+00 -6.123234e-17 -1.000000e+00
    outer loop
      vertex -1.250000e+01 1.250000e+01 0.000000e+00
      vertex 1.250000e+01 -1.250000e+01 1.530808e-15
      vertex -1.250000e+01 -1.250000e+01 1.530808e-15
    endloop
  endfacet
  facet normal -9.993604e-01 -3.576031e-02 2.189687e-18
    outer loop
      vertex -4.833406e+00 -3.311074e+00 1.200000e+01
      vertex -4.833406e+00 -3.311074e+00 1.000000e+01
      vertex -4.821791e+00 -3.635527e+00 1.000000e+01
    endloop
  endfacet
  facet normal -9.987853e-01 -4.927476e-02 3.017209e-18
    outer loop
      vertex -4.833406e+00 -3.311074e+00 1.200000e+01
      vertex -4.821791e+00 -3.635527e+00 1.000000e+01
      vertex -4.821791e+00 -3.635527e+00 1.200000e+01
    endloop
  endfacet
  facet normal -9.932300e-01 -1.161642e-01 7.113005e-18
    outer loop
      vertex -4.821791e+00 -3.635527e+00 1.200000e+01
      vertex -4.821791e+00 -3.635527e+00 1.000000e+01
      vertex -4.747379e+00 -4.145382e+00 1.000000e+01
    endloop
  endfacet
  facet normal -9.855526e-01 -1.693695e-01 1.037089e-17
    outer loop
      vertex -4.821791e+00 -3.635527e+00 1.200000e+01
      vertex -4.747379e+00 -4.145382e+00 1.000000e+01
      vertex -4.747379e+00 -4.145382e+00 1.200000e+01
    endloop
  endfacet
  facet normal -9.633961e-01 -2.680820e-01 1.641529e-17
    outer loop
      vertex -4.747379e+00 -4.145382e+00 1.200000e+01
      vertex -4.747379e+00 -4.145382e+00 1.000000e+01
      vertex -4.645494e+00 -4.495895e+00 1.000000e+01
    endloop
  endfacet
  facet normal -9.495139e-01 -3.137250e-01 1.921011e-17
    outer loop
      vertex -4.747379e+00 -4.145382e+00 1.200000e+01
      vertex -4.645494e+00 -4.495895e+00 1.000000e+01
      vertex -4.645494e+00 -4.495895e+00 1.200000e+01
    endloop
  endfacet
  facet normal -9.121357e-01 -4.098884e-01 2.509842e-17
    outer loop
      vertex -4.645494e+00 -4.495895e+00 1.200000e+01
      vertex -4.645494e+00 -4.495895e+00 1.000000e+01
      vertex -4.485869e+00 -4.827360e+00 1.000000e+01
    endloop
  endfacet
  facet normal -8.878619e-01 -4.601100e-01 2.817361e-17
    outer loop
      vertex -4.645494e+00 -4.495895e+00 1.200000e+01
      vertex -4.485869e+00 -4.827360e+00 1.000000e+01
      vertex -4.485869e+00 -4.827360e+00 1.200000e+01
    endloop
  endfacet
  facet normal -8.317918e-01 -5.550880e-01 3.398933e-17
    outer loop
      vertex -4.485869e+00 -4.827360e+00 1.200000e+01
      vertex -4.485869e+00 -4.827360e+00 1.000000e+01
      vertex -4.308543e+00 -5.077894e+00 1.000000e+01
    endloop
  endfacet
  facet normal -8.000794e-01 -5.998940e-01 3.673292e-17
    outer loop
      vertex -4.485869e+00 -4.827360e+00 1.200000e+01
      vertex -4.308543e+00 -5.077894e+00 1.000000e+01
      vertex -4.308543e+00 -5.077894e+00 1.200000e+01
    endloop
  endfacet
  facet normal -7.295903e-01 -6.838844e-01 4.187584e-17
    outer loop
      vertex -4.308543e+00 -5.077894e+00 1.200000e+01
      vertex -4.308543e+00 -5.077894e+00 1.000000e+01
      vertex -4.093533e+00 -5.295301e+00 1.000000e+01
    endloop
  endfacet
  facet normal -6.907936e-01 -7.230520e-01 4.427417e-17
    outer loop
      vertex -4.308543e+00 -5.077894e+00 1.200000e+01
      vertex -4.093533e+00 -5.295301e+00 1.000000e+01
      vertex -4.093533e+00 -5.295301e+00 1.200000e+01
    endloop
  endfacet
  facet normal -6.092510e-01 -7.929775e-01 4.855587e-17
    outer loop
      vertex -4.093533e+00 -5.295301e+00 1.200000e+01
      vertex -4.093533e+00 -5.295301e+00 1.000000e+01
      vertex -3.867124e+00 -5.459446e+00 1.000000e+01
    endloop
  endfacet
  facet normal -5.666789e-01 -8.239387e-01 5.045169e-17
    outer loop
      vertex -4.093533e+00 -5.295301e+00 1.200000e+01
      vertex -3.867124e+00 -5.459446e+00 1.000000e+01
      vertex -3.867124e+00 -5.459446e+00 1.200000e+01
    endloop
  endfacet
  facet normal -4.790074e-01 -8.778108e-01 5.375041e-17
    outer loop
      vertex -3.867124e+00 -5.459446e+00 1.200000e+01
      vertex -3.867124e+00 -5.459446e+00 1.000000e+01
      vertex -3.581010e+00 -5.605446e+00 1.000000e+01
    endloop
  endfacet
  facet normal -4.340192e-01 -9.009036e-01 5.516444e-17
    outer loop
      vertex -3.867124e+00 -5.459446e+00 1.200000e+01
      vertex -3.581010e+00 -5.605446e+00 1.000000e+01
      vertex -3.581010e+00 -5.605446e+00 1.200000e+01
    endloop
  endfacet
  facet normal -3.413000e-01 -9.399544e-01 5.755560e-17
    outer loop
      vertex -3.581010e+00 -5.605446e+00 1.200000e+01
      vertex -3.581010e+00 -5.605446e+00 1.000000e+01
      vertex -3.202028e+00 -5.731504e+00 1.000000e+01
    endloop
  endfacet
  facet normal -2.935784e-01 -9.559350e-01 5.853414e-17
    outer loop
      vertex -3.581010e+00 -5.605446e+00 1.200000e+01
      vertex -3.202028e+00 -5.731504e+00 1.000000e+01
      vertex -3.202028e+00 -5.731504e+00 1.200000e+01
    endloop
  endfacet
  facet normal -1.962268e-01 -9.805585e-01 6.004189e-17
    outer loop
      vertex -3.202028e+00 -5.731504e+00 1.200000e+01
      vertex -3.202028e+00 -5.731504e+00 1.000000e+01
      vertex -2.725642e+00 -5.812096e+00 1.000000e+01
    endloop
  endfacet
  facet normal -1.465956e-01 -9.891965e-01 6.057081e-17
    outer loop
      vertex -3.202028e+00 -5.731504e+00 1.200000e+01
      vertex -2.725642e+00 -5.812096e+00 1.000000e+01
      vertex -2.725642e+00 -5.812096e+00 1.200000e+01
    endloop
  endfacet
  facet normal -7.128205e-02 -9.974562e-01 6.107657e-17
    outer loop
      vertex -2.725642e+00 -5.812096e+00 1.200000e+01
      vertex -2.725642e+00 -5.812096e+00 1.000000e+01
      vertex -2.277235e+00 -5.833406e+00 1.000000e+01
    endloop
  endfacet
  facet normal -4.578173e-02 -9.989515e-01 6.116814e-17
    outer loop
      vertex -2.725642e+00 -5.812096e+00 1.200000e+01
      vertex -2.277235e+00 -5.833406e+00 1.000000e+01
      vertex -2.277235e+00 -5.833406e+00 1.200000e+01
    endloop
  endfacet
  facet normal 0.000000e+00 -1.000000e+00 6.123234e-17
    outer loop
      vertex 3.012114e+00 -5.833406e+00 1.200000e+01
      vertex -2.277235e+00 -5.833406e+00 1.200000e+01
      vertex 3.012114e+00 -5.833406e+00 1.000000e+01
    endloop
  endfacet
  facet normal 0.000000e+00 -1.000000e+00 6.123234e-17
    outer loop
      vertex 3.012114e+00 -5.833406e+00 1.000000e+01
      vertex -2.277235e+00 -5.833406e+00 1.200000e+01
      vertex -2.277235e+00 -5.833406e+00 1.000000e+01
    endloop
  endfacet
  facet normal 1.325174e-02 -9.999122e-01 6.122696e-17
    outer loop
      vertex 3.012114e+00 -5.833406e+00 1.200000e+01
      vertex 3.012114e+00 -5.833406e+00 1.000000e+01
      vertex 3.079143e+00 -5.832520e+00 1.000000e+01
    endloop
  endfacet
  facet normal 1.407898e-02 -9.999009e-01 6.122627e-17
    outer loop
      vertex 3.012114e+00 -5.833406e+00 1.200000e+01
      vertex 3.079143e+00 -5.832520e+00 1.000000e+01
      vertex 3.079143e+00 -5.832520e+00 1.200000e+01
    endloop
  endfacet
  facet normal 5.904977e-02 -9.982550e-01 6.112549e-17
    outer loop
      vertex 3.079143e+00 -5.832520e+00 1.200000e+01
      vertex 3.079143e+00 -5.832520e+00 1.000000e+01
      vertex 3.544706e+00 -5.800272e+00 1.000000e+01
    endloop
  endfacet
  facet normal 1.031642e-01 -9.946643e-01 6.090562e-17
    outer loop
      vertex 3.079143e+00 -5.832520e+00 1.200000e+01
      vertex 3.544706e+00 -5.800272e+00 1.000000e+01
      vertex 3.544706e+00 -5.800272e+00 1.200000e+01
    endloop
  endfacet
  facet normal 1.971117e-01 -9.803810e-01 6.003102e-17
    outer loop
      vertex 3.544706e+00 -5.800272e+00 1.200000e+01
      vertex 3.544706e+00 -5.800272e+00 1.000000e+01
      vertex 3.800961e+00 -5.745750e+00 1.000000e+01
    endloop
  endfacet
  facet normal 2.468505e-01 -9.690536e-01 5.933742e-17
    outer loop
      vertex 3.544706e+00 -5.800272e+00 1.200000e+01
      vertex 3.800961e+00 -5.745750e+00 1.000000e+01
      vertex 3.800961e+00 -5.745750e+00 1.200000e+01
    endloop
  endfacet
  facet normal 3.431973e-01 -9.392633e-01 5.751329e-17
    outer loop
      vertex 3.800961e+00 -5.745750e+00 1.200000e+01
      vertex 3.800961e+00 -5.745750e+00 1.000000e+01
      vertex 4.019484e+00 -5.653797e+00 1.000000e+01
    endloop
  endfacet
  facet normal 3.898318e-01 -9.208861e-01 5.638801e-17
    outer loop
      vertex 3.800961e+00 -5.745750e+00 1.200000e+01
      vertex 4.019484e+00 -5.653797e+00 1.000000e+01
      vertex 4.019484e+00 -5.653797e+00 1.200000e+01
    endloop
  endfacet
  facet normal 6.139224e-01 -7.893663e-01 4.833475e-17
    outer loop
      vertex 4.019484e+00 -5.653797e+00 1.200000e+01
      vertex 4.019484e+00 -5.653797e+00 1.000000e+01
      vertex 4.086653e+00 -5.601563e+00 1.000000e+01
    endloop
  endfacet
  facet normal 6.211340e-01 -7.837044e-01 4.798805e-17
    outer loop
      vertex 4.019484e+00 -5.653797e+00 1.200000e+01
      vertex 4.086653e+00 -5.601563e+00 1.000000e+01
      vertex 4.086653e+00 -5.601563e+00 1.200000e+01
    endloop
  endfacet
  facet normal 6.663123e-01 -7.456728e-01 4.565929e-17
    outer loop
      vertex 4.086653e+00 -5.601563e+00 1.200000e+01
      vertex 4.086653e+00 -5.601563e+00 1.000000e+01
      vertex 4.180542e+00 -5.515314e+00 1.000000e+01
    endloop
  endfacet
  facet normal 7.027624e-01 -7.114247e-01 4.356220e-17
    outer loop
      vertex 4.086653e+00 -5.601563e+00 1.200000e+01
      vertex 4.180542e+00 -5.515314e+00 1.000000e+01
      vertex 4.180542e+00 -5.515314e+00 1.200000e+01
    endloop
  endfacet
  facet normal 7.726670e-01 -6.348117e-01 3.887101e-17
    outer loop
      vertex 4.180542e+00 -5.515314e+00 1.200000e+01
      vertex 4.180542e+00 -5.515314e+00 1.000000e+01
      vertex 4.238565e+00 -5.440258e+00 1.000000e+01
    endloop
  endfacet
  facet normal 8.058156e-01 -5.921665e-01 3.625974e-17
    outer loop
      vertex 4.180542e+00 -5.515314e+00 1.200000e+01
      vertex 4.238565e+00 -5.440258e+00 1.000000e+01
      vertex 4.238565e+00 -5.440258e+00 1.200000e+01
    endloop
  endfacet
  facet normal 8.604808e-01 -5.094831e-01 3.119684e-17
    outer loop
      vertex 4.238565e+00 -5.440258e+00 1.200000e+01
      vertex 4.238565e+00 -5.440258e+00 1.000000e+01
      vertex 4.292028e+00 -5.344074e+00 1.000000e+01
    endloop
  endfacet
  facet normal 8.827125e-01 -4.699134e-01 2.877390e-17
    outer loop
      vertex 4.238565e+00 -5.440258e+00 1.200000e+01
      vertex 4.292028e+00 -5.344074e+00 1.000000e+01
      vertex 4.292028e+00 -5.344074e+00 1.200000e+01
    endloop
  endfacet
  facet normal 9.249455e-01 -3.800997e-01 2.327439e-17
    outer loop
      vertex 4.292028e+00 -5.344074e+00 1.200000e+01
      vertex 4.292028e+00 -5.344074e+00 1.000000e+01
      vertex 4.361923e+00 -5.159105e+00 1.000000e+01
    endloop
  endfacet
  facet normal 9.441617e-01 -3.294823e-01 2.017497e-17
    outer loop
      vertex 4.292028e+00 -5.344074e+00 1.200000e+01
      vertex 4.361923e+00 -5.159105e+00 1.000000e+01
      vertex 4.361923e+00 -5.159105e+00 1.200000e+01
    endloop
  endfacet
  facet normal 9.738530e-01 -2.271790e-01 1.391070e-17
    outer loop
      vertex 4.361923e+00 -5.159105e+00 1.200000e+01
      vertex 4.361923e+00 -5.159105e+00 1.000000e+01
      vertex 4.399452e+00 -4.976089e+00 1.000000e+01
    endloop
  endfacet
  facet normal 9.844732e-01 -1.755350e-01 1.074842e-17
    outer loop
      vertex 4.361923e+00 -5.159105e+00 1.200000e+01
      vertex 4.399452e+00 -4.976089e+00 1.000000e+01
      vertex 4.399452e+00 -4.976089e+00 1.200000e+01
    endloop
  endfacet
  facet normal 9.958029e-01 -9.152367e-02 5.604209e-18
    outer loop
      vertex 4.399452e+00 -4.976089e+00 1.200000e+01
      vertex 4.399452e+00 -4.976089e+00 1.000000e+01
      vertex 4.415144e+00 -4.711502e+00 1.000000e+01
    endloop
  endfacet
  facet normal 9.982360e-01 -5.937095e-02 3.635422e-18
    outer loop
      vertex 4.399452e+00 -4.976089e+00 1.200000e+01
      vertex 4.415144e+00 -4.711502e+00 1.000000e+01
      vertex 4.415144e+00 -4.711502e+00 1.200000e+01
    endloop
  endfacet
  facet normal 9.981568e-01 6.068726e-02 -3.716022e-18
    outer loop
      vertex 4.415144e+00 -4.711502e+00 1.200000e+01
      vertex 4.415144e+00 -4.711502e+00 1.000000e+01
      vertex 4.398777e+00 -4.442142e+00 1.000000e+01
    endloop
  endfacet
  facet normal 9.957696e-01 9.188557e-02 -5.626369e-18
    outer loop
      vertex 4.415144e+00 -4.711502e+00 1.200000e+01
      vertex 4.398777e+00 -4.442142e+00 1.000000e+01
      vertex 4.398777e+00 -4.442142e+00 1.200000e+01
    endloop
  endfacet
  facet normal 9.851449e-01 1.717256e-01 -1.051516e-17
    outer loop
      vertex 4.398777e+00 -4.442142e+00 1.200000e+01
      vertex 4.398777e+00 -4.442142e+00 1.000000e+01
      vertex 4.361052e+00 -4.252045e+00 1.000000e+01
    endloop
  endfacet
  facet normal 9.754575e-01 2.201877e-01 -1.348261e-17
    outer loop
      vertex 4.398777e+00 -4.442142e+00 1.200000e+01
      vertex 4.361052e+00 -4.252045e+00 1.000000e+01
      vertex 4.361052e+00 -4.252045e+00 1.200000e+01
    endloop
  endfacet
  facet normal 9.490899e-01 3.150054e-01 -1.928852e-17
    outer loop
      vertex 4.361052e+00 -4.252045e+00 1.200000e+01
      vertex 4.361052e+00 -4.252045e+00 1.000000e+01
      vertex 4.302814e+00 -4.089310e+00 1.000000e+01
    endloop
  endfacet
  facet normal 9.324244e-01 3.613651e-01 -2.212723e-17
    outer loop
      vertex 4.361052e+00 -4.252045e+00 1.200000e+01
      vertex 4.302814e+00 -4.089310e+00 1.000000e+01
      vertex 4.302814e+00 -4.089310e+00 1.200000e+01
    endloop
  endfacet
  facet normal 8.928216e-01 4.504107e-01 -2.757970e-17
    outer loop
      vertex 4.302814e+00 -4.089310e+00 1.200000e+01
      vertex 4.302814e+00 -4.089310e+00 1.000000e+01
      vertex 4.231476e+00 -3.955603e+00 1.000000e+01
    endloop
  endfacet
  facet normal 8.699563e-01 4.931288e-01 -3.019543e-17
    outer loop
      vertex 4.302814e+00 -4.089310e+00 1.200000e+01
      vertex 4.231476e+00 -3.955603e+00 1.000000e+01
      vertex 4.231476e+00 -3.955603e+00 1.200000e+01
    endloop
  endfacet
  facet normal 8.176116e-01 5.757702e-01 -3.525576e-17
    outer loop
      vertex 4.231476e+00 -3.955603e+00 1.200000e+01
      vertex 4.231476e+00 -3.955603e+00 1.000000e+01
      vertex 4.150530e+00 -3.846100e+00 1.000000e+01
    endloop
  endfacet
  facet normal 7.880340e-01 6.156316e-01 -3.769657e-17
    outer loop
      vertex 4.231476e+00 -3.955603e+00 1.200000e+01
      vertex 4.150530e+00 -3.846100e+00 1.000000e+01
      vertex 4.150530e+00 -3.846100e+00 1.200000e+01
    endloop
  endfacet
  facet normal 7.235160e-01 6.903076e-01 -4.226915e-17
    outer loop
      vertex 4.150530e+00 -3.846100e+00 1.200000e+01
      vertex 4.150530e+00 -3.846100e+00 1.000000e+01
      vertex 4.064568e+00 -3.760313e+00 1.000000e+01
    endloop
  endfacet
  facet normal 6.885988e-01 7.251425e-01 -4.440217e-17
    outer loop
      vertex 4.150530e+00 -3.846100e+00 1.200000e+01
      vertex 4.064568e+00 -3.760313e+00 1.000000e+01
      vertex 4.064568e+00 -3.760313e+00 1.200000e+01
    endloop
  endfacet
  facet normal 6.119237e-01 7.909169e-01 -4.842969e-17
    outer loop
      vertex 4.064568e+00 -3.760313e+00 1.200000e+01
      vertex 4.064568e+00 -3.760313e+00 1.000000e+01
      vertex 3.954365e+00 -3.679728e+00 1.000000e+01
    endloop
  endfacet
  facet normal 5.699896e-01 8.216519e-01 -5.031167e-17
    outer loop
      vertex 4.064568e+00 -3.760313e+00 1.200000e+01
      vertex 3.954365e+00 -3.679728e+00 1.000000e+01
      vertex 3.954365e+00 -3.679728e+00 1.200000e+01
    endloop
  endfacet
  facet normal 4.826514e-01 8.758125e-01 -5.362805e-17
    outer loop
      vertex 3.954365e+00 -3.679728e+00 1.200000e+01
      vertex 3.954365e+00 -3.679728e+00 1.000000e+01
      vertex 3.818865e+00 -3.609968e+00 1.000000e+01
    endloop
  endfacet
  facet normal 4.372963e-01 8.993175e-01 -5.506732e-17
    outer loop
      vertex 3.954365e+00 -3.679728e+00 1.200000e+01
      vertex 3.818865e+00 -3.609968e+00 1.000000e+01
      vertex 3.818865e+00 -3.609968e+00 1.200000e+01
    endloop
  endfacet
  facet normal 3.435462e-01 9.391358e-01 -5.750548e-17
    outer loop
      vertex 3.818865e+00 -3.609968e+00 1.200000e+01
      vertex 3.818865e+00 -3.609968e+00 1.000000e+01
      vertex 3.636238e+00 -3.548874e+00 1.000000e+01
    endloop
  endfacet
  facet normal 2.951517e-01 9.554504e-01 -5.850447e-17
    outer loop
      vertex 3.818865e+00 -3.609968e+00 1.200000e+01
      vertex 3.636238e+00 -3.548874e+00 1.000000e+01
      vertex 3.636238e+00 -3.548874e+00 1.200000e+01
    endloop
  endfacet
  facet normal 1.954546e-01 9.807128e-01 -6.005134e-17
    outer loop
      vertex 3.636238e+00 -3.548874e+00 1.200000e+01
      vertex 3.636238e+00 -3.548874e+00 1.000000e+01
      vertex 3.421057e+00 -3.512304e+00 1.000000e+01
    endloop
  endfacet
  facet normal 1.441262e-01 9.895593e-01 -6.059303e-17
    outer loop
      vertex 3.636238e+00 -3.548874e+00 1.200000e+01
      vertex 3.421057e+00 -3.512304e+00 1.000000e+01
      vertex 3.421057e+00 -3.512304e+00 1.200000e+01
    endloop
  endfacet
  facet normal 7.128695e-02 9.974558e-01 -6.107655e-17
    outer loop
      vertex 3.421057e+00 -3.512304e+00 1.200000e+01
      vertex 3.421057e+00 -3.512304e+00 1.000000e+01
      vertex 3.196928e+00 -3.501097e+00 1.000000e+01
    endloop
  endfacet
  facet normal 4.998470e-02 9.987500e-01 -6.115580e-17
    outer loop
      vertex 3.421057e+00 -3.512304e+00 1.200000e+01
      vertex 3.196928e+00 -3.501097e+00 1.000000e+01
      vertex 3.196928e+00 -3.501097e+00 1.200000e+01
    endloop
  endfacet
  facet normal 0.000000e+00 1.000000e+00 -6.123234e-17
    outer loop
      vertex -2.334501e+00 -3.501097e+00 1.200000e+01
      vertex 3.196928e+00 -3.501097e+00 1.200000e+01
      vertex -2.334501e+00 -3.501097e+00 1.000000e+01
    endloop
  endfacet
  facet normal 0.000000e+00 1.000000e+00 -6.123234e-17
    outer loop
      vertex -2.334501e+00 -3.501097e+00 1.000000e+01
      vertex 3.196928e+00 -3.501097e+00 1.200000e+01
      vertex 3.196928e+00 -3.501097e+00 1.000000e+01
    endloop
  endfacet
  facet normal 1.000000e+00 0.000000e+00 0.000000e+00
    outer loop
      vertex -2.334501e+00 3.995619e+00 1.200000e+01
      vertex -2.334501e+00 -3.501097e+00 1.200000e+01
      vertex -2.334501e+00 3.995619e+00 1.000000e+01
    endloop
  endfacet
  facet normal 1.000000e+00 0.000000e+00 0.000000e+00
    outer loop
      vertex -2.334501e+00 3.995619e+00 1.000000e+01
      vertex -2.334501e+00 -3.501097e+00 1.200000e+01
      vertex -2.334501e+00 -3.501097e+00 1.000000e+01
    endloop
  endfacet
  facet normal 0.000000e+00 -1.000000e+00 6.123234e-17
    outer loop
      vertex 3.215148e+00 3.995619e+00 1.200000e+01
      vertex -2.334501e+00 3.995619e+00 1.200000e+01
      vertex 3.215148e+00 3.995619e+00 1.000000e+01
    endloop
  endfacet
  facet normal 0.000000e+00 -1.000000e+00 6.123234e-17
    outer loop
      vertex 3.215148e+00 3.995619e+00 1.000000e+01
      vertex -2.334501e+00 3.995619e+00 1.200000e+01
      vertex -2.334501e+00 3.995619e+00 1.000000e+01
    endloop
  endfacet
  facet normal 7.575898e-02 -9.971262e-01 6.105636e-17
    outer loop
      vertex 3.215148e+00 3.995619e+00 1.200000e+01
      vertex 3.215148e+00 3.995619e+00 1.000000e+01
      vertex 3.457250e+00 4.013988e+00 1.000000e+01
    endloop
  endfacet
  facet normal 1.120732e-01 -9.937000e-01 6.084657e-17
    outer loop
      vertex 3.215148e+00 3.995619e+00 1.200000e+01
      vertex 3.457250e+00 4.013988e+00 1.000000e+01
      vertex 3.457250e+00 4.013988e+00 1.200000e+01
    endloop
  endfacet
  facet normal 2.000415e-01 -9.797874e-01 5.999468e-17
    outer loop
      vertex 3.457250e+00 4.013988e+00 1.200000e+01
      vertex 3.457250e+00 4.013988e+00 1.000000e+01
      vertex 3.624947e+00 4.053066e+00 1.000000e+01
    endloop
  endfacet
  facet normal 2.514800e-01 -9.678625e-01 5.926449e-17
    outer loop
      vertex 3.457250e+00 4.013988e+00 1.200000e+01
      vertex 3.624947e+00 4.053066e+00 1.000000e+01
      vertex 3.624947e+00 4.053066e+00 1.200000e+01
    endloop
  endfacet
  facet normal 3.531669e-01 -9.355603e-01 5.728655e-17
    outer loop
      vertex 3.624947e+00 4.053066e+00 1.200000e+01
      vertex 3.624947e+00 4.053066e+00 1.000000e+01
      vertex 3.800594e+00 4.124916e+00 1.000000e+01
    endloop
  endfacet
  facet normal 4.033689e-01 -9.150374e-01 5.602988e-17
    outer loop
      vertex 3.624947e+00 4.053066e+00 1.200000e+01
      vertex 3.800594e+00 4.124916e+00 1.000000e+01
      vertex 3.800594e+00 4.124916e+00 1.200000e+01
    endloop
  endfacet
  facet normal 4.998136e-01 -8.661330e-01 5.303535e-17
    outer loop
      vertex 3.800594e+00 4.124916e+00 1.200000e+01
      vertex 3.800594e+00 4.124916e+00 1.000000e+01
      vertex 3.959055e+00 4.222095e+00 1.000000e+01
    endloop
  endfacet
  facet normal 5.460551e-01 -8.377492e-01 5.129735e-17
    outer loop
      vertex 3.800594e+00 4.124916e+00 1.200000e+01
      vertex 3.959055e+00 4.222095e+00 1.000000e+01
      vertex 3.959055e+00 4.222095e+00 1.200000e+01
    endloop
  endfacet
  facet normal 6.340455e-01 -7.732958e-01 4.735071e-17
    outer loop
      vertex 3.959055e+00 4.222095e+00 1.200000e+01
      vertex 3.959055e+00 4.222095e+00 1.000000e+01
      vertex 4.099182e+00 4.343527e+00 1.000000e+01
    endloop
  endfacet
  facet normal 6.757349e-01 -7.371447e-01 4.513710e-17
    outer loop
      vertex 3.959055e+00 4.222095e+00 1.200000e+01
      vertex 4.099182e+00 4.343527e+00 1.000000e+01
      vertex 4.099182e+00 4.343527e+00 1.200000e+01
    endloop
  endfacet
  facet normal 7.502279e-01 -6.611794e-01 4.048556e-17
    outer loop
      vertex 4.099182e+00 4.343527e+00 1.200000e+01
      vertex 4.099182e+00 4.343527e+00 1.000000e+01
      vertex 4.210098e+00 4.476166e+00 1.000000e+01
    endloop
  endfacet
  facet normal 7.833073e-01 -6.216347e-01 3.806415e-17
    outer loop
      vertex 4.099182e+00 4.343527e+00 1.200000e+01
      vertex 4.210098e+00 4.476166e+00 1.000000e+01
      vertex 4.210098e+00 4.476166e+00 1.200000e+01
    endloop
  endfacet
  facet normal 8.465484e-01 -5.323120e-01 3.259471e-17
    outer loop
      vertex 4.210098e+00 4.476166e+00 1.200000e+01
      vertex 4.210098e+00 4.476166e+00 1.000000e+01
      vertex 4.311316e+00 4.648401e+00 1.000000e+01
    endloop
  endfacet
  facet normal 8.761120e-01 -4.821077e-01 2.952058e-17
    outer loop
      vertex 4.210098e+00 4.476166e+00 1.200000e+01
      vertex 4.311316e+00 4.648401e+00 1.000000e+01
      vertex 4.311316e+00 4.648401e+00 1.200000e+01
    endloop
  endfacet
  facet normal 9.241959e-01 -3.819187e-01 2.338578e-17
    outer loop
      vertex 4.311316e+00 4.648401e+00 1.200000e+01
      vertex 4.311316e+00 4.648401e+00 1.000000e+01
      vertex 4.380093e+00 4.828276e+00 1.000000e+01
    endloop
  endfacet
  facet normal 9.432183e-01 -3.321735e-01 2.033976e-17
    outer loop
      vertex 4.311316e+00 4.648401e+00 1.200000e+01
      vertex 4.380093e+00 4.828276e+00 1.000000e+01
      vertex 4.380093e+00 4.828276e+00 1.200000e+01
    endloop
  endfacet
  facet normal 9.729904e-01 -2.308460e-01 1.413524e-17
    outer loop
      vertex 4.380093e+00 4.828276e+00 1.200000e+01
      vertex 4.380093e+00 4.828276e+00 1.000000e+01
      vertex 4.417665e+00 5.007493e+00 1.000000e+01
    endloop
  endfacet
  facet normal 9.837980e-01 -1.792806e-01 1.097777e-17
    outer loop
      vertex 4.380093e+00 4.828276e+00 1.200000e+01
      vertex 4.417665e+00 5.007493e+00 1.000000e+01
      vertex 4.417665e+00 5.007493e+00 1.200000e+01
    endloop
  endfacet
  facet normal 9.951625e-01 -9.824278e-02 6.015635e-18
    outer loop
      vertex 4.417665e+00 5.007493e+00 1.200000e+01
      vertex 4.417665e+00 5.007493e+00 1.000000e+01
      vertex 4.433365e+00 5.234659e+00 1.000000e+01
    endloop
  endfacet
  facet normal 9.976157e-01 -6.901374e-02 4.225873e-18
    outer loop
      vertex 4.417665e+00 5.007493e+00 1.200000e+01
      vertex 4.433365e+00 5.234659e+00 1.000000e+01
      vertex 4.433365e+00 5.234659e+00 1.200000e+01
    endloop
  endfacet
  facet normal 9.966832e-01 8.137900e-02 -4.983026e-18
    outer loop
      vertex 4.433365e+00 5.234659e+00 1.200000e+01
      vertex 4.433365e+00 5.234659e+00 1.000000e+01
      vertex 4.410892e+00 5.510084e+00 1.000000e+01
    endloop
  endfacet
  facet normal 9.921412e-01 1.251234e-01 -7.661597e-18
    outer loop
      vertex 4.433365e+00 5.234659e+00 1.200000e+01
      vertex 4.410892e+00 5.510084e+00 1.000000e+01
      vertex 4.410892e+00 5.510084e+00 1.200000e+01
    endloop
  endfacet
  facet normal 9.756507e-01 2.193304e-01 -1.343011e-17
    outer loop
      vertex 4.410892e+00 5.510084e+00 1.200000e+01
      vertex 4.410892e+00 5.510084e+00 1.000000e+01
      vertex 4.364483e+00 5.692044e+00 1.000000e+01
    endloop
  endfacet
  facet normal 9.629542e-01 2.696651e-01 -1.651223e-17
    outer loop
      vertex 4.410892e+00 5.510084e+00 1.200000e+01
      vertex 4.364483e+00 5.692044e+00 1.000000e+01
      vertex 4.364483e+00 5.692044e+00 1.200000e+01
    endloop
  endfacet
  facet normal 9.289630e-01 3.701728e-01 -2.266655e-17
    outer loop
      vertex 4.364483e+00 5.692044e+00 1.200000e+01
      vertex 4.364483e+00 5.692044e+00 1.000000e+01
      vertex 4.282953e+00 5.883256e+00 1.000000e+01
    endloop
  endfacet
  facet normal 9.074051e-01 4.202570e-01 -2.573332e-17
    outer loop
      vertex 4.364483e+00 5.692044e+00 1.200000e+01
      vertex 4.282953e+00 5.883256e+00 1.000000e+01
      vertex 4.282953e+00 5.883256e+00 1.200000e+01
    endloop
  endfacet
  facet normal 8.569629e-01 5.153781e-01 -3.155780e-17
    outer loop
      vertex 4.282953e+00 5.883256e+00 1.200000e+01
      vertex 4.282953e+00 5.883256e+00 1.000000e+01
      vertex 4.193291e+00 6.023695e+00 1.000000e+01
    endloop
  endfacet
  facet normal 8.281768e-01 5.604670e-01 -3.431870e-17
    outer loop
      vertex 4.282953e+00 5.883256e+00 1.200000e+01
      vertex 4.193291e+00 6.023695e+00 1.000000e+01
      vertex 4.193291e+00 6.023695e+00 1.200000e+01
    endloop
  endfacet
  facet normal 7.651806e-01 6.438157e-01 -3.942234e-17
    outer loop
      vertex 4.193291e+00 6.023695e+00 1.200000e+01
      vertex 4.193291e+00 6.023695e+00 1.000000e+01
      vertex 4.063135e+00 6.169596e+00 1.000000e+01
    endloop
  endfacet
  facet normal 7.311530e-01 6.822136e-01 -4.177353e-17
    outer loop
      vertex 4.193291e+00 6.023695e+00 1.200000e+01
      vertex 4.063135e+00 6.169596e+00 1.000000e+01
      vertex 4.063135e+00 6.169596e+00 1.200000e+01
    endloop
  endfacet
  facet normal 6.580585e-01 7.529668e-01 -4.610592e-17
    outer loop
      vertex 4.063135e+00 6.169596e+00 1.200000e+01
      vertex 4.063135e+00 6.169596e+00 1.000000e+01
      vertex 3.928034e+00 6.282545e+00 1.000000e+01
    endloop
  endfacet
  facet normal 6.190331e-01 7.853649e-01 -4.808973e-17
    outer loop
      vertex 4.063135e+00 6.169596e+00 1.200000e+01
      vertex 3.928034e+00 6.282545e+00 1.000000e+01
      vertex 3.928034e+00 6.282545e+00 1.200000e+01
    endloop
  endfacet
  facet normal 5.351430e-01 8.447614e-01 -5.172672e-17
    outer loop
      vertex 3.928034e+00 6.282545e+00 1.200000e+01
      vertex 3.928034e+00 6.282545e+00 1.000000e+01
      vertex 3.784826e+00 6.367627e+00 1.000000e+01
    endloop
  endfacet
  facet normal 4.901800e-01 8.716213e-01 -5.337141e-17
    outer loop
      vertex 3.928034e+00 6.282545e+00 1.200000e+01
      vertex 3.784826e+00 6.367627e+00 1.000000e+01
      vertex 3.784826e+00 6.367627e+00 1.200000e+01
    endloop
  endfacet
  facet normal 3.936615e-01 9.192554e-01 -5.628816e-17
    outer loop
      vertex 3.784826e+00 6.367627e+00 1.200000e+01
      vertex 3.784826e+00 6.367627e+00 1.000000e+01
      vertex 3.592085e+00 6.444046e+00 1.000000e+01
    endloop
  endfacet
  facet normal 3.419515e-01 9.397176e-01 -5.754111e-17
    outer loop
      vertex 3.784826e+00 6.367627e+00 1.200000e+01
      vertex 3.592085e+00 6.444046e+00 1.000000e+01
      vertex 3.592085e+00 6.444046e+00 1.200000e+01
    endloop
  endfacet
  facet normal 2.383315e-01 9.711839e-01 -5.946786e-17
    outer loop
      vertex 3.592085e+00 6.444046e+00 1.200000e+01
      vertex 3.592085e+00 6.444046e+00 1.000000e+01
      vertex 3.431109e+00 6.479304e+00 1.000000e+01
    endloop
  endfacet
  facet normal 1.865021e-01 9.824545e-01 -6.015799e-17
    outer loop
      vertex 3.592085e+00 6.444046e+00 1.200000e+01
      vertex 3.431109e+00 6.479304e+00 1.000000e+01
      vertex 3.431109e+00 6.479304e+00 1.200000e+01
    endloop
  endfacet
  facet normal 1.016123e-01 9.948241e-01 -6.091541e-17
    outer loop
      vertex 3.431109e+00 6.479304e+00 1.200000e+01
      vertex 3.431109e+00 6.479304e+00 1.000000e+01
      vertex 3.209944e+00 6.494524e+00 1.000000e+01
    endloop
  endfacet
  facet normal 6.878345e-02 9.976316e-01 -6.108731e-17
    outer loop
      vertex 3.431109e+00 6.479304e+00 1.200000e+01
      vertex 3.209944e+00 6.494524e+00 1.000000e+01
      vertex 3.209944e+00 6.494524e+00 1.200000e+01
    endloop
  endfacet
  facet normal 0.000000e+00 1.000000e+00 -6.123234e-17
    outer loop
      vertex -2.061183e+00 6.494524e+00 1.200000e+01
      vertex 3.209944e+00 6.494524e+00 1.200000e+01
      vertex -2.061183e+00 6.494524e+00 1.000000e+01
    endloop
  endfacet
  facet normal 0.000000e+00 1.000000e+00 -6.123234e-17
    outer loop
      vertex -2.061183e+00 6.494524e+00 1.000000e+01
      vertex 3.209944e+00 6.494524e+00 1.200000e+01
      vertex 3.209944e+00 6.494524e+00 1.000000e+01
    endloop
  endfacet
  facet normal -5.118482e-02 9.986892e-01 -6.115207e-17
    outer loop
      vertex -2.061183e+00 6.494524e+00 1.200000e+01
      vertex -2.061183e+00 6.494524e+00 1.000000e+01
      vertex -2.385528e+00 6.477760e+00 1.000000e+01
    endloop
  endfacet
  facet normal -7.554155e-02 9.971426e-01 -6.105738e-17
    outer loop
      vertex -2.061183e+00 6.494524e+00 1.200000e+01
      vertex -2.385528e+00 6.477760e+00 1.000000e+01
      vertex -2.385528e+00 6.477760e+00 1.200000e+01
    endloop
  endfacet
  facet normal -1.552342e-01 9.878777e-01 -6.049006e-17
    outer loop
      vertex -2.385528e+00 6.477760e+00 1.200000e+01
      vertex -2.385528e+00 6.477760e+00 1.000000e+01
      vertex -2.861601e+00 6.389909e+00 1.000000e+01
    endloop
  endfacet
  facet normal -2.103166e-01 9.776334e-01 -5.986278e-17
    outer loop
      vertex -2.385528e+00 6.477760e+00 1.200000e+01
      vertex -2.861601e+00 6.389909e+00 1.000000e+01
      vertex -2.861601e+00 6.389909e+00 1.200000e+01
    endloop
  endfacet
  facet normal -3.152902e-01 9.489953e-01 -5.810920e-17
    outer loop
      vertex -2.861601e+00 6.389909e+00 1.200000e+01
      vertex -2.861601e+00 6.389909e+00 1.000000e+01
      vertex -3.220166e+00 6.259704e+00 1.000000e+01
    endloop
  endfacet
  facet normal -3.652644e-01 9.309039e-01 -5.700143e-17
    outer loop
      vertex -2.861601e+00 6.389909e+00 1.200000e+01
      vertex -3.220166e+00 6.259704e+00 1.000000e+01
      vertex -3.220166e+00 6.259704e+00 1.200000e+01
    endloop
  endfacet
  facet normal -4.614469e-01 8.871678e-01 -5.432336e-17
    outer loop
      vertex -3.220166e+00 6.259704e+00 1.200000e+01
      vertex -3.220166e+00 6.259704e+00 1.000000e+01
      vertex -3.618575e+00 6.040459e+00 1.000000e+01
    endloop
  endfacet
  facet normal -5.076687e-01 8.615524e-01 -5.275487e-17
    outer loop
      vertex -3.220166e+00 6.259704e+00 1.200000e+01
      vertex -3.618575e+00 6.040459e+00 1.000000e+01
      vertex -3.618575e+00 6.040459e+00 1.200000e+01
    endloop
  endfacet
  facet normal -5.944923e-01 8.041013e-01 -4.923700e-17
    outer loop
      vertex -3.618575e+00 6.040459e+00 1.200000e+01
      vertex -3.618575e+00 6.040459e+00 1.000000e+01
      vertex -3.952150e+00 5.778416e+00 1.000000e+01
    endloop
  endfacet
  facet normal -6.351666e-01 7.723753e-01 -4.729435e-17
    outer loop
      vertex -3.618575e+00 6.040459e+00 1.200000e+01
      vertex -3.952150e+00 5.778416e+00 1.000000e+01
      vertex -3.952150e+00 5.778416e+00 1.200000e+01
    endloop
  endfacet
  facet normal -6.821042e-01 7.312549e-01 -4.477645e-17
    outer loop
      vertex -3.952150e+00 5.778416e+00 1.200000e+01
      vertex -3.952150e+00 5.778416e+00 1.000000e+01
      vertex -4.033684e+00 5.701480e+00 1.000000e+01
    endloop
  endfacet
  facet normal -6.900779e-01 7.237351e-01 -4.431599e-17
    outer loop
      vertex -3.952150e+00 5.778416e+00 1.200000e+01
      vertex -4.033684e+00 5.701480e+00 1.000000e+01
      vertex -4.033684e+00 5.701480e+00 1.200000e+01
    endloop
  endfacet
  facet normal -7.311177e-01 6.822513e-01 -4.177585e-17
    outer loop
      vertex -4.033684e+00 5.701480e+00 1.200000e+01
      vertex -4.033684e+00 5.701480e+00 1.000000e+01
      vertex -4.306457e+00 5.396826e+00 1.000000e+01
    endloop
  endfacet
  facet normal -7.626944e-01 6.467591e-01 -3.960257e-17
    outer loop
      vertex -4.033684e+00 5.701480e+00 1.200000e+01
      vertex -4.306457e+00 5.396826e+00 1.000000e+01
      vertex -4.306457e+00 5.396826e+00 1.200000e+01
    endloop
  endfacet
  facet normal -8.264931e-01 5.629469e-01 -3.447055e-17
    outer loop
      vertex -4.306457e+00 5.396826e+00 1.200000e+01
      vertex -4.306457e+00 5.396826e+00 1.000000e+01
      vertex -4.539665e+00 5.036298e+00 1.000000e+01
    endloop
  endfacet
  facet normal -8.578250e-01 5.139418e-01 -3.146986e-17
    outer loop
      vertex -4.306457e+00 5.396826e+00 1.200000e+01
      vertex -4.539665e+00 5.036298e+00 1.000000e+01
      vertex -4.539665e+00 5.036298e+00 1.200000e+01
    endloop
  endfacet
  facet normal -9.092046e-01 4.163496e-01 -2.549406e-17
    outer loop
      vertex -4.539665e+00 5.036298e+00 1.200000e+01
      vertex -4.539665e+00 5.036298e+00 1.000000e+01
      vertex -4.698248e+00 4.660705e+00 1.000000e+01
    endloop
  endfacet
  facet normal -9.298053e-01 3.680516e-01 -2.253666e-17
    outer loop
      vertex -4.539665e+00 5.036298e+00 1.200000e+01
      vertex -4.698248e+00 4.660705e+00 1.000000e+01
      vertex -4.698248e+00 4.660705e+00 1.200000e+01
    endloop
  endfacet
  facet normal -9.636271e-01 2.672504e-01 -1.636437e-17
    outer loop
      vertex -4.698248e+00 4.660705e+00 1.200000e+01
      vertex -4.698248e+00 4.660705e+00 1.000000e+01
      vertex -4.796156e+00 4.273900e+00 1.000000e+01
    endloop
  endfacet
  facet normal -9.766820e-01 2.146912e-01 -1.314605e-17
    outer loop
      vertex -4.698248e+00 4.660705e+00 1.200000e+01
      vertex -4.796156e+00 4.273900e+00 1.000000e+01
      vertex -4.796156e+00 4.273900e+00 1.200000e+01
    endloop
  endfacet
  facet normal -9.930306e-01 1.178565e-01 -7.216630e-18
    outer loop
      vertex -4.796156e+00 4.273900e+00 1.200000e+01
      vertex -4.796156e+00 4.273900e+00 1.000000e+01
      vertex -4.833406e+00 3.795185e+00 1.000000e+01
    endloop
  endfacet
  facet normal -9.972777e-01 7.373717e-02 -4.515100e-18
    outer loop
      vertex -4.796156e+00 4.273900e+00 1.200000e+01
      vertex -4.833406e+00 3.795185e+00 1.000000e+01
      vertex -4.833406e+00 3.795185e+00 1.200000e+01
    endloop
  endfacet
  facet normal -1.000000e+00 0.000000e+00 0.000000e+00
    outer loop
      vertex -4.833406e+00 -3.311074e+00 1.200000e+01
      vertex -4.833406e+00 3.795185e+00 1.200000e+01
      vertex -4.833406e+00 -3.311074e+00 1.000000e+01
    endloop
  endfacet
  facet normal -1.000000e+00 0.000000e+00 0.000000e+00
    outer loop
      vertex -4.833406e+00 -3.311074e+00 1.000000e+01
      vertex -4.833406e+00 3.795185e+00 1.200000e+01
      vertex -4.833406e+00 3.795185e+00 1.000000e+01
    endloop
  endfacet
  facet normal 0.000000e+00 6.123234e-17 1.000000e+00
    outer loop
      vertex -2.725642e+00 -5.812096e+00 1.200000e+01
      vertex -2.277235e+00 -5.833406e+00 1.200000e+01
      vertex -2.334501e+00 -3.501097e+00 1.200000e+01
    endloop
  endfacet
  facet normal 0.000000e+00 6.123234e-17 1.000000e+00
    outer loop
      vertex -3.581010e+00 -5.605446e+00 1.200000e+01
      vertex -3.202028e+00 -5.731504e+00 1.200000e+01
      vertex -3.867124e+00 -5.459446e+00 1.200000e+01
    endloop
  endfacet
  facet normal 0.000000e+00 6.123234e-17 1.000000e+00
    outer loop
      vertex -3.867124e+00 -5.459446e+00 1.200000e+01
      vertex -3.202028e+00 -5.731504e+00 1.200000e+01
      vertex -4.093533e+00 -5.295301e+00 1.200000e+01
    endloop
  endfacet
  facet normal 0.000000e+00 6.123234e-17 1.000000e+00
    outer loop
      vertex -2.334501e+00 -3.501097e+00 1.200000e+01
      vertex -2.277235e+00 -5.833406e+00 1.200000e+01
      vertex 3.196928e+00 -3.501097e+00 1.200000e+01
    endloop
  endfacet
  facet normal 0.000000e+00 6.123234e-17 1.000000e+00
    outer loop
      vertex 3.800961e+00 -5.745750e+00 1.200000e+01
      vertex 4.019484e+00 -5.653797e+00 1.200000e+01
      vertex 4.086653e+00 -5.601563e+00 1.200000e+01
    endloop
  endfacet
  facet normal 0.000000e+00 6.123234e-17 1.000000e+00
    outer loop
      vertex -4.698248e+00 4.660705e+00 1.200000e+01
      vertex -4.796156e+00 4.273900e+00 1.200000e+01
      vertex -4.833406e+00 3.795185e+00 1.200000e+01
    endloop
  endfacet
  facet normal 0.000000e+00 6.123234e-17 1.000000e+00
    outer loop
      vertex -2.861601e+00 6.389909e+00 1.200000e+01
      vertex -3.220166e+00 6.259704e+00 1.200000e+01
      vertex -2.385528e+00 6.477760e+00 1.200000e+01
    endloop
  endfacet
  facet normal 0.000000e+00 6.123234e-17 1.000000e+00
    outer loop
      vertex -2.385528e+00 6.477760e+00 1.200000e+01
      vertex -3.220166e+00 6.259704e+00 1.200000e+01
      vertex -3.618575e+00 6.040459e+00 1.200000e+01
    endloop
  endfacet
  facet normal 0.000000e+00 6.123234e-17 1.000000e+00
    outer loop
      vertex -2.385528e+00 6.477760e+00 1.200000e+01
      vertex -3.618575e+00 6.040459e+00 1.200000e+01
      vertex -2.061183e+00 6.494524e+00 1.200000e+01
    endloop
  endfacet
  facet normal 0.000000e+00 6.123234e-17 1.000000e+00
    outer loop
      vertex -2.277235e+00 -5.833406e+00 1.200000e+01
      vertex 3.012114e+00 -5.833406e+00 1.200000e+01
      vertex 3.196928e+00 -3.501097e+00 1.200000e+01
    endloop
  endfacet
  facet normal 0.000000e+00 6.123234e-17 1.000000e+00
    outer loop
      vertex 3.196928e+00 -3.501097e+00 1.200000e+01
      vertex 3.012114e+00 -5.833406e+00 1.200000e+01
      vertex 3.079143e+00 -5.832520e+00 1.200000e+01
    endloop
  endfacet
  facet normal 0.000000e+00 6.123234e-17 1.000000e+00
    outer loop
      vertex 3.196928e+00 -3.501097e+00 1.200000e+01
      vertex 3.079143e+00 -5.832520e+00 1.200000e+01
      vertex 3.544706e+00 -5.800272e+00 1.200000e+01
    endloop
  endfacet
  facet normal 0.000000e+00 6.123234e-17 1.000000e+00
    outer loop
      vertex -4.833406e+00 -3.311074e+00 1.200000e+01
      vertex -4.821791e+00 -3.635527e+00 1.200000e+01
      vertex -2.334501e+00 -3.501097e+00 1.200000e+01
    endloop
  endfacet
  facet normal 0.000000e+00 6.123234e-17 1.000000e+00
    outer loop
      vertex -2.334501e+00 -3.501097e+00 1.200000e+01
      vertex -4.821791e+00 -3.635527e+00 1.200000e+01
      vertex -4.747379e+00 -4.145382e+00 1.200000e+01
    endloop
  endfacet
  facet normal 0.000000e+00 6.123234e-17 1.000000e+00
    outer loop
      vertex -3.952150e+00 5.778416e+00 1.200000e+01
      vertex -4.033684e+00 5.701480e+00 1.200000e+01
      vertex -2.334501e+00 3.995619e+00 1.200000e+01
    endloop
  endfacet
  facet normal 0.000000e+00 6.123234e-17 1.000000e+00
    outer loop
      vertex -2.334501e+00 3.995619e+00 1.200000e+01
      vertex -4.033684e+00 5.701480e+00 1.200000e+01
      vertex -4.306457e+00 5.396826e+00 1.200000e+01
    endloop
  endfacet
  facet normal 0.000000e+00 6.123234e-17 1.000000e+00
    outer loop
      vertex -3.202028e+00 -5.731504e+00 1.200000e+01
      vertex -2.725642e+00 -5.812096e+00 1.200000e+01
      vertex -4.093533e+00 -5.295301e+00 1.200000e+01
    endloop
  endfacet
  facet normal 0.000000e+00 6.123234e-17 1.000000e+00
    outer loop
      vertex -4.093533e+00 -5.295301e+00 1.200000e+01
      vertex -2.725642e+00 -5.812096e+00 1.200000e+01
      vertex -2.334501e+00 -3.501097e+00 1.200000e+01
    endloop
  endfacet
  facet normal 0.000000e+00 6.123234e-17 1.000000e+00
    outer loop
      vertex -4.093533e+00 -5.295301e+00 1.200000e+01
      vertex -2.334501e+00 -3.501097e+00 1.200000e+01
      vertex -4.308543e+00 -5.077894e+00 1.200000e+01
    endloop
  endfacet
  facet normal 0.000000e+00 6.123234e-17 1.000000e+00
    outer loop
      vertex -4.308543e+00 -5.077894e+00 1.200000e+01
      vertex -2.334501e+00 -3.501097e+00 1.200000e+01
      vertex -4.747379e+00 -4.145382e+00 1.200000e+01
    endloop
  endfacet
  facet normal 0.000000e+00 6.123234e-17 1.000000e+00
    outer loop
      vertex -4.308543e+00 -5.077894e+00 1.200000e+01
      vertex -4.747379e+00 -4.145382e+00 1.200000e+01
      vertex -4.485869e+00 -4.827360e+00 1.200000e+01
    endloop
  endfacet
  facet normal 0.000000e+00 6.123234e-17 1.000000e+00
    outer loop
      vertex -4.485869e+00 -4.827360e+00 1.200000e+01
      vertex -4.747379e+00 -4.145382e+00 1.200000e+01
      vertex -4.645494e+00 -4.495895e+00 1.200000e+01
    endloop
  endfacet
  facet normal 0.000000e+00 6.123234e-17 1.000000e+00
    outer loop
      vertex -3.618575e+00 6.040459e+00 1.200000e+01
      vertex -3.952150e+00 5.778416e+00 1.200000e+01
      vertex -2.061183e+00 6.494524e+00 1.200000e+01
    endloop
  endfacet
  facet normal 0.000000e+00 6.123234e-17 1.000000e+00
    outer loop
      vertex -2.061183e+00 6.494524e+00 1.200000e+01
      vertex -3.952150e+00 5.778416e+00 1.200000e+01
      vertex -2.334501e+00 3.995619e+00 1.200000e+01
    endloop
  endfacet
  facet normal 0.000000e+00 6.123234e-17 1.000000e+00
    outer loop
      vertex -2.061183e+00 6.494524e+00 1.200000e+01
      vertex -2.334501e+00 3.995619e+00 1.200000e+01
      vertex 3.209944e+00 6.494524e+00 1.200000e+01
    endloop
  endfacet
  facet normal 0.000000e+00 6.123234e-17 1.000000e+00
    outer loop
      vertex 3.209944e+00 6.494524e+00 1.200000e+01
      vertex -2.334501e+00 3.995619e+00 1.200000e+01
      vertex 3.215148e+00 3.995619e+00 1.200000e+01
    endloop
  endfacet
  facet normal 0.000000e+00 6.123234e-17 1.000000e+00
    outer loop
      vertex 3.209944e+00 6.494524e+00 1.200000e+01
      vertex 3.215148e+00 3.995619e+00 1.200000e+01
      vertex 3.457250e+00 4.013988e+00 1.200000e+01
    endloop
  endfacet
  facet normal 0.000000e+00 6.123234e-17 1.000000e+00
    outer loop
      vertex 3.544706e+00 -5.800272e+00 1.200000e+01
      vertex 3.800961e+00 -5.745750e+00 1.200000e+01
      vertex 3.196928e+00 -3.501097e+00 1.200000e+01
    endloop
  endfacet
  facet normal 0.000000e+00 6.123234e-17 1.000000e+00
    outer loop
      vertex 3.196928e+00 -3.501097e+00 1.200000e+01
      vertex 3.800961e+00 -5.745750e+00 1.200000e+01
      vertex 4.086653e+00 -5.601563e+00 1.200000e+01
    endloop
  endfacet
  facet normal 0.000000e+00 6.123234e-17 1.000000e+00
    outer loop
      vertex 3.196928e+00 -3.501097e+00 1.200000e+01
      vertex 4.086653e+00 -5.601563e+00 1.200000e+01
      vertex 3.421057e+00 -3.512304e+00 1.200000e+01
    endloop
  endfacet
  facet normal 0.000000e+00 6.123234e-17 1.000000e+00
    outer loop
      vertex 3.421057e+00 -3.512304e+00 1.200000e+01
      vertex 4.086653e+00 -5.601563e+00 1.200000e+01
      vertex 4.180542e+00 -5.515314e+00 1.200000e+01
    endloop
  endfacet
  facet normal 0.000000e+00 6.123234e-17 1.000000e+00
    outer loop
      vertex 3.421057e+00 -3.512304e+00 1.200000e+01
      vertex 4.180542e+00 -5.515314e+00 1.200000e+01
      vertex 3.636238e+00 -3.548874e+00 1.200000e+01
    endloop
  endfacet
  facet normal 0.000000e+00 6.123234e-17 1.000000e+00
    outer loop
      vertex 3.636238e+00 -3.548874e+00 1.200000e+01
      vertex 4.180542e+00 -5.515314e+00 1.200000e+01
      vertex 4.238565e+00 -5.440258e+00 1.200000e+01
    endloop
  endfacet
  facet normal 0.000000e+00 6.123234e-17 1.000000e+00
    outer loop
      vertex 3.636238e+00 -3.548874e+00 1.200000e+01
      vertex 4.238565e+00 -5.440258e+00 1.200000e+01
      vertex 3.818865e+00 -3.609968e+00 1.200000e+01
    endloop
  endfacet
  facet normal 0.000000e+00 6.123234e-17 1.000000e+00
    outer loop
      vertex 3.818865e+00 -3.609968e+00 1.200000e+01
      vertex 4.238565e+00 -5.440258e+00 1.200000e+01
      vertex 4.292028e+00 -5.344074e+00 1.200000e+01
    endloop
  endfacet
  facet normal 0.000000e+00 6.123234e-17 1.000000e+00
    outer loop
      vertex 3.818865e+00 -3.609968e+00 1.200000e+01
      vertex 4.292028e+00 -5.344074e+00 1.200000e+01
      vertex 3.954365e+00 -3.679728e+00 1.200000e+01
    endloop
  endfacet
  facet normal 0.000000e+00 6.123234e-17 1.000000e+00
    outer loop
      vertex 3.954365e+00 -3.679728e+00 1.200000e+01
      vertex 4.292028e+00 -5.344074e+00 1.200000e+01
      vertex 4.361923e+00 -5.159105e+00 1.200000e+01
    endloop
  endfacet
  facet normal 0.000000e+00 6.123234e-17 1.000000e+00
    outer loop
      vertex 3.954365e+00 -3.679728e+00 1.200000e+01
      vertex 4.361923e+00 -5.159105e+00 1.200000e+01
      vertex 4.064568e+00 -3.760313e+00 1.200000e+01
    endloop
  endfacet
  facet normal 0.000000e+00 6.123234e-17 1.000000e+00
    outer loop
      vertex 4.064568e+00 -3.760313e+00 1.200000e+01
      vertex 4.361923e+00 -5.159105e+00 1.200000e+01
      vertex 4.399452e+00 -4.976089e+00 1.200000e+01
    endloop
  endfacet
  facet normal 0.000000e+00 6.123234e-17 1.000000e+00
    outer loop
      vertex 4.064568e+00 -3.760313e+00 1.200000e+01
      vertex 4.399452e+00 -4.976089e+00 1.200000e+01
      vertex 4.150530e+00 -3.846100e+00 1.200000e+01
    endloop
  endfacet
  facet normal 0.000000e+00 6.123234e-17 1.000000e+00
    outer loop
      vertex 4.150530e+00 -3.846100e+00 1.200000e+01
      vertex 4.399452e+00 -4.976089e+00 1.200000e+01
      vertex 4.415144e+00 -4.711502e+00 1.200000e+01
    endloop
  endfacet
  facet normal 0.000000e+00 6.123234e-17 1.000000e+00
    outer loop
      vertex 4.150530e+00 -3.846100e+00 1.200000e+01
      vertex 4.415144e+00 -4.711502e+00 1.200000e+01
      vertex 4.231476e+00 -3.955603e+00 1.200000e+01
    endloop
  endfacet
  facet normal 0.000000e+00 6.123234e-17 1.000000e+00
    outer loop
      vertex 4.231476e+00 -3.955603e+00 1.200000e+01
      vertex 4.415144e+00 -4.711502e+00 1.200000e+01
      vertex 4.398777e+00 -4.442142e+00 1.200000e+01
    endloop
  endfacet
  facet normal 0.000000e+00 6.123234e-17 1.000000e+00
    outer loop
      vertex 4.231476e+00 -3.955603e+00 1.200000e+01
      vertex 4.398777e+00 -4.442142e+00 1.200000e+01
      vertex 4.302814e+00 -4.089310e+00 1.200000e+01
    endloop
  endfacet
  facet normal 0.000000e+00 6.123234e-17 1.000000e+00
    outer loop
      vertex 4.302814e+00 -4.089310e+00 1.200000e+01
      vertex 4.398777e+00 -4.442142e+00 1.200000e+01
      vertex 4.361052e+00 -4.252045e+00 1.200000e+01
    endloop
  endfacet
  facet normal 0.000000e+00 6.123234e-17 1.000000e+00
    outer loop
      vertex -4.833406e+00 -3.311074e+00 1.200000e+01
      vertex -2.334501e+00 -3.501097e+00 1.200000e+01
      vertex -4.833406e+00 3.795185e+00 1.200000e+01
    endloop
  endfacet
  facet normal 0.000000e+00 6.123234e-17 1.000000e+00
    outer loop
      vertex -4.833406e+00 3.795185e+00 1.200000e+01
      vertex -2.334501e+00 -3.501097e+00 1.200000e+01
      vertex -2.334501e+00 3.995619e+00 1.200000e+01
    endloop
  endfacet
  facet normal 0.000000e+00 6.123234e-17 1.000000e+00
    outer loop
      vertex -4.833406e+00 3.795185e+00 1.200000e+01
      vertex -2.334501e+00 3.995619e+00 1.200000e+01
      vertex -4.698248e+00 4.660705e+00 1.200000e+01
    endloop
  endfacet
  facet normal 0.000000e+00 6.123234e-17 1.000000e+00
    outer loop
      vertex -4.698248e+00 4.660705e+00 1.200000e+01
      vertex -2.334501e+00 3.995619e+00 1.200000e+01
      vertex -4.306457e+00 5.396826e+00 1.200000e+01
    endloop
  endfacet
  facet normal 0.000000e+00 6.123234e-17 1.000000e+00
    outer loop
      vertex -4.698248e+00 4.660705e+00 1.200000e+01
      vertex -4.306457e+00 5.396826e+00 1.200000e+01
      vertex -4.539665e+00 5.036298e+00 1.200000e+01
    endloop
  endfacet
  facet normal 0.000000e+00 6.123234e-17 1.000000e+00
    outer loop
      vertex 4.063135e+00 6.169596e+00 1.200000e+01
      vertex 4.417665e+00 5.007493e+00 1.200000e+01
      vertex 4.433365e+00 5.234659e+00 1.200000e+01
    endloop
  endfacet
  facet normal 0.000000e+00 6.123234e-17 1.000000e+00
    outer loop
      vertex 3.959055e+00 4.222095e+00 1.200000e+01
      vertex 4.099182e+00 4.343527e+00 1.200000e+01
      vertex 3.800594e+00 4.124916e+00 1.200000e+01
    endloop
  endfacet
  facet normal 0.000000e+00 6.123234e-17 1.000000e+00
    outer loop
      vertex 3.800594e+00 4.124916e+00 1.200000e+01
      vertex 4.099182e+00 4.343527e+00 1.200000e+01
      vertex 4.210098e+00 4.476166e+00 1.200000e+01
    endloop
  endfacet
  facet normal 0.000000e+00 6.123234e-17 1.000000e+00
    outer loop
      vertex 3.800594e+00 4.124916e+00 1.200000e+01
      vertex 4.210098e+00 4.476166e+00 1.200000e+01
      vertex 3.624947e+00 4.053066e+00 1.200000e+01
    endloop
  endfacet
  facet normal 0.000000e+00 6.123234e-17 1.000000e+00
    outer loop
      vertex 3.624947e+00 4.053066e+00 1.200000e+01
      vertex 4.210098e+00 4.476166e+00 1.200000e+01
      vertex 4.311316e+00 4.648401e+00 1.200000e+01
    endloop
  endfacet
  facet normal 0.000000e+00 6.123234e-17 1.000000e+00
    outer loop
      vertex 3.624947e+00 4.053066e+00 1.200000e+01
      vertex 4.311316e+00 4.648401e+00 1.200000e+01
      vertex 3.457250e+00 4.013988e+00 1.200000e+01
    endloop
  endfacet
  facet normal 0.000000e+00 6.123234e-17 1.000000e+00
    outer loop
      vertex 3.457250e+00 4.013988e+00 1.200000e+01
      vertex 4.311316e+00 4.648401e+00 1.200000e+01
      vertex 4.380093e+00 4.828276e+00 1.200000e+01
    endloop
  endfacet
  facet normal 0.000000e+00 6.123234e-17 1.000000e+00
    outer loop
      vertex 3.457250e+00 4.013988e+00 1.200000e+01
      vertex 4.380093e+00 4.828276e+00 1.200000e+01
      vertex 3.209944e+00 6.494524e+00 1.200000e+01
    endloop
  endfacet
  facet normal 0.000000e+00 6.123234e-17 1.000000e+00
    outer loop
      vertex 3.209944e+00 6.494524e+00 1.200000e+01
      vertex 4.380093e+00 4.828276e+00 1.200000e+01
      vertex 4.417665e+00 5.007493e+00 1.200000e+01
    endloop
  endfacet
  facet normal 0.000000e+00 6.123234e-17 1.000000e+00
    outer loop
      vertex 3.209944e+00 6.494524e+00 1.200000e+01
      vertex 4.417665e+00 5.007493e+00 1.200000e+01
      vertex 3.431109e+00 6.479304e+00 1.200000e+01
    endloop
  endfacet
  facet normal 0.000000e+00 6.123234e-17 1.000000e+00
    outer loop
      vertex 3.431109e+00 6.479304e+00 1.200000e+01
      vertex 4.417665e+00 5.007493e+00 1.200000e+01
      vertex 4.063135e+00 6.169596e+00 1.200000e+01
    endloop
  endfacet
  facet normal 0.000000e+00 6.123234e-17 1.000000e+00
    outer loop
      vertex 3.431109e+00 6.479304e+00 1.200000e+01
      vertex 4.063135e+00 6.169596e+00 1.200000e+01
      vertex 3.592085e+00 6.444046e+00 1.200000e+01
    endloop
  endfacet
  facet normal 0.000000e+00 6.123234e-17 1.000000e+00
    outer loop
      vertex 3.592085e+00 6.444046e+00 1.200000e+01
      vertex 4.063135e+00 6.169596e+00 1.200000e+01
      vertex 3.928034e+00 6.282545e+00 1.200000e+01
    endloop
  endfacet
  facet normal 0.000000e+00 6.123234e-17 1.000000e+00
    outer loop
      vertex 3.592085e+00 6.444046e+00 1.200000e+01
      vertex 3.928034e+00 6.282545e+00 1.200000e+01
      vertex 3.784826e+00 6.367627e+00 1.200000e+01
    endloop
  endfacet
  facet normal 0.000000e+00 6.123234e-17 1.000000e+00
    outer loop
      vertex 4.282953e+00 5.883256e+00 1.200000e+01
      vertex 4.193291e+00 6.023695e+00 1.200000e+01
      vertex 4.364483e+00 5.692044e+00 1.200000e+01
    endloop
  endfacet
  facet normal 0.000000e+00 6.123234e-17 1.000000e+00
    outer loop
      vertex 4.364483e+00 5.692044e+00 1.200000e+01
      vertex 4.193291e+00 6.023695e+00 1.200000e+01
      vertex 4.063135e+00 6.169596e+00 1.200000e+01
    endloop
  endfacet
  facet normal 0.000000e+00 6.123234e-17 1.000000e+00
    outer loop
      vertex 4.364483e+00 5.692044e+00 1.200000e+01
      vertex 4.063135e+00 6.169596e+00 1.200000e+01
      vertex 4.410892e+00 5.510084e+00 1.200000e+01
    endloop
  endfacet
  facet normal 0.000000e+00 6.123234e-17 1.000000e+00
    outer loop
      vertex 4.410892e+00 5.510084e+00 1.200000e+01
      vertex 4.063135e+00 6.169596e+00 1.200000e+01
      vertex 4.433365e+00 5.234659e+00 1.200000e+01
    endloop
  endfacet
endsolid Default
