solid Default
  facet normal -1.000000e+00 4.857226e-16 -2.974193e-32
    outer loop
      vertex -1.250000e+01 -1.250000e+01 1.000000e+01
      vertex -1.250000e+01 1.250000e+01 1.000000e+01
      vertex -1.250000e+01 -1.250000e+01 1.530808e-15
    endloop
  endfacet
  facet normal -1.000000e+00 4.857226e-16 -2.974193e-32
    outer loop
      vertex -1.250000e+01 -1.250000e+01 1.530808e-15
      vertex -1.250000e+01 1.250000e+01 1.000000e+01
      vertex -1.250000e+01 1.250000e+01 0.000000e+00
    endloop
  endfacet
  facet normal 2.775558e-16 -1.000000e+00 6.123234e-17
    outer loop
      vertex 1.250000e+01 -1.250000e+01 1.000000e+01
      vertex -1.250000e+01 -1.250000e+01 1.000000e+01
      vertex 1.250000e+01 -1.250000e+01 1.530808e-15
    endloop
  endfacet
  facet normal 2.775558e-16 -1.000000e+00 6.123234e-17
    outer loop
      vertex 1.250000e+01 -1.250000e+01 1.530808e-15
      vertex -1.250000e+01 -1.250000e+01 1.000000e+01
      vertex -1.250000e+01 -1.250000e+01 1.530808e-15
    endloop
  endfacet
  facet normal 1.000000e+00 2.081668e-16 -1.274654e-32
    outer loop
      vertex 1.250000e+01 1.250000e+01 1.000000e+01
      vertex 1.250000e+01 -1.250000e+01 1.000000e+01
      vertex 1.250000e+01 1.250000e+01 0.000000e+00
    endloop
  endfacet
  facet normal 1.000000e+00 2.081668e-16 -1.274654e-32
    outer loop
      vertex 1.250000e+01 1.250000e+01 0.000000e+00
      vertex 1.250000e+01 -1.250000e+01 1.000000e+01
      vertex 1.250000e+01 -1.250000e+01 1.530808e-15
    endloop
  endfacet
  facet normal -1.387779e-16 1.000000e+00 -6.123234e-17
    outer loop
      vertex -1.250000e+01 1.250000e+01 1.000000e+01
      vertex 1.250000e+01 1.250000e+01 1.000000e+01
      vertex -1.250000e+01 1.250000e+01 0.000000e+00
    endloop
  endfacet
  facet normal -1.387779e-16 1.000000e+00 -6.123234e-17
    outer loop
      vertex -1.250000e+01 1.250000e+01 0.000000e+00
      vertex 1.250000e+01 1.250000e+01 1.000000e+01
      vertex 1.250000e+01 1.250000e+01 0.000000e+00
    endloop
  endfacet
  facet normal 0.000000e+00 6.123234e-17 1.000000e+00
    outer loop
      vertex -4.504986e-01 -5.758556e+00 1.000000e+01
      vertex -6.912289e-01 -5.662771e+00 1.000000e+01
      vertex -1.250000e+01 -1.250000e+01 1.000000e+01
    endloop
  endfacet
  facet normal 0.000000e+00 6.123234e-17 1.000000e+00
    outer loop
      vertex -1.316835e+00 5.514338e+00 1.000000e+01
      vertex -1.283306e+00 5.671891e+00 1.000000e+01
      vertex -1.250000e+01 1.250000e+01 1.000000e+01
    endloop
  endfacet
  facet normal 0.000000e+00 6.123234e-17 1.000000e+00
    outer loop
      vertex -1.250000e+01 1.250000e+01 1.000000e+01
      vertex -1.283306e+00 5.671891e+00 1.000000e+01
      vertex -1.220213e+00 5.831501e+00 1.000000e+01
    endloop
  endfacet
  facet normal 0.000000e+00 6.123234e-17 1.000000e+00
    outer loop
      vertex -1.250000e+01 1.250000e+01 1.000000e+01
      vertex -1.220213e+00 5.831501e+00 1.000000e+01
      vertex -1.134819e+00 5.971220e+00 1.000000e+01
    endloop
  endfacet
  facet normal 0.000000e+00 6.123234e-17 1.000000e+00
    outer loop
      vertex 1.481873e+00 -4.837736e+00 1.000000e+01
      vertex 1.448439e+00 -4.991426e+00 1.000000e+01
      vertex 1.250000e+01 -1.250000e+01 1.000000e+01
    endloop
  endfacet
  facet normal 0.000000e+00 6.123234e-17 1.000000e+00
    outer loop
      vertex 1.250000e+01 -1.250000e+01 1.000000e+01
      vertex 1.448439e+00 -4.991426e+00 1.000000e+01
      vertex 1.386916e+00 -5.146320e+00 1.000000e+01
    endloop
  endfacet
  facet normal 0.000000e+00 6.123234e-17 1.000000e+00
    outer loop
      vertex 1.250000e+01 -1.250000e+01 1.000000e+01
      vertex 1.386916e+00 -5.146320e+00 1.000000e+01
      vertex 1.301295e+00 -5.287914e+00 1.000000e+01
    endloop
  endfacet
  facet normal 0.000000e+00 6.123234e-17 1.000000e+00
    outer loop
      vertex 1.250000e+01 1.250000e+01 1.000000e+01
      vertex 1.053568e+00 6.210793e+00 1.000000e+01
      vertex 1.202698e+00 6.078111e+00 1.000000e+01
    endloop
  endfacet
  facet normal 0.000000e+00 6.123234e-17 1.000000e+00
    outer loop
      vertex 1.250000e+01 -1.250000e+01 1.000000e+01
      vertex 7.483101e-02 -5.833406e+00 1.000000e+01
      vertex -1.250000e+01 -1.250000e+01 1.000000e+01
    endloop
  endfacet
  facet normal 0.000000e+00 6.123234e-17 1.000000e+00
    outer loop
      vertex -1.250000e+01 -1.250000e+01 1.000000e+01
      vertex 7.483101e-02 -5.833406e+00 1.000000e+01
      vertex -2.090836e-01 -5.812557e+00 1.000000e+01
    endloop
  endfacet
  facet normal 0.000000e+00 6.123234e-17 1.000000e+00
    outer loop
      vertex -1.250000e+01 -1.250000e+01 1.000000e+01
      vertex -2.090836e-01 -5.812557e+00 1.000000e+01
      vertex -4.504986e-01 -5.758556e+00 1.000000e+01
    endloop
  endfacet
  facet normal 0.000000e+00 6.123234e-17 1.000000e+00
    outer loop
      vertex 1.301295e+00 -5.287914e+00 1.000000e+01
      vertex 1.193610e+00 -5.413248e+00 1.000000e+01
      vertex 1.250000e+01 -1.250000e+01 1.000000e+01
    endloop
  endfacet
  facet normal 0.000000e+00 6.123234e-17 1.000000e+00
    outer loop
      vertex 1.250000e+01 -1.250000e+01 1.000000e+01
      vertex 1.193610e+00 -5.413248e+00 1.000000e+01
      vertex 1.029878e+00 -5.550375e+00 1.000000e+01
    endloop
  endfacet
  facet normal 0.000000e+00 6.123234e-17 1.000000e+00
    outer loop
      vertex 1.250000e+01 -1.250000e+01 1.000000e+01
      vertex 1.029878e+00 -5.550375e+00 1.000000e+01
      vertex 8.429089e-01 -5.662952e+00 1.000000e+01
    endloop
  endfacet
  facet normal 0.000000e+00 6.123234e-17 1.000000e+00
    outer loop
      vertex 8.429089e-01 -5.662952e+00 1.000000e+01
      vertex 6.304512e-01 -5.748999e+00 1.000000e+01
      vertex 1.250000e+01 -1.250000e+01 1.000000e+01
    endloop
  endfacet
  facet normal 0.000000e+00 6.123234e-17 1.000000e+00
    outer loop
      vertex 1.250000e+01 -1.250000e+01 1.000000e+01
      vertex 6.304512e-01 -5.748999e+00 1.000000e+01
      vertex 3.823128e-01 -5.809050e+00 1.000000e+01
    endloop
  endfacet
  facet normal 0.000000e+00 6.123234e-17 1.000000e+00
    outer loop
      vertex 1.250000e+01 -1.250000e+01 1.000000e+01
      vertex 3.823128e-01 -5.809050e+00 1.000000e+01
      vertex 7.483101e-02 -5.833406e+00 1.000000e+01
    endloop
  endfacet
  facet normal 0.000000e+00 6.123234e-17 1.000000e+00
    outer loop
      vertex -1.134819e+00 5.971220e+00 1.000000e+01
      vertex -1.030634e+00 6.090315e+00 1.000000e+01
      vertex -1.250000e+01 1.250000e+01 1.000000e+01
    endloop
  endfacet
  facet normal 0.000000e+00 6.123234e-17 1.000000e+00
    outer loop
      vertex -1.250000e+01 1.250000e+01 1.000000e+01
      vertex -1.030634e+00 6.090315e+00 1.000000e+01
      vertex -8.684406e-01 6.223754e+00 1.000000e+01
    endloop
  endfacet
  facet normal 0.000000e+00 6.123234e-17 1.000000e+00
    outer loop
      vertex -1.250000e+01 1.250000e+01 1.000000e+01
      vertex -8.684406e-01 6.223754e+00 1.000000e+01
      vertex -6.831341e-01 6.332799e+00 1.000000e+01
    endloop
  endfacet
  facet normal 0.000000e+00 6.123234e-17 1.000000e+00
    outer loop
      vertex 4.360600e-01 6.464604e+00 1.000000e+01
      vertex 6.573086e-01 6.411128e+00 1.000000e+01
      vertex 1.250000e+01 1.250000e+01 1.000000e+01
    endloop
  endfacet
  facet normal 0.000000e+00 6.123234e-17 1.000000e+00
    outer loop
      vertex 1.250000e+01 1.250000e+01 1.000000e+01
      vertex 6.573086e-01 6.411128e+00 1.000000e+01
      vertex 8.431854e-01 6.336812e+00 1.000000e+01
    endloop
  endfacet
  facet normal 0.000000e+00 6.123234e-17 1.000000e+00
    outer loop
      vertex 1.250000e+01 1.250000e+01 1.000000e+01
      vertex 8.431854e-01 6.336812e+00 1.000000e+01
      vertex 1.053568e+00 6.210793e+00 1.000000e+01
    endloop
  endfacet
  facet normal 0.000000e+00 6.123234e-17 1.000000e+00
    outer loop
      vertex 1.202698e+00 6.078111e+00 1.000000e+01
      vertex 1.295219e+00 5.969692e+00 1.000000e+01
      vertex 1.250000e+01 1.250000e+01 1.000000e+01
    endloop
  endfacet
  facet normal 0.000000e+00 6.123234e-17 1.000000e+00
    outer loop
      vertex 1.250000e+01 1.250000e+01 1.000000e+01
      vertex 1.295219e+00 5.969692e+00 1.000000e+01
      vertex 1.373257e+00 5.842047e+00 1.000000e+01
    endloop
  endfacet
  facet normal 0.000000e+00 6.123234e-17 1.000000e+00
    outer loop
      vertex 1.250000e+01 1.250000e+01 1.000000e+01
      vertex 1.373257e+00 5.842047e+00 1.000000e+01
      vertex 1.439538e+00 5.687017e+00 1.000000e+01
    endloop
  endfacet
  facet normal 0.000000e+00 6.123234e-17 1.000000e+00
    outer loop
      vertex -6.912289e-01 -5.662771e+00 1.000000e+01
      vertex -8.760900e-01 -5.549973e+00 1.000000e+01
      vertex -1.250000e+01 -1.250000e+01 1.000000e+01
    endloop
  endfacet
  facet normal 0.000000e+00 6.123234e-17 1.000000e+00
    outer loop
      vertex -1.250000e+01 -1.250000e+01 1.000000e+01
      vertex -8.760900e-01 -5.549973e+00 1.000000e+01
      vertex -9.791813e-01 -5.468004e+00 1.000000e+01
    endloop
  endfacet
  facet normal 0.000000e+00 6.123234e-17 1.000000e+00
    outer loop
      vertex -1.250000e+01 -1.250000e+01 1.000000e+01
      vertex -9.791813e-01 -5.468004e+00 1.000000e+01
      vertex -1.091372e+00 -5.354548e+00 1.000000e+01
    endloop
  endfacet
  facet normal 0.000000e+00 6.123234e-17 1.000000e+00
    outer loop
      vertex -1.091372e+00 -5.354548e+00 1.000000e+01
      vertex -1.177371e+00 -5.234215e+00 1.000000e+01
      vertex -1.250000e+01 -1.250000e+01 1.000000e+01
    endloop
  endfacet
  facet normal 0.000000e+00 6.123234e-17 1.000000e+00
    outer loop
      vertex -1.250000e+01 -1.250000e+01 1.000000e+01
      vertex -1.177371e+00 -5.234215e+00 1.000000e+01
      vertex -1.246943e+00 -5.095934e+00 1.000000e+01
    endloop
  endfacet
  facet normal 0.000000e+00 6.123234e-17 1.000000e+00
    outer loop
      vertex -1.250000e+01 -1.250000e+01 1.000000e+01
      vertex -1.246943e+00 -5.095934e+00 1.000000e+01
      vertex -1.298917e+00 -4.933922e+00 1.000000e+01
    endloop
  endfacet
  facet normal 0.000000e+00 6.123234e-17 1.000000e+00
    outer loop
      vertex -6.831341e-01 6.332799e+00 1.000000e+01
      vertex -4.781399e-01 6.413596e+00 1.000000e+01
      vertex -1.250000e+01 1.250000e+01 1.000000e+01
    endloop
  endfacet
  facet normal 0.000000e+00 6.123234e-17 1.000000e+00
    outer loop
      vertex -1.250000e+01 1.250000e+01 1.000000e+01
      vertex -4.781399e-01 6.413596e+00 1.000000e+01
      vertex -2.249594e-01 6.474003e+00 1.000000e+01
    endloop
  endfacet
  facet normal 0.000000e+00 6.123234e-17 1.000000e+00
    outer loop
      vertex -1.250000e+01 1.250000e+01 1.000000e+01
      vertex -2.249594e-01 6.474003e+00 1.000000e+01
      vertex 1.250000e+01 1.250000e+01 1.000000e+01
    endloop
  endfacet
  facet normal 0.000000e+00 6.123234e-17 1.000000e+00
    outer loop
      vertex 1.250000e+01 1.250000e+01 1.000000e+01
      vertex -2.249594e-01 6.474003e+00 1.000000e+01
      vertex 7.483101e-02 6.494524e+00 1.000000e+01
    endloop
  endfacet
  facet normal 0.000000e+00 6.123234e-17 1.000000e+00
    outer loop
      vertex 1.250000e+01 1.250000e+01 1.000000e+01
      vertex 7.483101e-02 6.494524e+00 1.000000e+01
      vertex 4.360600e-01 6.464604e+00 1.000000e+01
    endloop
  endfacet
  facet normal 0.000000e+00 6.123234e-17 1.000000e+00
    outer loop
      vertex -1.298917e+00 -4.933922e+00 1.000000e+01
      vertex -1.324511e+00 -4.764650e+00 1.000000e+01
      vertex -1.250000e+01 -1.250000e+01 1.000000e+01
    endloop
  endfacet
  facet normal 0.000000e+00 6.123234e-17 1.000000e+00
    outer loop
      vertex -1.250000e+01 -1.250000e+01 1.000000e+01
      vertex -1.324511e+00 -4.764650e+00 1.000000e+01
      vertex -1.333406e+00 -4.625603e+00 1.000000e+01
    endloop
  endfacet
  facet normal 0.000000e+00 6.123234e-17 1.000000e+00
    outer loop
      vertex -1.250000e+01 -1.250000e+01 1.000000e+01
      vertex -1.333406e+00 -4.625603e+00 1.000000e+01
      vertex -1.250000e+01 1.250000e+01 1.000000e+01
    endloop
  endfacet
  facet normal 0.000000e+00 6.123234e-17 1.000000e+00
    outer loop
      vertex -1.250000e+01 1.250000e+01 1.000000e+01
      vertex -1.333406e+00 -4.625603e+00 1.000000e+01
      vertex -1.333406e+00 5.304940e+00 1.000000e+01
    endloop
  endfacet
  facet normal 0.000000e+00 6.123234e-17 1.000000e+00
    outer loop
      vertex -1.250000e+01 1.250000e+01 1.000000e+01
      vertex -1.333406e+00 5.304940e+00 1.000000e+01
      vertex -1.316835e+00 5.514338e+00 1.000000e+01
    endloop
  endfacet
  facet normal 0.000000e+00 6.123234e-17 1.000000e+00
    outer loop
      vertex 1.439538e+00 5.687017e+00 1.000000e+01
      vertex 1.477244e+00 5.537275e+00 1.000000e+01
      vertex 1.250000e+01 1.250000e+01 1.000000e+01
    endloop
  endfacet
  facet normal 0.000000e+00 6.123234e-17 1.000000e+00
    outer loop
      vertex 1.250000e+01 1.250000e+01 1.000000e+01
      vertex 1.477244e+00 5.537275e+00 1.000000e+01
      vertex 1.498686e+00 5.304940e+00 1.000000e+01
    endloop
  endfacet
  facet normal 0.000000e+00 6.123234e-17 1.000000e+00
    outer loop
      vertex 1.250000e+01 1.250000e+01 1.000000e+01
      vertex 1.498686e+00 5.304940e+00 1.000000e+01
      vertex 1.250000e+01 -1.250000e+01 1.000000e+01
    endloop
  endfacet
  facet normal 0.000000e+00 6.123234e-17 1.000000e+00
    outer loop
      vertex 1.250000e+01 -1.250000e+01 1.000000e+01
      vertex 1.498686e+00 5.304940e+00 1.000000e+01
      vertex 1.498686e+00 -4.625603e+00 1.000000e+01
    endloop
  endfacet
  facet normal 0.000000e+00 6.123234e-17 1.000000e+00
    outer loop
      vertex 1.250000e+01 -1.250000e+01 1.000000e+01
      vertex 1.498686e+00 -4.625603e+00 1.000000e+01
      vertex 1.481873e+00 -4.837736e+00 1.000000e+01
    endloop
  endfacet
  facet normal 0.000000e+00 -6.123234e-17 -1.000000e+00
    outer loop
      vertex 1.250000e+01 1.250000e+01 0.000000e+00
      vertex 1.250000e+01 -1.250000e+01 1.530808e-15
      vertex -1.250000e+01 1.250000e+01 0.000000e+00
    endloop
  endfacet
  facet normal 0.000000e+00 -6.123234e-17 -1.000000e+00
    outer loop
      vertex -1.250000e+01 1.250000e+01 0.000000e+00
      vertex 1.250000e+01 -1.250000e+01 1.530808e-15
      vertex -1.250000e+01 -1.250000e+01 1.530808e-15
    endloop
  endfacet
  facet normal 7.876145e-02 -9.968935e-01 6.104212e-17
    outer loop
      vertex 7.483101e-02 -5.833406e+00 1.200000e+01
      vertex 7.483101e-02 -5.833406e+00 1.000000e+01
      vertex 3.823128e-01 -5.809050e+00 1.000000e+01
    endloop
  endfacet
  facet normal 1.171232e-01 -9.931174e-01 6.081090e-17
    outer loop
      vertex 7.483101e-02 -5.833406e+00 1.200000e+01
      vertex 3.823128e-01 -5.809050e+00 1.000000e+01
      vertex 3.823128e-01 -5.809050e+00 1.200000e+01
    endloop
  endfacet
  facet normal 2.068969e-01 -9.783627e-01 5.990744e-17
    outer loop
      vertex 3.823128e-01 -5.809050e+00 1.200000e+01
      vertex 3.823128e-01 -5.809050e+00 1.000000e+01
      vertex 6.304512e-01 -5.748999e+00 1.000000e+01
    endloop
  endfacet
  facet normal 2.581096e-01 -9.661156e-01 5.915752e-17
    outer loop
      vertex 3.823128e-01 -5.809050e+00 1.200000e+01
      vertex 6.304512e-01 -5.748999e+00 1.000000e+01
      vertex 6.304512e-01 -5.748999e+00 1.200000e+01
    endloop
  endfacet
  facet normal 3.551711e-01 -9.348013e-01 5.724007e-17
    outer loop
      vertex 6.304512e-01 -5.748999e+00 1.200000e+01
      vertex 6.304512e-01 -5.748999e+00 1.000000e+01
      vertex 8.429089e-01 -5.662952e+00 1.000000e+01
    endloop
  endfacet
  facet normal 4.011150e-01 -9.160277e-01 5.609052e-17
    outer loop
      vertex 6.304512e-01 -5.748999e+00 1.200000e+01
      vertex 8.429089e-01 -5.662952e+00 1.000000e+01
      vertex 8.429089e-01 -5.662952e+00 1.200000e+01
    endloop
  endfacet
  facet normal 4.923519e-01 -8.703963e-01 5.329640e-17
    outer loop
      vertex 8.429089e-01 -5.662952e+00 1.200000e+01
      vertex 8.429089e-01 -5.662952e+00 1.000000e+01
      vertex 1.029878e+00 -5.550375e+00 1.000000e+01
    endloop
  endfacet
  facet normal 5.375061e-01 -8.432599e-01 5.163477e-17
    outer loop
      vertex 8.429089e-01 -5.662952e+00 1.200000e+01
      vertex 1.029878e+00 -5.550375e+00 1.000000e+01
      vertex 1.029878e+00 -5.550375e+00 1.200000e+01
    endloop
  endfacet
  facet normal 6.240653e-01 -7.813722e-01 4.784525e-17
    outer loop
      vertex 1.029878e+00 -5.550375e+00 1.200000e+01
      vertex 1.029878e+00 -5.550375e+00 1.000000e+01
      vertex 1.193610e+00 -5.413248e+00 1.000000e+01
    endloop
  endfacet
  facet normal 6.653845e-01 -7.465008e-01 4.570999e-17
    outer loop
      vertex 1.029878e+00 -5.550375e+00 1.200000e+01
      vertex 1.193610e+00 -5.413248e+00 1.000000e+01
      vertex 1.193610e+00 -5.413248e+00 1.200000e+01
    endloop
  endfacet
  facet normal 7.418715e-01 -6.705421e-01 4.105886e-17
    outer loop
      vertex 1.193610e+00 -5.413248e+00 1.200000e+01
      vertex 1.193610e+00 -5.413248e+00 1.000000e+01
      vertex 1.301295e+00 -5.287914e+00 1.000000e+01
    endloop
  endfacet
  facet normal 7.770380e-01 -6.294537e-01 3.854292e-17
    outer loop
      vertex 1.193610e+00 -5.413248e+00 1.200000e+01
      vertex 1.301295e+00 -5.287914e+00 1.000000e+01
      vertex 1.301295e+00 -5.287914e+00 1.200000e+01
    endloop
  endfacet
  facet normal 8.409568e-01 -5.411023e-01 3.313296e-17
    outer loop
      vertex 1.301295e+00 -5.287914e+00 1.200000e+01
      vertex 1.301295e+00 -5.287914e+00 1.000000e+01
      vertex 1.386916e+00 -5.146320e+00 1.000000e+01
    endloop
  endfacet
  facet normal 8.695986e-01 -4.937593e-01 3.023404e-17
    outer loop
      vertex 1.301295e+00 -5.287914e+00 1.200000e+01
      vertex 1.386916e+00 -5.146320e+00 1.000000e+01
      vertex 1.386916e+00 -5.146320e+00 1.200000e+01
    endloop
  endfacet
  facet normal 9.188276e-01 -3.946592e-01 2.416591e-17
    outer loop
      vertex 1.386916e+00 -5.146320e+00 1.200000e+01
      vertex 1.386916e+00 -5.146320e+00 1.000000e+01
      vertex 1.448439e+00 -4.991426e+00 1.000000e+01
    endloop
  endfacet
  facet normal 9.393778e-01 -3.428837e-01 2.099557e-17
    outer loop
      vertex 1.386916e+00 -5.146320e+00 1.200000e+01
      vertex 1.448439e+00 -4.991426e+00 1.000000e+01
      vertex 1.448439e+00 -4.991426e+00 1.200000e+01
    endloop
  endfacet
  facet normal 9.708108e-01 -2.398465e-01 1.468636e-17
    outer loop
      vertex 1.448439e+00 -4.991426e+00 1.200000e+01
      vertex 1.448439e+00 -4.991426e+00 1.000000e+01
      vertex 1.481873e+00 -4.837736e+00 1.000000e+01
    endloop
  endfacet
  facet normal 9.820369e-01 -1.886889e-01 1.155386e-17
    outer loop
      vertex 1.448439e+00 -4.991426e+00 1.200000e+01
      vertex 1.481873e+00 -4.837736e+00 1.000000e+01
      vertex 1.481873e+00 -4.837736e+00 1.200000e+01
    endloop
  endfacet
  facet normal 9.941301e-01 -1.081911e-01 6.624795e-18
    outer loop
      vertex 1.481873e+00 -4.837736e+00 1.200000e+01
      vertex 1.481873e+00 -4.837736e+00 1.000000e+01
      vertex 1.498686e+00 -4.625603e+00 1.000000e+01
    endloop
  endfacet
  facet normal 9.968659e-01 -7.910965e-02 4.844069e-18
    outer loop
      vertex 1.481873e+00 -4.837736e+00 1.200000e+01
      vertex 1.498686e+00 -4.625603e+00 1.000000e+01
      vertex 1.498686e+00 -4.625603e+00 1.200000e+01
    endloop
  endfacet
  facet normal 1.000000e+00 0.000000e+00 0.000000e+00
    outer loop
      vertex 1.498686e+00 5.304940e+00 1.200000e+01
      vertex 1.498686e+00 -4.625603e+00 1.200000e+01
      vertex 1.498686e+00 5.304940e+00 1.000000e+01
    endloop
  endfacet
  facet normal 1.000000e+00 0.000000e+00 0.000000e+00
    outer loop
      vertex 1.498686e+00 5.304940e+00 1.000000e+01
      vertex 1.498686e+00 -4.625603e+00 1.200000e+01
      vertex 1.498686e+00 -4.625603e+00 1.000000e+01
    endloop
  endfacet
  facet normal 9.957514e-01 9.208190e-02 -5.638390e-18
    outer loop
      vertex 1.498686e+00 5.304940e+00 1.200000e+01
      vertex 1.498686e+00 5.304940e+00 1.000000e+01
      vertex 1.477244e+00 5.537275e+00 1.000000e+01
    endloop
  endfacet
  facet normal 9.917002e-01 1.285715e-01 -7.872731e-18
    outer loop
      vertex 1.498686e+00 5.304940e+00 1.200000e+01
      vertex 1.477244e+00 5.537275e+00 1.000000e+01
      vertex 1.477244e+00 5.537275e+00 1.200000e+01
    endloop
  endfacet
  facet normal 9.760832e-01 2.173972e-01 -1.331174e-17
    outer loop
      vertex 1.477244e+00 5.537275e+00 1.200000e+01
      vertex 1.477244e+00 5.537275e+00 1.000000e+01
      vertex 1.439538e+00 5.687017e+00 1.000000e+01
    endloop
  endfacet
  facet normal 9.630058e-01 2.694807e-01 -1.650094e-17
    outer loop
      vertex 1.477244e+00 5.537275e+00 1.200000e+01
      vertex 1.439538e+00 5.687017e+00 1.000000e+01
      vertex 1.439538e+00 5.687017e+00 1.200000e+01
    endloop
  endfacet
  facet normal 9.298214e-01 3.680111e-01 -2.253418e-17
    outer loop
      vertex 1.439538e+00 5.687017e+00 1.200000e+01
      vertex 1.439538e+00 5.687017e+00 1.000000e+01
      vertex 1.373257e+00 5.842047e+00 1.000000e+01
    endloop
  endfacet
  facet normal 9.100212e-01 4.145618e-01 -2.538459e-17
    outer loop
      vertex 1.439538e+00 5.687017e+00 1.200000e+01
      vertex 1.373257e+00 5.842047e+00 1.000000e+01
      vertex 1.373257e+00 5.842047e+00 1.200000e+01
    endloop
  endfacet
  facet normal 8.643693e-01 5.028576e-01 -3.079115e-17
    outer loop
      vertex 1.373257e+00 5.842047e+00 1.200000e+01
      vertex 1.373257e+00 5.842047e+00 1.000000e+01
      vertex 1.295219e+00 5.969692e+00 1.000000e+01
    endloop
  endfacet
  facet normal 8.386497e-01 5.446711e-01 -3.335149e-17
    outer loop
      vertex 1.373257e+00 5.842047e+00 1.200000e+01
      vertex 1.295219e+00 5.969692e+00 1.000000e+01
      vertex 1.295219e+00 5.969692e+00 1.200000e+01
    endloop
  endfacet
  facet normal 7.789143e-01 6.271303e-01 -3.840066e-17
    outer loop
      vertex 1.295219e+00 5.969692e+00 1.200000e+01
      vertex 1.295219e+00 5.969692e+00 1.000000e+01
      vertex 1.202698e+00 6.078111e+00 1.000000e+01
    endloop
  endfacet
  facet normal 7.445730e-01 6.675411e-01 -4.087510e-17
    outer loop
      vertex 1.295219e+00 5.969692e+00 1.200000e+01
      vertex 1.202698e+00 6.078111e+00 1.000000e+01
      vertex 1.202698e+00 6.078111e+00 1.200000e+01
    endloop
  endfacet
  facet normal 6.868502e-01 7.267990e-01 -4.450360e-17
    outer loop
      vertex 1.202698e+00 6.078111e+00 1.200000e+01
      vertex 1.202698e+00 6.078111e+00 1.000000e+01
      vertex 1.053568e+00 6.210793e+00 1.000000e+01
    endloop
  endfacet
  facet normal 6.648255e-01 7.469987e-01 -4.574048e-17
    outer loop
      vertex 1.202698e+00 6.078111e+00 1.200000e+01
      vertex 1.053568e+00 6.210793e+00 1.000000e+01
      vertex 1.053568e+00 6.210793e+00 1.200000e+01
    endloop
  endfacet
  facet normal 5.137774e-01 8.579236e-01 -5.253267e-17
    outer loop
      vertex 1.053568e+00 6.210793e+00 1.200000e+01
      vertex 1.053568e+00 6.210793e+00 1.000000e+01
      vertex 8.431854e-01 6.336812e+00 1.000000e+01
    endloop
  endfacet
  facet normal 4.807231e-01 8.768725e-01 -5.369296e-17
    outer loop
      vertex 1.053568e+00 6.210793e+00 1.200000e+01
      vertex 8.431854e-01 6.336812e+00 1.000000e+01
      vertex 8.431854e-01 6.336812e+00 1.200000e+01
    endloop
  endfacet
  facet normal 3.996173e-01 9.166821e-01 -5.613059e-17
    outer loop
      vertex 8.431854e-01 6.336812e+00 1.200000e+01
      vertex 8.431854e-01 6.336812e+00 1.000000e+01
      vertex 6.573086e-01 6.411128e+00 1.000000e+01
    endloop
  endfacet
  facet normal 3.509852e-01 9.363810e-01 -5.733680e-17
    outer loop
      vertex 8.431854e-01 6.336812e+00 1.200000e+01
      vertex 6.573086e-01 6.411128e+00 1.000000e+01
      vertex 6.573086e-01 6.411128e+00 1.200000e+01
    endloop
  endfacet
  facet normal 2.576729e-01 9.662322e-01 -5.916466e-17
    outer loop
      vertex 6.573086e-01 6.411128e+00 1.200000e+01
      vertex 6.573086e-01 6.411128e+00 1.000000e+01
      vertex 4.360600e-01 6.464604e+00 1.000000e+01
    endloop
  endfacet
  facet normal 2.131905e-01 9.770107e-01 -5.982465e-17
    outer loop
      vertex 6.573086e-01 6.411128e+00 1.200000e+01
      vertex 4.360600e-01 6.464604e+00 1.000000e+01
      vertex 4.360600e-01 6.464604e+00 1.200000e+01
    endloop
  endfacet
  facet normal 1.247240e-01 9.921915e-01 -6.075421e-17
    outer loop
      vertex 4.360600e-01 6.464604e+00 1.200000e+01
      vertex 4.360600e-01 6.464604e+00 1.000000e+01
      vertex 7.483101e-02 6.494524e+00 1.000000e+01
    endloop
  endfacet
  facet normal 8.076361e-02 9.967332e-01 -6.103231e-17
    outer loop
      vertex 4.360600e-01 6.464604e+00 1.200000e+01
      vertex 7.483101e-02 6.494524e+00 1.000000e+01
      vertex 7.483101e-02 6.494524e+00 1.200000e+01
    endloop
  endfacet
  facet normal -6.823039e-02 9.976696e-01 -6.108964e-17
    outer loop
      vertex 7.483101e-02 6.494524e+00 1.200000e+01
      vertex 7.483101e-02 6.494524e+00 1.000000e+01
      vertex -2.249594e-01 6.474003e+00 1.000000e+01
    endloop
  endfacet
  facet normal -1.080730e-01 9.941429e-01 -6.087370e-17
    outer loop
      vertex 7.483101e-02 6.494524e+00 1.200000e+01
      vertex -2.249594e-01 6.474003e+00 1.000000e+01
      vertex -2.249594e-01 6.474003e+00 1.200000e+01
    endloop
  endfacet
  facet normal -2.006348e-01 9.796661e-01 -5.998725e-17
    outer loop
      vertex -2.249594e-01 6.474003e+00 1.200000e+01
      vertex -2.249594e-01 6.474003e+00 1.000000e+01
      vertex -4.781399e-01 6.413596e+00 1.000000e+01
    endloop
  endfacet
  facet normal -2.531612e-01 9.674241e-01 -5.923764e-17
    outer loop
      vertex -2.249594e-01 6.474003e+00 1.200000e+01
      vertex -4.781399e-01 6.413596e+00 1.000000e+01
      vertex -4.781399e-01 6.413596e+00 1.200000e+01
    endloop
  endfacet
  facet normal -3.488961e-01 9.371615e-01 -5.738459e-17
    outer loop
      vertex -4.781399e-01 6.413596e+00 1.200000e+01
      vertex -4.781399e-01 6.413596e+00 1.000000e+01
      vertex -6.831341e-01 6.332799e+00 1.000000e+01
    endloop
  endfacet
  facet normal -3.923241e-01 9.198270e-01 -5.632316e-17
    outer loop
      vertex -4.781399e-01 6.413596e+00 1.200000e+01
      vertex -6.831341e-01 6.332799e+00 1.000000e+01
      vertex -6.831341e-01 6.332799e+00 1.200000e+01
    endloop
  endfacet
  facet normal -4.826652e-01 8.758050e-01 -5.362759e-17
    outer loop
      vertex -6.831341e-01 6.332799e+00 1.200000e+01
      vertex -6.831341e-01 6.332799e+00 1.000000e+01
      vertex -8.684406e-01 6.223754e+00 1.000000e+01
    endloop
  endfacet
  facet normal -5.292604e-01 8.484595e-01 -5.195316e-17
    outer loop
      vertex -6.831341e-01 6.332799e+00 1.200000e+01
      vertex -8.684406e-01 6.223754e+00 1.000000e+01
      vertex -8.684406e-01 6.223754e+00 1.200000e+01
    endloop
  endfacet
  facet normal -6.173695e-01 7.866733e-01 -4.816985e-17
    outer loop
      vertex -8.684406e-01 6.223754e+00 1.200000e+01
      vertex -8.684406e-01 6.223754e+00 1.000000e+01
      vertex -1.030634e+00 6.090315e+00 1.000000e+01
    endloop
  endfacet
  facet normal -6.588888e-01 7.522404e-01 -4.606144e-17
    outer loop
      vertex -8.684406e-01 6.223754e+00 1.200000e+01
      vertex -1.030634e+00 6.090315e+00 1.000000e+01
      vertex -1.030634e+00 6.090315e+00 1.200000e+01
    endloop
  endfacet
  facet normal -7.361324e-01 6.768375e-01 -4.144434e-17
    outer loop
      vertex -1.030634e+00 6.090315e+00 1.200000e+01
      vertex -1.030634e+00 6.090315e+00 1.000000e+01
      vertex -1.134819e+00 5.971220e+00 1.000000e+01
    endloop
  endfacet
  facet normal -7.718251e-01 6.358349e-01 -3.893366e-17
    outer loop
      vertex -1.030634e+00 6.090315e+00 1.200000e+01
      vertex -1.134819e+00 5.971220e+00 1.000000e+01
      vertex -1.134819e+00 5.971220e+00 1.200000e+01
    endloop
  endfacet
  facet normal -8.376360e-01 5.462288e-01 -3.344687e-17
    outer loop
      vertex -1.134819e+00 5.971220e+00 1.200000e+01
      vertex -1.134819e+00 5.971220e+00 1.000000e+01
      vertex -1.220213e+00 5.831501e+00 1.000000e+01
    endloop
  endfacet
  facet normal -8.674996e-01 4.974377e-01 -3.045928e-17
    outer loop
      vertex -1.134819e+00 5.971220e+00 1.200000e+01
      vertex -1.220213e+00 5.831501e+00 1.000000e+01
      vertex -1.220213e+00 5.831501e+00 1.200000e+01
    endloop
  endfacet
  facet normal -9.187890e-01 3.947490e-01 -2.417141e-17
    outer loop
      vertex -1.220213e+00 5.831501e+00 1.200000e+01
      vertex -1.220213e+00 5.831501e+00 1.000000e+01
      vertex -1.283306e+00 5.671891e+00 1.000000e+01
    endloop
  endfacet
  facet normal -9.401321e-01 3.408101e-01 -2.086860e-17
    outer loop
      vertex -1.220213e+00 5.831501e+00 1.200000e+01
      vertex -1.283306e+00 5.671891e+00 1.000000e+01
      vertex -1.283306e+00 5.671891e+00 1.200000e+01
    endloop
  endfacet
  facet normal -9.718049e-01 2.357866e-01 -1.443777e-17
    outer loop
      vertex -1.283306e+00 5.671891e+00 1.200000e+01
      vertex -1.283306e+00 5.671891e+00 1.000000e+01
      vertex -1.316835e+00 5.514338e+00 1.000000e+01
    endloop
  endfacet
  facet normal -9.827595e-01 1.848885e-01 -1.132115e-17
    outer loop
      vertex -1.283306e+00 5.671891e+00 1.200000e+01
      vertex -1.316835e+00 5.514338e+00 1.000000e+01
      vertex -1.316835e+00 5.514338e+00 1.200000e+01
    endloop
  endfacet
  facet normal -9.943286e-01 1.063518e-01 -6.512169e-18
    outer loop
      vertex -1.316835e+00 5.514338e+00 1.200000e+01
      vertex -1.316835e+00 5.514338e+00 1.000000e+01
      vertex -1.333406e+00 5.304940e+00 1.000000e+01
    endloop
  endfacet
  facet normal -9.968767e-01 7.897396e-02 -4.835761e-18
    outer loop
      vertex -1.316835e+00 5.514338e+00 1.200000e+01
      vertex -1.333406e+00 5.304940e+00 1.000000e+01
      vertex -1.333406e+00 5.304940e+00 1.200000e+01
    endloop
  endfacet
  facet normal -1.000000e+00 0.000000e+00 0.000000e+00
    outer loop
      vertex -1.333406e+00 -4.625603e+00 1.200000e+01
      vertex -1.333406e+00 5.304940e+00 1.200000e+01
      vertex -1.333406e+00 -4.625603e+00 1.000000e+01
    endloop
  endfacet
  facet normal -1.000000e+00 0.000000e+00 0.000000e+00
    outer loop
      vertex -1.333406e+00 -4.625603e+00 1.000000e+01
      vertex -1.333406e+00 5.304940e+00 1.200000e+01
      vertex -1.333406e+00 5.304940e+00 1.000000e+01
    endloop
  endfacet
  facet normal -9.979585e-01 -6.386568e-02 3.910645e-18
    outer loop
      vertex -1.333406e+00 -4.625603e+00 1.200000e+01
      vertex -1.333406e+00 -4.625603e+00 1.000000e+01
      vertex -1.324511e+00 -4.764650e+00 1.000000e+01
    endloop
  endfacet
  facet normal -9.971262e-01 -7.575811e-02 4.638846e-18
    outer loop
      vertex -1.333406e+00 -4.625603e+00 1.200000e+01
      vertex -1.324511e+00 -4.764650e+00 1.000000e+01
      vertex -1.324511e+00 -4.764650e+00 1.200000e+01
    endloop
  endfacet
  facet normal -9.909837e-01 -1.339829e-01 8.204089e-18
    outer loop
      vertex -1.324511e+00 -4.764650e+00 1.200000e+01
      vertex -1.324511e+00 -4.764650e+00 1.000000e+01
      vertex -1.298917e+00 -4.933922e+00 1.000000e+01
    endloop
  endfacet
  facet normal -9.836416e-01 -1.801366e-01 1.103019e-17
    outer loop
      vertex -1.324511e+00 -4.764650e+00 1.200000e+01
      vertex -1.298917e+00 -4.933922e+00 1.000000e+01
      vertex -1.298917e+00 -4.933922e+00 1.200000e+01
    endloop
  endfacet
  facet normal -9.603798e-01 -2.786945e-01 1.706511e-17
    outer loop
      vertex -1.298917e+00 -4.933922e+00 1.200000e+01
      vertex -1.298917e+00 -4.933922e+00 1.000000e+01
      vertex -1.246943e+00 -5.095934e+00 1.000000e+01
    endloop
  endfacet
  facet normal -9.436611e-01 -3.309134e-01 2.026260e-17
    outer loop
      vertex -1.298917e+00 -4.933922e+00 1.200000e+01
      vertex -1.246943e+00 -5.095934e+00 1.000000e+01
      vertex -1.246943e+00 -5.095934e+00 1.200000e+01
    endloop
  endfacet
  facet normal -9.038771e-01 -4.277925e-01 2.619474e-17
    outer loop
      vertex -1.246943e+00 -5.095934e+00 1.200000e+01
      vertex -1.246943e+00 -5.095934e+00 1.000000e+01
      vertex -1.177371e+00 -5.234215e+00 1.000000e+01
    endloop
  endfacet
  facet normal -8.812573e-01 -4.726368e-01 2.894066e-17
    outer loop
      vertex -1.246943e+00 -5.095934e+00 1.200000e+01
      vertex -1.177371e+00 -5.234215e+00 1.000000e+01
      vertex -1.177371e+00 -5.234215e+00 1.200000e+01
    endloop
  endfacet
  facet normal -8.280181e-01 -5.607014e-01 3.433306e-17
    outer loop
      vertex -1.177371e+00 -5.234215e+00 1.200000e+01
      vertex -1.177371e+00 -5.234215e+00 1.000000e+01
      vertex -1.091372e+00 -5.354548e+00 1.000000e+01
    endloop
  endfacet
  facet normal -7.971549e-01 -6.037748e-01 3.697055e-17
    outer loop
      vertex -1.177371e+00 -5.234215e+00 1.200000e+01
      vertex -1.091372e+00 -5.354548e+00 1.000000e+01
      vertex -1.091372e+00 -5.354548e+00 1.200000e+01
    endloop
  endfacet
  facet normal -7.310361e-01 -6.823387e-01 4.178120e-17
    outer loop
      vertex -1.091372e+00 -5.354548e+00 1.200000e+01
      vertex -1.091372e+00 -5.354548e+00 1.000000e+01
      vertex -9.791813e-01 -5.468004e+00 1.000000e+01
    endloop
  endfacet
  facet normal -6.960151e-01 -7.180271e-01 4.396648e-17
    outer loop
      vertex -1.091372e+00 -5.354548e+00 1.200000e+01
      vertex -9.791813e-01 -5.468004e+00 1.000000e+01
      vertex -9.791813e-01 -5.468004e+00 1.200000e+01
    endloop
  endfacet
  facet normal -6.354430e-01 -7.721478e-01 4.728042e-17
    outer loop
      vertex -9.791813e-01 -5.468004e+00 1.200000e+01
      vertex -9.791813e-01 -5.468004e+00 1.000000e+01
      vertex -8.760900e-01 -5.549973e+00 1.000000e+01
    endloop
  endfacet
  facet normal -6.108887e-01 -7.917165e-01 4.847865e-17
    outer loop
      vertex -9.791813e-01 -5.468004e+00 1.200000e+01
      vertex -8.760900e-01 -5.549973e+00 1.000000e+01
      vertex -8.760900e-01 -5.549973e+00 1.200000e+01
    endloop
  endfacet
  facet normal -5.422697e-01 -8.402045e-01 5.144769e-17
    outer loop
      vertex -8.760900e-01 -5.549973e+00 1.200000e+01
      vertex -8.760900e-01 -5.549973e+00 1.000000e+01
      vertex -6.912289e-01 -5.662771e+00 1.000000e+01
    endloop
  endfacet
  facet normal -4.971504e-01 -8.676643e-01 5.312912e-17
    outer loop
      vertex -8.760900e-01 -5.549973e+00 1.200000e+01
      vertex -6.912289e-01 -5.662771e+00 1.000000e+01
      vertex -6.912289e-01 -5.662771e+00 1.200000e+01
    endloop
  endfacet
  facet normal -3.993841e-01 -9.167838e-01 5.613682e-17
    outer loop
      vertex -6.912289e-01 -5.662771e+00 1.200000e+01
      vertex -6.912289e-01 -5.662771e+00 1.000000e+01
      vertex -4.504986e-01 -5.758556e+00 1.000000e+01
    endloop
  endfacet
  facet normal -3.465322e-01 -9.380382e-01 5.743827e-17
    outer loop
      vertex -6.912289e-01 -5.662771e+00 1.200000e+01
      vertex -4.504986e-01 -5.758556e+00 1.000000e+01
      vertex -4.504986e-01 -5.758556e+00 1.200000e+01
    endloop
  endfacet
  facet normal -2.419749e-01 -9.702826e-01 5.941267e-17
    outer loop
      vertex -4.504986e-01 -5.758556e+00 1.200000e+01
      vertex -4.504986e-01 -5.758556e+00 1.000000e+01
      vertex -2.090836e-01 -5.812557e+00 1.000000e+01
    endloop
  endfacet
  facet normal -1.904021e-01 -9.817062e-01 6.011217e-17
    outer loop
      vertex -4.504986e-01 -5.758556e+00 1.200000e+01
      vertex -2.090836e-01 -5.812557e+00 1.000000e+01
      vertex -2.090836e-01 -5.812557e+00 1.200000e+01
    endloop
  endfacet
  facet normal -1.059450e-01 -9.943720e-01 6.088773e-17
    outer loop
      vertex -2.090836e-01 -5.812557e+00 1.200000e+01
      vertex -2.090836e-01 -5.812557e+00 1.000000e+01
      vertex 7.483101e-02 -5.833406e+00 1.000000e+01
    endloop
  endfacet
  facet normal -7.329780e-02 -9.973101e-01 6.106763e-17
    outer loop
      vertex -2.090836e-01 -5.812557e+00 1.200000e+01
      vertex 7.483101e-02 -5.833406e+00 1.000000e+01
      vertex 7.483101e-02 -5.833406e+00 1.200000e+01
    endloop
  endfacet
  facet normal 1.922525e-13 -2.883353e-14 1.000000e+00
    outer loop
      vertex 4.360600e-01 6.464604e+00 1.200000e+01
      vertex 7.483101e-02 6.494524e+00 1.200000e+01
      vertex -2.249594e-01 6.474003e+00 1.200000e+01
    endloop
  endfacet
  facet normal 1.922525e-13 -2.883353e-14 1.000000e+00
    outer loop
      vertex 4.360600e-01 6.464604e+00 1.200000e+01
      vertex -2.249594e-01 6.474003e+00 1.200000e+01
      vertex 6.573086e-01 6.411128e+00 1.200000e+01
    endloop
  endfacet
  facet normal 1.922525e-13 -2.883353e-14 1.000000e+00
    outer loop
      vertex 6.573086e-01 6.411128e+00 1.200000e+01
      vertex -2.249594e-01 6.474003e+00 1.200000e+01
      vertex -4.781399e-01 6.413596e+00 1.200000e+01
    endloop
  endfacet
  facet normal 1.922525e-13 -2.883353e-14 1.000000e+00
    outer loop
      vertex 6.573086e-01 6.411128e+00 1.200000e+01
      vertex -4.781399e-01 6.413596e+00 1.200000e+01
      vertex 8.431854e-01 6.336812e+00 1.200000e+01
    endloop
  endfacet
  facet normal 1.922525e-13 -2.883353e-14 1.000000e+00
    outer loop
      vertex 8.431854e-01 6.336812e+00 1.200000e+01
      vertex -4.781399e-01 6.413596e+00 1.200000e+01
      vertex -6.831341e-01 6.332799e+00 1.200000e+01
    endloop
  endfacet
  facet normal 1.922525e-13 -2.883353e-14 1.000000e+00
    outer loop
      vertex 8.431854e-01 6.336812e+00 1.200000e+01
      vertex -6.831341e-01 6.332799e+00 1.200000e+01
      vertex 1.053568e+00 6.210793e+00 1.200000e+01
    endloop
  endfacet
  facet normal 1.922525e-13 -2.883353e-14 1.000000e+00
    outer loop
      vertex 1.053568e+00 6.210793e+00 1.200000e+01
      vertex -6.831341e-01 6.332799e+00 1.200000e+01
      vertex -8.684406e-01 6.223754e+00 1.200000e+01
    endloop
  endfacet
  facet normal 1.922525e-13 -2.883353e-14 1.000000e+00
    outer loop
      vertex 1.053568e+00 6.210793e+00 1.200000e+01
      vertex -8.684406e-01 6.223754e+00 1.200000e+01
      vertex 1.202698e+00 6.078111e+00 1.200000e+01
    endloop
  endfacet
  facet normal 1.922525e-13 -2.883353e-14 1.000000e+00
    outer loop
      vertex 1.202698e+00 6.078111e+00 1.200000e+01
      vertex -8.684406e-01 6.223754e+00 1.200000e+01
      vertex -1.030634e+00 6.090315e+00 1.200000e+01
    endloop
  endfacet
  facet normal 1.922525e-13 -2.883353e-14 1.000000e+00
    outer loop
      vertex 1.202698e+00 6.078111e+00 1.200000e+01
      vertex -1.030634e+00 6.090315e+00 1.200000e+01
      vertex 1.295219e+00 5.969692e+00 1.200000e+01
    endloop
  endfacet
  facet normal 1.922525e-13 -2.883353e-14 1.000000e+00
    outer loop
      vertex 1.295219e+00 5.969692e+00 1.200000e+01
      vertex -1.030634e+00 6.090315e+00 1.200000e+01
      vertex -1.134819e+00 5.971220e+00 1.200000e+01
    endloop
  endfacet
  facet normal 1.922525e-13 -2.883353e-14 1.000000e+00
    outer loop
      vertex 1.295219e+00 5.969692e+00 1.200000e+01
      vertex -1.134819e+00 5.971220e+00 1.200000e+01
      vertex 1.373257e+00 5.842047e+00 1.200000e+01
    endloop
  endfacet
  facet normal 1.922525e-13 -2.883353e-14 1.000000e+00
    outer loop
      vertex 1.373257e+00 5.842047e+00 1.200000e+01
      vertex -1.134819e+00 5.971220e+00 1.200000e+01
      vertex -1.220213e+00 5.831501e+00 1.200000e+01
    endloop
  endfacet
  facet normal 1.922525e-13 -2.883353e-14 1.000000e+00
    outer loop
      vertex 1.373257e+00 5.842047e+00 1.200000e+01
      vertex -1.220213e+00 5.831501e+00 1.200000e+01
      vertex 1.439538e+00 5.687017e+00 1.200000e+01
    endloop
  endfacet
  facet normal 1.922525e-13 -2.883353e-14 1.000000e+00
    outer loop
      vertex 1.439538e+00 5.687017e+00 1.200000e+01
      vertex -1.220213e+00 5.831501e+00 1.200000e+01
      vertex -1.283306e+00 5.671891e+00 1.200000e+01
    endloop
  endfacet
  facet normal 1.922525e-13 -2.883353e-14 1.000000e+00
    outer loop
      vertex 1.439538e+00 5.687017e+00 1.200000e+01
      vertex -1.283306e+00 5.671891e+00 1.200000e+01
      vertex 1.477244e+00 5.537275e+00 1.200000e+01
    endloop
  endfacet
  facet normal 1.922525e-13 -2.883353e-14 1.000000e+00
    outer loop
      vertex 1.477244e+00 5.537275e+00 1.200000e+01
      vertex -1.283306e+00 5.671891e+00 1.200000e+01
      vertex -1.316835e+00 5.514338e+00 1.200000e+01
    endloop
  endfacet
  facet normal 1.922525e-13 -2.883353e-14 1.000000e+00
    outer loop
      vertex 1.477244e+00 5.537275e+00 1.200000e+01
      vertex -1.316835e+00 5.514338e+00 1.200000e+01
      vertex 1.498686e+00 5.304940e+00 1.200000e+01
    endloop
  endfacet
  facet normal 1.922525e-13 -2.883353e-14 1.000000e+00
    outer loop
      vertex 1.498686e+00 5.304940e+00 1.200000e+01
      vertex -1.316835e+00 5.514338e+00 1.200000e+01
      vertex -1.333406e+00 5.304940e+00 1.200000e+01
    endloop
  endfacet
  facet normal 1.922525e-13 -2.883353e-14 1.000000e+00
    outer loop
      vertex 1.498686e+00 5.304940e+00 1.200000e+01
      vertex -1.333406e+00 5.304940e+00 1.200000e+01
      vertex 1.498686e+00 -4.625603e+00 1.200000e+01
    endloop
  endfacet
  facet normal 1.922525e-13 -2.883353e-14 1.000000e+00
    outer loop
      vertex -1.177371e+00 -5.234215e+00 1.200000e+01
      vertex -1.091372e+00 -5.354548e+00 1.200000e+01
      vertex -9.791813e-01 -5.468004e+00 1.200000e+01
    endloop
  endfacet
  facet normal 1.922525e-13 -2.883353e-14 1.000000e+00
    outer loop
      vertex -1.246943e+00 -5.095934e+00 1.200000e+01
      vertex -1.177371e+00 -5.234215e+00 1.200000e+01
      vertex 1.498686e+00 -4.625603e+00 1.200000e+01
    endloop
  endfacet
  facet normal 1.922525e-13 -2.883353e-14 1.000000e+00
    outer loop
      vertex -1.298917e+00 -4.933922e+00 1.200000e+01
      vertex -1.246943e+00 -5.095934e+00 1.200000e+01
      vertex -1.324511e+00 -4.764650e+00 1.200000e+01
    endloop
  endfacet
  facet normal 1.922525e-13 -2.883353e-14 1.000000e+00
    outer loop
      vertex -1.324511e+00 -4.764650e+00 1.200000e+01
      vertex -1.246943e+00 -5.095934e+00 1.200000e+01
      vertex 1.498686e+00 -4.625603e+00 1.200000e+01
    endloop
  endfacet
  facet normal 1.922525e-13 -2.883353e-14 1.000000e+00
    outer loop
      vertex -1.324511e+00 -4.764650e+00 1.200000e+01
      vertex 1.498686e+00 -4.625603e+00 1.200000e+01
      vertex -1.333406e+00 -4.625603e+00 1.200000e+01
    endloop
  endfacet
  facet normal 1.922525e-13 -2.883353e-14 1.000000e+00
    outer loop
      vertex -1.333406e+00 -4.625603e+00 1.200000e+01
      vertex 1.498686e+00 -4.625603e+00 1.200000e+01
      vertex -1.333406e+00 5.304940e+00 1.200000e+01
    endloop
  endfacet
  facet normal 1.922525e-13 -2.883353e-14 1.000000e+00
    outer loop
      vertex -1.177371e+00 -5.234215e+00 1.200000e+01
      vertex -9.791813e-01 -5.468004e+00 1.200000e+01
      vertex 1.498686e+00 -4.625603e+00 1.200000e+01
    endloop
  endfacet
  facet normal 1.922525e-13 -2.883353e-14 1.000000e+00
    outer loop
      vertex 1.498686e+00 -4.625603e+00 1.200000e+01
      vertex -9.791813e-01 -5.468004e+00 1.200000e+01
      vertex -8.760900e-01 -5.549973e+00 1.200000e+01
    endloop
  endfacet
  facet normal 1.922525e-13 -2.883353e-14 1.000000e+00
    outer loop
      vertex 1.498686e+00 -4.625603e+00 1.200000e+01
      vertex -8.760900e-01 -5.549973e+00 1.200000e+01
      vertex 1.481873e+00 -4.837736e+00 1.200000e+01
    endloop
  endfacet
  facet normal 1.922525e-13 -2.883353e-14 1.000000e+00
    outer loop
      vertex 1.481873e+00 -4.837736e+00 1.200000e+01
      vertex -8.760900e-01 -5.549973e+00 1.200000e+01
      vertex -6.912289e-01 -5.662771e+00 1.200000e+01
    endloop
  endfacet
  facet normal 1.922525e-13 -2.883353e-14 1.000000e+00
    outer loop
      vertex 1.481873e+00 -4.837736e+00 1.200000e+01
      vertex -6.912289e-01 -5.662771e+00 1.200000e+01
      vertex 1.448439e+00 -4.991426e+00 1.200000e+01
    endloop
  endfacet
  facet normal 1.922525e-13 -2.883353e-14 1.000000e+00
    outer loop
      vertex 1.448439e+00 -4.991426e+00 1.200000e+01
      vertex -6.912289e-01 -5.662771e+00 1.200000e+01
      vertex -4.504986e-01 -5.758556e+00 1.200000e+01
    endloop
  endfacet
  facet normal 1.922525e-13 -2.883353e-14 1.000000e+00
    outer loop
      vertex 1.448439e+00 -4.991426e+00 1.200000e+01
      vertex -4.504986e-01 -5.758556e+00 1.200000e+01
      vertex 1.386916e+00 -5.146320e+00 1.200000e+01
    endloop
  endfacet
  facet normal 1.922525e-13 -2.883353e-14 1.000000e+00
    outer loop
      vertex 1.386916e+00 -5.146320e+00 1.200000e+01
      vertex -4.504986e-01 -5.758556e+00 1.200000e+01
      vertex -2.090836e-01 -5.812557e+00 1.200000e+01
    endloop
  endfacet
  facet normal 1.922525e-13 -2.883353e-14 1.000000e+00
    outer loop
      vertex 1.386916e+00 -5.146320e+00 1.200000e+01
      vertex -2.090836e-01 -5.812557e+00 1.200000e+01
      vertex 1.301295e+00 -5.287914e+00 1.200000e+01
    endloop
  endfacet
  facet normal 1.922525e-13 -2.883353e-14 1.000000e+00
    outer loop
      vertex 1.301295e+00 -5.287914e+00 1.200000e+01
      vertex -2.090836e-01 -5.812557e+00 1.200000e+01
      vertex 7.483101e-02 -5.833406e+00 1.200000e+01
    endloop
  endfacet
  facet normal 1.922525e-13 -2.883353e-14 1.000000e+00
    outer loop
      vertex 1.301295e+00 -5.287914e+00 1.200000e+01
      vertex 7.483101e-02 -5.833406e+00 1.200000e+01
      vertex 1.193610e+00 -5.413248e+00 1.200000e+01
    endloop
  endfacet
  facet normal 1.922525e-13 -2.883353e-14 1.000000e+00
    outer loop
      vertex 1.193610e+00 -5.413248e+00 1.200000e+01
      vertex 7.483101e-02 -5.833406e+00 1.200000e+01
      vertex 3.823128e-01 -5.809050e+00 1.200000e+01
    endloop
  endfacet
  facet normal 1.922525e-13 -2.883353e-14 1.000000e+00
    outer loop
      vertex 1.193610e+00 -5.413248e+00 1.200000e+01
      vertex 3.823128e-01 -5.809050e+00 1.200000e+01
      vertex 1.029878e+00 -5.550375e+00 1.200000e+01
    endloop
  endfacet
  facet normal 1.922525e-13 -2.883353e-14 1.000000e+00
    outer loop
      vertex 1.029878e+00 -5.550375e+00 1.200000e+01
      vertex 3.823128e-01 -5.809050e+00 1.200000e+01
      vertex 6.304512e-01 -5.748999e+00 1.200000e+01
    endloop
  endfacet
  facet normal 1.922525e-13 -2.883353e-14 1.000000e+00
    outer loop
      vertex 1.029878e+00 -5.550375e+00 1.200000e+01
      vertex 6.304512e-01 -5.748999e+00 1.200000e+01
      vertex 8.429089e-01 -5.662952e+00 1.200000e+01
    endloop
  endfacet
endsolid Default
