<?xml version="1.0" encoding="UTF-8" standalone="no"?>
<!-- Created with Inkscape (http://www.inkscape.org/) -->

<svg
   xmlns:dc="http://purl.org/dc/elements/1.1/"
   xmlns:cc="http://creativecommons.org/ns#"
   xmlns:rdf="http://www.w3.org/1999/02/22-rdf-syntax-ns#"
   xmlns:svg="http://www.w3.org/2000/svg"
   xmlns="http://www.w3.org/2000/svg"
   xmlns:sodipodi="http://sodipodi.sourceforge.net/DTD/sodipodi-0.dtd"
   xmlns:inkscape="http://www.inkscape.org/namespaces/inkscape"
   width="744.09448819"
   height="1052.3622047"
   id="svg3751"
   version="1.1"
   inkscape:version="0.48.0 r9654"
   sodipodi:docname="New document 7">
  <defs
     id="defs3753">
    <inkscape:path-effect
       is_visible="true"
       id="path-effect4782"
       effect="spiro" />
    <inkscape:path-effect
       effect="spiro"
       id="path-effect4778"
       is_visible="true" />
    <symbol
       id="*Paper_Space0" />
    <symbol
       id="*Paper_Space" />
    <symbol
       id="*Model_Space" />
    <marker
       orient="auto"
       id="DistanceX"
       style="overflow:visible"
       refX="0.0"
       refY="0.0">
      <path
         id="path3843"
         d="M 3,-3 L -3,3 M 0,-5 L  0,5"
         style="stroke:#000000; stroke-width:0.5" />
    </marker>
  </defs>
  <sodipodi:namedview
     id="base"
     pagecolor="#ffffff"
     bordercolor="#666666"
     borderopacity="1.0"
     inkscape:pageopacity="0.0"
     inkscape:pageshadow="2"
     inkscape:zoom="0.175"
     inkscape:cx="39.617537"
     inkscape:cy="590.89311"
     inkscape:document-units="px"
     inkscape:current-layer="g3848"
     showgrid="true"
     inkscape:window-width="1122"
     inkscape:window-height="787"
     inkscape:window-x="509"
     inkscape:window-y="180"
     inkscape:window-maximized="0">
    <inkscape:grid
       type="xygrid"
       id="grid4774"
       empspacing="5"
       visible="true"
       enabled="true"
       snapvisiblegridlinesonly="true"
       spacingx="1px" />
  </sodipodi:namedview>
  <metadata
     id="metadata3756">
    <rdf:RDF>
      <cc:Work
         rdf:about="">
        <dc:format>image/svg+xml</dc:format>
        <dc:type
           rdf:resource="http://purl.org/dc/dcmitype/StillImage" />
        <dc:title></dc:title>
      </cc:Work>
    </rdf:RDF>
  </metadata>
  <g
     inkscape:label="Layer 1"
     inkscape:groupmode="layer"
     id="layer1">
    <g
       id="g3848"
       inkscape:label="0"
       transform="translate(-340.30541,182.33969)">
      <path
         style="font-size:medium;font-style:normal;font-variant:normal;font-weight:normal;font-stretch:normal;text-indent:0;text-align:start;text-decoration:none;line-height:normal;letter-spacing:normal;word-spacing:normal;text-transform:none;direction:ltr;block-progression:tb;writing-mode:lr-tb;text-anchor:start;baseline-shift:baseline;color:#000000;fill:#000000;fill-opacity:1;stroke:#000000;stroke-width:1;stroke-opacity:1;marker:none;visibility:visible;display:inline;overflow:visible;enable-background:accumulate;font-family:Sans;-inkscape-font-specification:Sans"
         d="m 1182.6179,910.45999 -213.90624,110.90631 0.21875,0.4375 -0.21875,0.4687 62.90624,31.4688 c -28.7396,57.2457 -75.15968,105.4593 -131.31249,136.2812 -28.15103,15.4519 -58.64844,26.6073 -90.125,32.9688 l -0.0312,0 c -31.4671,6.3564 -63.91174,7.9309 -95.84375,4.625 -31.94223,-3.307 -63.36927,-11.4813 -92.875,-24.1563 -29.50573,-12.6749 -57.08032,-29.8587 -81.46875,-50.75 -48.77524,-41.7811 -84.4368,-98.6721 -100.7813,-160.78121 l -0.5,0.125 -0.125,-0.4688 -137.0625,36.06251 0.125,0.4688 -0.46875,0.125 c 11.83638,44.9782 30.51739,88.1546 55.21875,127.5625 24.70136,39.4079 55.39669,75.0554 90.71875,105.3125 35.32206,30.2571 75.2665,55.1115 118,73.4688 42.7335,18.3572 88.26894,30.2104 134.53125,35 46.26231,4.7895 93.22462,2.5258 138.8125,-6.6876 45.58788,-9.2133 89.75978,-25.3708 130.53125,-47.75 40.77144,-22.3791 78.12434,-50.9883 110.37494,-84.5 32.1376,-33.3941 59.1977,-71.6624 79.9688,-113.0937 l 62.9375,31.4687 0.2187,-0.4062 0.5,-0.094 -39.5937,-237.71881 -0.5,0.094 -0.25,-0.4375 z"
         id="path4706"
         inkscape:connector-curvature="0" />
      <path
         style="color:#000000;fill:#000000;stroke:#000000;stroke-width:2;stroke-linecap:butt;stroke-linejoin:miter;stroke-miterlimit:4;stroke-opacity:1;stroke-dasharray:none;stroke-dashoffset:0;marker:none;visibility:visible;display:inline;overflow:visible;enable-background:accumulate;fill-opacity:1"
         d="m 740.30541,-89.977504 -359.99999,359.999994 159.99999,0 0,280 400,0 0,-280 159.99999,0 -359.99999,-359.999994"
         id="path4776"
         inkscape:path-effect="#path-effect4778"
         inkscape:original-d="m 740.30541,-89.977504 -359.99999,359.999994 159.99999,0 0,280 400,0 0,-280 159.99999,0 z"
         inkscape:connector-curvature="0" />
      <path
         inkscape:connector-curvature="0"
         inkscape:original-d="m 1660.3054,-129.9775 -360,359.99999 160,0 0,280 400,0 0,-280 160,0 z"
         inkscape:path-effect="#path-effect4782"
         id="path4780"
         d="m 1660.3054,-129.9775 -360,359.99999 160,0 0,280 400,0 0,-280 160,0 -360,-359.99999"
         style="color:#000000;fill:#000000;fill-opacity:1;stroke:#000000;stroke-width:2;stroke-linecap:butt;stroke-linejoin:miter;stroke-miterlimit:4;stroke-opacity:1;stroke-dasharray:none;stroke-dashoffset:0;marker:none;visibility:visible;display:inline;overflow:visible;enable-background:accumulate" />
    </g>
  </g>
</svg>
